<ttFont>
<head>
    <!-- Most of this table will be recalculated by the compiler -->
    <tableVersion value="1.0"/>
    <fontRevision value="2.202"/>
    <checkSumAdjustment value="0xf5e89c29"/>
    <magicNumber value="0x5f0f3cf5"/>
    <flags value="00000000 00011011"/>
    <unitsPerEm value="1000"/>
    <created value="Sat Jan 23 04:30:03 2016"/>
    <modified value="Thu Mar 10 20:57:18 2016"/>
    <xMin value="-93"/>
    <yMin value="-275"/>
    <xMax value="1051"/>
    <yMax value="1072"/>
    <macStyle value="00000000 00000000"/>
    <lowestRecPPEM value="5"/>
    <fontDirectionHint value="2"/>
    <indexToLocFormat value="0"/>
    <glyphDataFormat value="0"/>
  </head>
    <TTGlyph name=".notdef" xMin="0" yMin="-200" xMax="500" yMax="800">
      <contour>
        <pt x="0" y="800" on="1"/>
        <pt x="500" y="800" on="1"/>
        <pt x="500" y="-200" on="1"/>
        <pt x="0" y="-200" on="1"/>
      </contour>
      <contour>
        <pt x="250" y="360" on="1"/>
        <pt x="429" y="750" on="1"/>
        <pt x="71" y="750" on="1"/>
      </contour>
      <contour>
        <pt x="222" y="300" on="1"/>
        <pt x="50" y="676" on="1"/>
        <pt x="50" y="-76" on="1"/>
      </contour>
      <contour>
        <pt x="278" y="300" on="1"/>
        <pt x="450" y="-76" on="1"/>
        <pt x="450" y="676" on="1"/>
      </contour>
      <contour>
        <pt x="71" y="-150" on="1"/>
        <pt x="429" y="-150" on="1"/>
        <pt x="250" y="240" on="1"/>
      </contour>
    </TTGlyph>
    <TTGlyph name="A" xMin="16" yMin="-9" xMax="649" yMax="727">
      <contour>
        <pt x="236" y="727" on="1"/>
        <pt x="434" y="727" on="1"/>
        <pt x="649" y="20" on="1"/>
        <pt x="473" y="-9" on="1"/>
        <pt x="429" y="151" on="1"/>
        <pt x="226" y="151" on="1"/>
        <pt x="186" y="0" on="1"/>
        <pt x="16" y="0" on="1"/>
      </contour>
      <contour>
        <pt x="260" y="288" on="1"/>
        <pt x="393" y="288" on="1"/>
        <pt x="326" y="538" on="1"/>
      </contour>
    </TTGlyph>
    <TTGlyph name="A.flat" xMin="16" yMin="0" xMax="655" yMax="727">
      <contour>
        <pt x="236" y="727" on="1"/>
        <pt x="434" y="727" on="1"/>
        <pt x="655" y="0" on="1"/>
        <pt x="471" y="0" on="1"/>
        <pt x="429" y="151" on="1"/>
        <pt x="226" y="151" on="1"/>
        <pt x="186" y="0" on="1"/>
        <pt x="16" y="0" on="1"/>
      </contour>
      <contour>
        <pt x="260" y="288" on="1"/>
        <pt x="393" y="288" on="1"/>
        <pt x="326" y="538" on="1"/>
      </contour>
    </TTGlyph>
    <TTGlyph name="AE" xMin="7" yMin="0" xMax="839" yMax="725">
      <contour>
        <pt x="310" y="725" on="1"/>
        <pt x="830" y="725" on="1"/>
        <pt x="830" y="582" on="1"/>
        <pt x="587" y="582" on="1"/>
        <pt x="587" y="445" on="1"/>
        <pt x="768" y="445" on="1"/>
        <pt x="791" y="301" on="1"/>
        <pt x="587" y="301" on="1"/>
        <pt x="587" y="143" on="1"/>
        <pt x="839" y="143" on="1"/>
        <pt x="839" y="0" on="1"/>
        <pt x="418" y="0" on="1"/>
        <pt x="418" y="152" on="1"/>
        <pt x="245" y="152" on="1"/>
        <pt x="184" y="0" on="1"/>
        <pt x="7" y="0" on="1"/>
      </contour>
      <contour>
        <pt x="418" y="288" on="1"/>
        <pt x="418" y="603" on="1"/>
        <pt x="296" y="288" on="1"/>
      </contour>
    </TTGlyph>
    <TTGlyph name="AE.flat" xMin="7" yMin="0" xMax="839" yMax="725">
      <contour>
        <pt x="310" y="725" on="1"/>
        <pt x="830" y="725" on="1"/>
        <pt x="830" y="582" on="1"/>
        <pt x="587" y="582" on="1"/>
        <pt x="587" y="445" on="1"/>
        <pt x="780" y="445" on="1"/>
        <pt x="780" y="301" on="1"/>
        <pt x="587" y="301" on="1"/>
        <pt x="587" y="143" on="1"/>
        <pt x="839" y="143" on="1"/>
        <pt x="839" y="0" on="1"/>
        <pt x="418" y="0" on="1"/>
        <pt x="418" y="152" on="1"/>
        <pt x="245" y="152" on="1"/>
        <pt x="184" y="0" on="1"/>
        <pt x="7" y="0" on="1"/>
      </contour>
      <contour>
        <pt x="418" y="288" on="1"/>
        <pt x="418" y="603" on="1"/>
        <pt x="296" y="288" on="1"/>
      </contour>
    </TTGlyph>
    <TTGlyph name="AEacute" xMin="7" yMin="0" xMax="839" yMax="930">
      <component glyphName="acute.cap" x="321" y="204" flags="0x4"/>
      <component glyphName="AE" x="0" y="0" flags="0x4"/>
    </TTGlyph>
    <TTGlyph name="AEacute.flat" xMin="7" yMin="0" xMax="839" yMax="930">
      <component glyphName="acute.cap" x="321" y="204" flags="0x4"/>
      <component glyphName="AE.flat" x="0" y="0" flags="0x4"/>
    </TTGlyph>
    <TTGlyph name="Aacute" xMin="16" yMin="-9" xMax="649" yMax="938">
      <component glyphName="A" x="0" y="0" flags="0x204"/>
      <component glyphName="acute.cap" x="166" y="212" flags="0x4"/>
    </TTGlyph>
    <TTGlyph name="Aacute.flat" xMin="16" yMin="0" xMax="655" yMax="938">
      <component glyphName="acute.cap" x="165" y="212" flags="0x4"/>
      <component glyphName="A.flat" x="0" y="0" flags="0x4"/>
    </TTGlyph>
    <TTGlyph name="Abreve" xMin="16" yMin="-9" xMax="649" yMax="934">
      <component glyphName="A" x="0" y="0" flags="0x204"/>
      <component glyphName="breve.cap" x="114" y="212" flags="0x4"/>
    </TTGlyph>
    <TTGlyph name="Abreve.flat" xMin="16" yMin="0" xMax="655" yMax="934">
      <component glyphName="breve.cap" x="112" y="212" flags="0x4"/>
      <component glyphName="A.flat" x="0" y="0" flags="0x4"/>
    </TTGlyph>
    <TTGlyph name="Acircumflex" xMin="16" yMin="-9" xMax="649" yMax="934">
      <component glyphName="A" x="0" y="0" flags="0x4"/>
      <component glyphName="circumflex.cap" x="114" y="211" flags="0x4"/>
    </TTGlyph>
    <TTGlyph name="Acircumflex.flat" xMin="16" yMin="0" xMax="655" yMax="934">
      <component glyphName="A.flat" x="0" y="0" flags="0x4"/>
      <component glyphName="circumflex.cap" x="112" y="211" flags="0x4"/>
    </TTGlyph>
    <TTGlyph name="Adieresis" xMin="16" yMin="-9" xMax="649" yMax="917">
      <component glyphName="A" x="0" y="0" flags="0x204"/>
      <component glyphName="dieresis.cap" x="114" y="212" flags="0x4"/>
    </TTGlyph>
    <TTGlyph name="Adieresis.flat" xMin="16" yMin="0" xMax="655" yMax="917">
      <component glyphName="dieresis.cap" x="112" y="212" flags="0x4"/>
      <component glyphName="A.flat" x="0" y="0" flags="0x4"/>
    </TTGlyph>
    <TTGlyph name="Agrave" xMin="16" yMin="-9" xMax="649" yMax="938">
      <component glyphName="A" x="0" y="0" flags="0x204"/>
      <component glyphName="grave.cap" x="60" y="212" flags="0x4"/>
    </TTGlyph>
    <TTGlyph name="Agrave.flat" xMin="16" yMin="0" xMax="655" yMax="938">
      <component glyphName="grave.cap" x="59" y="212" flags="0x4"/>
      <component glyphName="A.flat" x="0" y="0" flags="0x4"/>
    </TTGlyph>
    <TTGlyph name="Amacron" xMin="16" yMin="-9" xMax="649" yMax="898">
      <component glyphName="A" x="0" y="0" flags="0x204"/>
      <component glyphName="macron.cap" x="114" y="212" flags="0x4"/>
    </TTGlyph>
    <TTGlyph name="Amacron.flat" xMin="16" yMin="0" xMax="655" yMax="898">
      <component glyphName="macron.cap" x="112" y="212" flags="0x4"/>
      <component glyphName="A.flat" x="0" y="0" flags="0x4"/>
    </TTGlyph>
    <TTGlyph name="Aogonek" xMin="16" yMin="-208" xMax="649" yMax="727">
      <contour>
        <pt x="236" y="727" on="1"/>
        <pt x="434" y="727" on="1"/>
        <pt x="649" y="20" on="1"/>
        <pt x="579" y="8" on="1"/>
        <pt x="567" y="-10" on="1"/>
        <pt x="551" y="-36" on="0"/>
        <pt x="534" y="-71" on="0"/>
        <pt x="534" y="-87" on="1"/>
        <pt x="534" y="-102" on="0"/>
        <pt x="553" y="-120" on="0"/>
        <pt x="575" y="-120" on="1"/>
        <pt x="588" y="-120" on="0"/>
        <pt x="609" y="-116" on="0"/>
        <pt x="623" y="-113" on="1"/>
        <pt x="623" y="-188" on="1"/>
        <pt x="597" y="-197" on="0"/>
        <pt x="550" y="-208" on="0"/>
        <pt x="523" y="-208" on="1"/>
        <pt x="473" y="-208" on="0"/>
        <pt x="419" y="-165" on="0"/>
        <pt x="419" y="-122" on="1"/>
        <pt x="419" y="-72" on="0"/>
        <pt x="472" y="-6" on="1"/>
        <pt x="429" y="151" on="1"/>
        <pt x="226" y="151" on="1"/>
        <pt x="186" y="0" on="1"/>
        <pt x="16" y="0" on="1"/>
      </contour>
      <contour>
        <pt x="260" y="288" on="1"/>
        <pt x="393" y="288" on="1"/>
        <pt x="326" y="538" on="1"/>
      </contour>
    </TTGlyph>
    <TTGlyph name="Aogonek.flat" xMin="16" yMin="-208" xMax="655" yMax="727">
      <contour>
        <pt x="618" y="-188" on="1"/>
        <pt x="592" y="-197" on="0"/>
        <pt x="545" y="-208" on="0"/>
        <pt x="518" y="-208" on="1"/>
        <pt x="468" y="-208" on="0"/>
        <pt x="414" y="-165" on="0"/>
        <pt x="414" y="-122" on="1"/>
        <pt x="414" y="-94" on="0"/>
        <pt x="444" y="-35" on="0"/>
        <pt x="473" y="0" on="1"/>
        <pt x="429" y="151" on="1"/>
        <pt x="226" y="151" on="1"/>
        <pt x="186" y="0" on="1"/>
        <pt x="16" y="0" on="1"/>
        <pt x="236" y="727" on="1"/>
        <pt x="434" y="727" on="1"/>
        <pt x="655" y="0" on="1"/>
        <pt x="568" y="0" on="1"/>
        <pt x="562" y="-10" on="1"/>
        <pt x="546" y="-36" on="0"/>
        <pt x="529" y="-71" on="0"/>
        <pt x="529" y="-87" on="1"/>
        <pt x="529" y="-102" on="0"/>
        <pt x="548" y="-120" on="0"/>
        <pt x="570" y="-120" on="1"/>
        <pt x="583" y="-120" on="0"/>
        <pt x="604" y="-116" on="0"/>
        <pt x="618" y="-113" on="1"/>
      </contour>
      <contour>
        <pt x="260" y="288" on="1"/>
        <pt x="393" y="288" on="1"/>
        <pt x="326" y="538" on="1"/>
      </contour>
    </TTGlyph>
    <TTGlyph name="Aring" xMin="16" yMin="-9" xMax="651" yMax="896">
      <contour>
        <pt x="471" y="781" on="1"/>
        <pt x="471" y="735" on="0"/>
        <pt x="442" y="704" on="1"/>
        <pt x="651" y="20" on="1"/>
        <pt x="475" y="-9" on="1"/>
        <pt x="430" y="151" on="1"/>
        <pt x="226" y="151" on="1"/>
        <pt x="185" y="0" on="1"/>
        <pt x="16" y="0" on="1"/>
        <pt x="229" y="703" on="1"/>
        <pt x="198" y="734" on="0"/>
        <pt x="198" y="781" on="1"/>
        <pt x="198" y="833" on="0"/>
        <pt x="271" y="896" on="0"/>
        <pt x="335" y="896" on="1"/>
        <pt x="398" y="896" on="0"/>
        <pt x="471" y="833" on="0"/>
      </contour>
      <contour>
        <pt x="260" y="288" on="1"/>
        <pt x="394" y="288" on="1"/>
        <pt x="327" y="538" on="1"/>
      </contour>
      <contour>
        <pt x="386" y="781" on="1"/>
        <pt x="386" y="807" on="0"/>
        <pt x="359" y="838" on="0"/>
        <pt x="335" y="838" on="1"/>
        <pt x="309" y="838" on="0"/>
        <pt x="283" y="807" on="0"/>
        <pt x="283" y="781" on="1"/>
        <pt x="283" y="756" on="0"/>
        <pt x="309" y="725" on="0"/>
        <pt x="335" y="725" on="1"/>
        <pt x="359" y="725" on="0"/>
        <pt x="386" y="756" on="0"/>
      </contour>
    </TTGlyph>
    <TTGlyph name="Aring.flat" xMin="16" yMin="0" xMax="656" yMax="896">
      <contour>
        <pt x="471" y="781" on="1"/>
        <pt x="471" y="735" on="0"/>
        <pt x="442" y="704" on="1"/>
        <pt x="656" y="0" on="1"/>
        <pt x="473" y="0" on="1"/>
        <pt x="430" y="151" on="1"/>
        <pt x="226" y="151" on="1"/>
        <pt x="185" y="0" on="1"/>
        <pt x="16" y="0" on="1"/>
        <pt x="229" y="703" on="1"/>
        <pt x="198" y="734" on="0"/>
        <pt x="198" y="781" on="1"/>
        <pt x="198" y="833" on="0"/>
        <pt x="271" y="896" on="0"/>
        <pt x="335" y="896" on="1"/>
        <pt x="398" y="896" on="0"/>
        <pt x="471" y="833" on="0"/>
      </contour>
      <contour>
        <pt x="260" y="288" on="1"/>
        <pt x="394" y="288" on="1"/>
        <pt x="327" y="538" on="1"/>
      </contour>
      <contour>
        <pt x="386" y="781" on="1"/>
        <pt x="386" y="807" on="0"/>
        <pt x="359" y="838" on="0"/>
        <pt x="335" y="838" on="1"/>
        <pt x="309" y="838" on="0"/>
        <pt x="283" y="807" on="0"/>
        <pt x="283" y="781" on="1"/>
        <pt x="283" y="756" on="0"/>
        <pt x="309" y="725" on="0"/>
        <pt x="335" y="725" on="1"/>
        <pt x="359" y="725" on="0"/>
        <pt x="386" y="756" on="0"/>
      </contour>
    </TTGlyph>
    <TTGlyph name="Aringacute" xMin="16" yMin="-9" xMax="651" yMax="1072">
      <contour>
        <pt x="471" y="781" on="1"/>
        <pt x="471" y="735" on="0"/>
        <pt x="442" y="704" on="1"/>
        <pt x="651" y="20" on="1"/>
        <pt x="475" y="-9" on="1"/>
        <pt x="430" y="151" on="1"/>
        <pt x="226" y="151" on="1"/>
        <pt x="185" y="0" on="1"/>
        <pt x="16" y="0" on="1"/>
        <pt x="229" y="703" on="1"/>
        <pt x="198" y="734" on="0"/>
        <pt x="198" y="781" on="1"/>
        <pt x="198" y="833" on="0"/>
        <pt x="271" y="896" on="0"/>
        <pt x="335" y="896" on="1"/>
        <pt x="398" y="896" on="0"/>
        <pt x="471" y="833" on="0"/>
      </contour>
      <contour>
        <pt x="260" y="288" on="1"/>
        <pt x="394" y="288" on="1"/>
        <pt x="327" y="538" on="1"/>
      </contour>
      <contour>
        <pt x="386" y="781" on="1"/>
        <pt x="386" y="807" on="0"/>
        <pt x="359" y="838" on="0"/>
        <pt x="335" y="838" on="1"/>
        <pt x="309" y="838" on="0"/>
        <pt x="283" y="807" on="0"/>
        <pt x="283" y="781" on="1"/>
        <pt x="283" y="756" on="0"/>
        <pt x="309" y="725" on="0"/>
        <pt x="335" y="725" on="1"/>
        <pt x="359" y="725" on="0"/>
        <pt x="386" y="756" on="0"/>
      </contour>
      <contour>
        <pt x="379" y="914" on="1"/>
        <pt x="279" y="914" on="1"/>
        <pt x="336" y="1072" on="1"/>
        <pt x="524" y="1039" on="1"/>
      </contour>
    </TTGlyph>
    <TTGlyph name="Aringacute.flat" xMin="16" yMin="0" xMax="656" yMax="1072">
      <contour>
        <pt x="471" y="781" on="1"/>
        <pt x="471" y="735" on="0"/>
        <pt x="442" y="704" on="1"/>
        <pt x="656" y="0" on="1"/>
        <pt x="473" y="0" on="1"/>
        <pt x="430" y="151" on="1"/>
        <pt x="226" y="151" on="1"/>
        <pt x="185" y="0" on="1"/>
        <pt x="16" y="0" on="1"/>
        <pt x="229" y="703" on="1"/>
        <pt x="198" y="734" on="0"/>
        <pt x="198" y="781" on="1"/>
        <pt x="198" y="833" on="0"/>
        <pt x="271" y="896" on="0"/>
        <pt x="335" y="896" on="1"/>
        <pt x="398" y="896" on="0"/>
        <pt x="471" y="833" on="0"/>
      </contour>
      <contour>
        <pt x="260" y="288" on="1"/>
        <pt x="394" y="288" on="1"/>
        <pt x="327" y="538" on="1"/>
      </contour>
      <contour>
        <pt x="386" y="781" on="1"/>
        <pt x="386" y="807" on="0"/>
        <pt x="359" y="838" on="0"/>
        <pt x="335" y="838" on="1"/>
        <pt x="309" y="838" on="0"/>
        <pt x="283" y="807" on="0"/>
        <pt x="283" y="781" on="1"/>
        <pt x="283" y="756" on="0"/>
        <pt x="309" y="725" on="0"/>
        <pt x="335" y="725" on="1"/>
        <pt x="359" y="725" on="0"/>
        <pt x="386" y="756" on="0"/>
      </contour>
      <contour>
        <pt x="379" y="914" on="1"/>
        <pt x="279" y="914" on="1"/>
        <pt x="336" y="1072" on="1"/>
        <pt x="524" y="1039" on="1"/>
      </contour>
    </TTGlyph>
    <TTGlyph name="Atilde" xMin="16" yMin="-9" xMax="649" yMax="942">
      <component glyphName="A" x="0" y="0" flags="0x204"/>
      <component glyphName="tilde.cap" x="117" y="212" flags="0x4"/>
    </TTGlyph>
    <TTGlyph name="Atilde.flat" xMin="16" yMin="0" xMax="655" yMax="942">
      <component glyphName="tilde.cap" x="116" y="212" flags="0x4"/>
      <component glyphName="A.flat" x="0" y="0" flags="0x4"/>
    </TTGlyph>
    <TTGlyph name="B" xMin="61" yMin="0" xMax="555" yMax="725">
      <contour>
        <pt x="555" y="209" on="1"/>
        <pt x="555" y="156" on="0"/>
        <pt x="516" y="77" on="0"/>
        <pt x="444" y="25" on="0"/>
        <pt x="342" y="0" on="0"/>
        <pt x="279" y="0" on="1"/>
        <pt x="61" y="0" on="1"/>
        <pt x="61" y="725" on="1"/>
        <pt x="283" y="725" on="1"/>
        <pt x="410" y="725" on="0"/>
        <pt x="533" y="627" on="0"/>
        <pt x="533" y="539" on="1"/>
        <pt x="533" y="482" on="0"/>
        <pt x="475" y="404" on="0"/>
        <pt x="430" y="384" on="1"/>
        <pt x="487" y="363" on="0"/>
        <pt x="555" y="281" on="0"/>
      </contour>
      <contour>
        <pt x="369" y="517" on="1"/>
        <pt x="369" y="554" on="0"/>
        <pt x="326" y="598" on="0"/>
        <pt x="276" y="598" on="1"/>
        <pt x="230" y="598" on="1"/>
        <pt x="230" y="432" on="1"/>
        <pt x="273" y="432" on="1"/>
        <pt x="321" y="432" on="0"/>
        <pt x="369" y="478" on="0"/>
      </contour>
      <contour>
        <pt x="385" y="219" on="1"/>
        <pt x="385" y="315" on="0"/>
        <pt x="273" y="315" on="1"/>
        <pt x="230" y="315" on="1"/>
        <pt x="230" y="127" on="1"/>
        <pt x="275" y="127" on="1"/>
        <pt x="328" y="127" on="0"/>
        <pt x="385" y="174" on="0"/>
      </contour>
    </TTGlyph>
    <TTGlyph name="C" xMin="39" yMin="-12" xMax="538" yMax="736">
      <contour>
        <pt x="538" y="39" on="1"/>
        <pt x="497" y="16" on="0"/>
        <pt x="409" y="-12" on="0"/>
        <pt x="352" y="-12" on="1"/>
        <pt x="277" y="-12" on="0"/>
        <pt x="160" y="39" on="0"/>
        <pt x="81" y="135" on="0"/>
        <pt x="39" y="274" on="0"/>
        <pt x="39" y="361" on="1"/>
        <pt x="39" y="447" on="0"/>
        <pt x="82" y="586" on="0"/>
        <pt x="164" y="683" on="0"/>
        <pt x="283" y="736" on="0"/>
        <pt x="358" y="736" on="1"/>
        <pt x="411" y="736" on="0"/>
        <pt x="493" y="713" on="0"/>
        <pt x="530" y="693" on="1"/>
        <pt x="505" y="536" on="1"/>
        <pt x="473" y="559" on="0"/>
        <pt x="411" y="585" on="0"/>
        <pt x="373" y="585" on="1"/>
        <pt x="300" y="585" on="0"/>
        <pt x="217" y="471" on="0"/>
        <pt x="217" y="362" on="1"/>
        <pt x="217" y="253" on="0"/>
        <pt x="301" y="139" on="0"/>
        <pt x="375" y="139" on="1"/>
        <pt x="411" y="139" on="0"/>
        <pt x="478" y="164" on="0"/>
        <pt x="515" y="188" on="1"/>
      </contour>
    </TTGlyph>
    <TTGlyph name="Cacute" xMin="39" yMin="-12" xMax="538" yMax="938">
      <component glyphName="C" x="0" y="0" flags="0x204"/>
      <component glyphName="acute.cap" x="170" y="212" flags="0x4"/>
    </TTGlyph>
    <TTGlyph name="Ccaron" xMin="39" yMin="-12" xMax="538" yMax="934">
      <component glyphName="C" x="0" y="0" flags="0x204"/>
      <component glyphName="caron.cap" x="118" y="212" flags="0x4"/>
    </TTGlyph>
    <TTGlyph name="Ccedilla" xMin="39" yMin="-194" xMax="538" yMax="736">
      <component glyphName="C" x="0" y="0" flags="0x204"/>
      <component glyphName="cedilla.cap" x="102" y="-5" flags="0x4"/>
    </TTGlyph>
    <TTGlyph name="Cdotaccent" xMin="39" yMin="-12" xMax="538" yMax="917">
      <component glyphName="dotaccent.cap" x="117" y="212" flags="0x4"/>
      <component glyphName="C" x="0" y="0" flags="0x4"/>
    </TTGlyph>
    <TTGlyph name="D" xMin="61" yMin="0" xMax="631" yMax="725">
      <contour>
        <pt x="631" y="363" on="1"/>
        <pt x="631" y="278" on="0"/>
        <pt x="585" y="143" on="0"/>
        <pt x="495" y="50" on="0"/>
        <pt x="361" y="0" on="0"/>
        <pt x="274" y="0" on="1"/>
        <pt x="61" y="0" on="1"/>
        <pt x="61" y="725" on="1"/>
        <pt x="277" y="725" on="1"/>
        <pt x="366" y="725" on="0"/>
        <pt x="499" y="675" on="0"/>
        <pt x="587" y="581" on="0"/>
        <pt x="631" y="447" on="0"/>
      </contour>
      <contour>
        <pt x="452" y="362" on="1"/>
        <pt x="452" y="481" on="0"/>
        <pt x="357" y="585" on="0"/>
        <pt x="276" y="585" on="1"/>
        <pt x="237" y="585" on="1"/>
        <pt x="237" y="140" on="1"/>
        <pt x="275" y="140" on="1"/>
        <pt x="358" y="140" on="0"/>
        <pt x="452" y="242" on="0"/>
      </contour>
    </TTGlyph>
    <TTGlyph name="Dcaron" xMin="61" yMin="0" xMax="631" yMax="926">
      <component glyphName="caron.cap" x="99" y="204" flags="0x4"/>
      <component glyphName="D" x="0" y="0" flags="0x4"/>
    </TTGlyph>
    <TTGlyph name="Dcroat" xMin="12" yMin="0" xMax="655" yMax="725">
      <component glyphName="Eth" x="0" y="0" flags="0x4"/>
    </TTGlyph>
    <TTGlyph name="Dcroat.flat" xMin="21" yMin="0" xMax="655" yMax="725">
      <component glyphName="Eth.flat" x="0" y="0" flags="0x4"/>
    </TTGlyph>
    <TTGlyph name="E" xMin="61" yMin="0" xMax="486" yMax="725">
      <contour>
        <pt x="61" y="0" on="1"/>
        <pt x="61" y="725" on="1"/>
        <pt x="477" y="725" on="1"/>
        <pt x="477" y="582" on="1"/>
        <pt x="234" y="582" on="1"/>
        <pt x="234" y="445" on="1"/>
        <pt x="415" y="445" on="1"/>
        <pt x="438" y="301" on="1"/>
        <pt x="234" y="301" on="1"/>
        <pt x="234" y="143" on="1"/>
        <pt x="486" y="143" on="1"/>
        <pt x="486" y="0" on="1"/>
      </contour>
    </TTGlyph>
    <TTGlyph name="E.flat" xMin="61" yMin="0" xMax="486" yMax="725">
      <contour>
        <pt x="61" y="0" on="1"/>
        <pt x="61" y="725" on="1"/>
        <pt x="477" y="725" on="1"/>
        <pt x="477" y="582" on="1"/>
        <pt x="234" y="582" on="1"/>
        <pt x="234" y="445" on="1"/>
        <pt x="427" y="445" on="1"/>
        <pt x="427" y="301" on="1"/>
        <pt x="234" y="301" on="1"/>
        <pt x="234" y="143" on="1"/>
        <pt x="486" y="143" on="1"/>
        <pt x="486" y="0" on="1"/>
      </contour>
    </TTGlyph>
    <TTGlyph name="Eacute" xMin="61" yMin="0" xMax="486" yMax="930">
      <component glyphName="acute.cap" x="105" y="204" flags="0x4"/>
      <component glyphName="E" x="0" y="0" flags="0x4"/>
    </TTGlyph>
    <TTGlyph name="Eacute.flat" xMin="61" yMin="0" xMax="486" yMax="930">
      <component glyphName="E.flat" x="0" y="0" flags="0x204"/>
      <component glyphName="acute.cap" x="105" y="204" flags="0x4"/>
    </TTGlyph>
    <TTGlyph name="Ebreve" xMin="61" yMin="0" xMax="486" yMax="926">
      <component glyphName="breve.cap" x="52" y="204" flags="0x4"/>
      <component glyphName="E" x="0" y="0" flags="0x4"/>
    </TTGlyph>
    <TTGlyph name="Ebreve.flat" xMin="61" yMin="0" xMax="486" yMax="926">
      <component glyphName="breve.cap" x="52" y="204" flags="0x4"/>
      <component glyphName="E.flat" x="0" y="0" flags="0x4"/>
    </TTGlyph>
    <TTGlyph name="Ecaron" xMin="61" yMin="0" xMax="486" yMax="926">
      <component glyphName="caron.cap" x="53" y="204" flags="0x4"/>
      <component glyphName="E" x="0" y="0" flags="0x4"/>
    </TTGlyph>
    <TTGlyph name="Ecaron.flat" xMin="61" yMin="0" xMax="486" yMax="926">
      <component glyphName="E.flat" x="0" y="0" flags="0x204"/>
      <component glyphName="caron.cap" x="53" y="204" flags="0x4"/>
    </TTGlyph>
    <TTGlyph name="Ecircumflex" xMin="61" yMin="0" xMax="486" yMax="927">
      <component glyphName="E" x="0" y="0" flags="0x204"/>
      <component glyphName="circumflex.cap" x="51" y="204" flags="0x4"/>
    </TTGlyph>
    <TTGlyph name="Ecircumflex.flat" xMin="61" yMin="0" xMax="486" yMax="927">
      <component glyphName="E.flat" x="0" y="0" flags="0x204"/>
      <component glyphName="circumflex.cap" x="51" y="204" flags="0x4"/>
    </TTGlyph>
    <TTGlyph name="Edieresis" xMin="61" yMin="0" xMax="486" yMax="909">
      <component glyphName="dieresis.cap" x="52" y="204" flags="0x4"/>
      <component glyphName="E" x="0" y="0" flags="0x4"/>
    </TTGlyph>
    <TTGlyph name="Edieresis.flat" xMin="61" yMin="0" xMax="486" yMax="909">
      <component glyphName="E.flat" x="0" y="0" flags="0x204"/>
      <component glyphName="dieresis.cap" x="52" y="204" flags="0x4"/>
    </TTGlyph>
    <TTGlyph name="Edotaccent" xMin="61" yMin="0" xMax="486" yMax="909">
      <component glyphName="dotaccent.cap" x="52" y="204" flags="0x4"/>
      <component glyphName="E" x="0" y="0" flags="0x4"/>
    </TTGlyph>
    <TTGlyph name="Edotaccent.flat" xMin="61" yMin="0" xMax="486" yMax="909">
      <component glyphName="dotaccent.cap" x="52" y="204" flags="0x4"/>
      <component glyphName="E.flat" x="0" y="0" flags="0x4"/>
    </TTGlyph>
    <TTGlyph name="Egrave" xMin="61" yMin="0" xMax="486" yMax="930">
      <component glyphName="grave.cap" x="-1" y="204" flags="0x4"/>
      <component glyphName="E" x="0" y="0" flags="0x4"/>
    </TTGlyph>
    <TTGlyph name="Egrave.flat" xMin="61" yMin="0" xMax="486" yMax="930">
      <component glyphName="grave.cap" x="-1" y="204" flags="0x4"/>
      <component glyphName="E.flat" x="0" y="0" flags="0x4"/>
    </TTGlyph>
    <TTGlyph name="Emacron" xMin="61" yMin="0" xMax="486" yMax="890">
      <component glyphName="macron.cap" x="52" y="204" flags="0x4"/>
      <component glyphName="E" x="0" y="0" flags="0x4"/>
    </TTGlyph>
    <TTGlyph name="Emacron.flat" xMin="61" yMin="0" xMax="486" yMax="890">
      <component glyphName="E.flat" x="0" y="0" flags="0x204"/>
      <component glyphName="macron.cap" x="52" y="204" flags="0x4"/>
    </TTGlyph>
    <TTGlyph name="Eogonek" xMin="61" yMin="-208" xMax="490" yMax="725">
      <contour>
        <pt x="490" y="-188" on="1"/>
        <pt x="464" y="-197" on="0"/>
        <pt x="417" y="-208" on="0"/>
        <pt x="390" y="-208" on="1"/>
        <pt x="340" y="-208" on="0"/>
        <pt x="286" y="-165" on="0"/>
        <pt x="286" y="-122" on="1"/>
        <pt x="286" y="-94" on="0"/>
        <pt x="316" y="-35" on="0"/>
        <pt x="345" y="0" on="1"/>
        <pt x="61" y="0" on="1"/>
        <pt x="61" y="725" on="1"/>
        <pt x="477" y="725" on="1"/>
        <pt x="477" y="582" on="1"/>
        <pt x="234" y="582" on="1"/>
        <pt x="234" y="445" on="1"/>
        <pt x="415" y="445" on="1"/>
        <pt x="438" y="301" on="1"/>
        <pt x="234" y="301" on="1"/>
        <pt x="234" y="143" on="1"/>
        <pt x="486" y="143" on="1"/>
        <pt x="486" y="0" on="1"/>
        <pt x="440" y="0" on="1"/>
        <pt x="434" y="-10" on="1"/>
        <pt x="418" y="-36" on="0"/>
        <pt x="401" y="-71" on="0"/>
        <pt x="401" y="-87" on="1"/>
        <pt x="401" y="-102" on="0"/>
        <pt x="420" y="-120" on="0"/>
        <pt x="442" y="-120" on="1"/>
        <pt x="455" y="-120" on="0"/>
        <pt x="476" y="-116" on="0"/>
        <pt x="490" y="-113" on="1"/>
        <pt x="490" y="-188" on="1"/>
      </contour>
    </TTGlyph>
    <TTGlyph name="Eogonek.flat" xMin="61" yMin="-208" xMax="490" yMax="725">
      <contour>
        <pt x="490" y="-188" on="1"/>
        <pt x="464" y="-197" on="0"/>
        <pt x="417" y="-208" on="0"/>
        <pt x="390" y="-208" on="1"/>
        <pt x="340" y="-208" on="0"/>
        <pt x="286" y="-165" on="0"/>
        <pt x="286" y="-122" on="1"/>
        <pt x="286" y="-94" on="0"/>
        <pt x="316" y="-35" on="0"/>
        <pt x="345" y="0" on="1"/>
        <pt x="61" y="0" on="1"/>
        <pt x="61" y="725" on="1"/>
        <pt x="477" y="725" on="1"/>
        <pt x="477" y="582" on="1"/>
        <pt x="234" y="582" on="1"/>
        <pt x="234" y="445" on="1"/>
        <pt x="427" y="445" on="1"/>
        <pt x="427" y="301" on="1"/>
        <pt x="234" y="301" on="1"/>
        <pt x="234" y="143" on="1"/>
        <pt x="486" y="143" on="1"/>
        <pt x="486" y="0" on="1"/>
        <pt x="440" y="0" on="1"/>
        <pt x="434" y="-10" on="1"/>
        <pt x="418" y="-36" on="0"/>
        <pt x="401" y="-71" on="0"/>
        <pt x="401" y="-87" on="1"/>
        <pt x="401" y="-102" on="0"/>
        <pt x="420" y="-120" on="0"/>
        <pt x="442" y="-120" on="1"/>
        <pt x="455" y="-120" on="0"/>
        <pt x="476" y="-116" on="0"/>
        <pt x="490" y="-113" on="1"/>
        <pt x="490" y="-188" on="1"/>
      </contour>
    </TTGlyph>
    <TTGlyph name="Eth" xMin="12" yMin="0" xMax="655" yMax="725">
      <contour>
        <pt x="655" y="363" on="1"/>
        <pt x="655" y="278" on="0"/>
        <pt x="609" y="143" on="0"/>
        <pt x="519" y="50" on="0"/>
        <pt x="385" y="0" on="0"/>
        <pt x="298" y="0" on="1"/>
        <pt x="86" y="0" on="1"/>
        <pt x="86" y="299" on="1"/>
        <pt x="34" y="299" on="1"/>
        <pt x="12" y="444" on="1"/>
        <pt x="86" y="444" on="1"/>
        <pt x="86" y="725" on="1"/>
        <pt x="301" y="725" on="1"/>
        <pt x="390" y="725" on="0"/>
        <pt x="523" y="675" on="0"/>
        <pt x="611" y="581" on="0"/>
        <pt x="655" y="447" on="0"/>
      </contour>
      <contour>
        <pt x="476" y="362" on="1"/>
        <pt x="476" y="481" on="0"/>
        <pt x="381" y="585" on="0"/>
        <pt x="300" y="585" on="1"/>
        <pt x="259" y="585" on="1"/>
        <pt x="259" y="441" on="1"/>
        <pt x="369" y="441" on="1"/>
        <pt x="369" y="302" on="1"/>
        <pt x="259" y="302" on="1"/>
        <pt x="259" y="140" on="1"/>
        <pt x="300" y="140" on="1"/>
        <pt x="341" y="140" on="0"/>
        <pt x="407" y="164" on="0"/>
        <pt x="452" y="218" on="0"/>
        <pt x="476" y="302" on="0"/>
      </contour>
    </TTGlyph>
    <TTGlyph name="Eth.flat" xMin="21" yMin="0" xMax="655" yMax="725">
      <contour>
        <pt x="655" y="363" on="1"/>
        <pt x="655" y="278" on="0"/>
        <pt x="609" y="143" on="0"/>
        <pt x="519" y="50" on="0"/>
        <pt x="385" y="0" on="0"/>
        <pt x="298" y="0" on="1"/>
        <pt x="86" y="0" on="1"/>
        <pt x="86" y="299" on="1"/>
        <pt x="21" y="299" on="1"/>
        <pt x="21" y="444" on="1"/>
        <pt x="86" y="444" on="1"/>
        <pt x="86" y="725" on="1"/>
        <pt x="301" y="725" on="1"/>
        <pt x="390" y="725" on="0"/>
        <pt x="523" y="675" on="0"/>
        <pt x="611" y="581" on="0"/>
        <pt x="655" y="447" on="0"/>
      </contour>
      <contour>
        <pt x="476" y="362" on="1"/>
        <pt x="476" y="481" on="0"/>
        <pt x="381" y="585" on="0"/>
        <pt x="300" y="585" on="1"/>
        <pt x="259" y="585" on="1"/>
        <pt x="259" y="441" on="1"/>
        <pt x="369" y="441" on="1"/>
        <pt x="369" y="302" on="1"/>
        <pt x="259" y="302" on="1"/>
        <pt x="259" y="140" on="1"/>
        <pt x="300" y="140" on="1"/>
        <pt x="341" y="140" on="0"/>
        <pt x="407" y="164" on="0"/>
        <pt x="452" y="218" on="0"/>
        <pt x="476" y="302" on="0"/>
      </contour>
    </TTGlyph>
    <TTGlyph name="Euro" xMin="22" yMin="-13" xMax="583" yMax="730">
      <contour>
        <pt x="28" y="484" on="1"/>
        <pt x="112" y="484" on="1"/>
        <pt x="124" y="540" on="0"/>
        <pt x="173" y="631" on="0"/>
        <pt x="245" y="695" on="0"/>
        <pt x="341" y="730" on="0"/>
        <pt x="401" y="730" on="1"/>
        <pt x="454" y="730" on="0"/>
        <pt x="536" y="710" on="0"/>
        <pt x="571" y="691" on="1"/>
        <pt x="548" y="552" on="1"/>
        <pt x="515" y="572" on="0"/>
        <pt x="456" y="593" on="0"/>
        <pt x="418" y="593" on="1"/>
        <pt x="362" y="593" on="0"/>
        <pt x="294" y="536" on="0"/>
        <pt x="278" y="484" on="1"/>
        <pt x="471" y="484" on="1"/>
        <pt x="484" y="404" on="1"/>
        <pt x="264" y="404" on="1"/>
        <pt x="263" y="393" on="0"/>
        <pt x="263" y="370" on="0"/>
        <pt x="263" y="359" on="1"/>
        <pt x="263" y="350" on="0"/>
        <pt x="263" y="331" on="0"/>
        <pt x="264" y="322" on="1"/>
        <pt x="478" y="322" on="1"/>
        <pt x="478" y="242" on="1"/>
        <pt x="275" y="242" on="1"/>
        <pt x="308" y="125" on="0"/>
        <pt x="426" y="125" on="1"/>
        <pt x="464" y="125" on="0"/>
        <pt x="526" y="144" on="0"/>
        <pt x="561" y="163" on="1"/>
        <pt x="583" y="32" on="1"/>
        <pt x="544" y="11" on="0"/>
        <pt x="456" y="-13" on="0"/>
        <pt x="402" y="-13" on="1"/>
        <pt x="274" y="-13" on="0"/>
        <pt x="130" y="123" on="0"/>
        <pt x="109" y="242" on="1"/>
        <pt x="34" y="242" on="1"/>
        <pt x="22" y="322" on="1"/>
        <pt x="100" y="322" on="1"/>
        <pt x="99" y="331" on="0"/>
        <pt x="99" y="349" on="0"/>
        <pt x="99" y="358" on="1"/>
        <pt x="99" y="370" on="0"/>
        <pt x="100" y="393" on="0"/>
        <pt x="101" y="404" on="1"/>
        <pt x="28" y="404" on="1"/>
      </contour>
    </TTGlyph>
    <TTGlyph name="Euro.flat" xMin="28" yMin="-13" xMax="583" yMax="730">
      <contour>
        <pt x="28" y="484" on="1"/>
        <pt x="112" y="484" on="1"/>
        <pt x="124" y="540" on="0"/>
        <pt x="173" y="631" on="0"/>
        <pt x="245" y="695" on="0"/>
        <pt x="341" y="730" on="0"/>
        <pt x="401" y="730" on="1"/>
        <pt x="454" y="730" on="0"/>
        <pt x="536" y="710" on="0"/>
        <pt x="571" y="691" on="1"/>
        <pt x="548" y="552" on="1"/>
        <pt x="515" y="572" on="0"/>
        <pt x="456" y="593" on="0"/>
        <pt x="418" y="593" on="1"/>
        <pt x="362" y="593" on="0"/>
        <pt x="294" y="536" on="0"/>
        <pt x="278" y="484" on="1"/>
        <pt x="478" y="484" on="1"/>
        <pt x="478" y="404" on="1"/>
        <pt x="264" y="404" on="1"/>
        <pt x="263" y="393" on="0"/>
        <pt x="263" y="370" on="0"/>
        <pt x="263" y="359" on="1"/>
        <pt x="263" y="350" on="0"/>
        <pt x="263" y="331" on="0"/>
        <pt x="264" y="322" on="1"/>
        <pt x="478" y="322" on="1"/>
        <pt x="478" y="242" on="1"/>
        <pt x="275" y="242" on="1"/>
        <pt x="308" y="125" on="0"/>
        <pt x="426" y="125" on="1"/>
        <pt x="464" y="125" on="0"/>
        <pt x="526" y="144" on="0"/>
        <pt x="561" y="163" on="1"/>
        <pt x="583" y="32" on="1"/>
        <pt x="544" y="11" on="0"/>
        <pt x="456" y="-13" on="0"/>
        <pt x="402" y="-13" on="1"/>
        <pt x="274" y="-13" on="0"/>
        <pt x="130" y="123" on="0"/>
        <pt x="109" y="242" on="1"/>
        <pt x="28" y="242" on="1"/>
        <pt x="28" y="322" on="1"/>
        <pt x="100" y="322" on="1"/>
        <pt x="99" y="331" on="0"/>
        <pt x="99" y="349" on="0"/>
        <pt x="99" y="358" on="1"/>
        <pt x="99" y="370" on="0"/>
        <pt x="100" y="393" on="0"/>
        <pt x="101" y="404" on="1"/>
        <pt x="28" y="404" on="1"/>
      </contour>
    </TTGlyph>
    <TTGlyph name="Euro.tab" xMin="20" yMin="-11" xMax="507" yMax="731">
      <contour>
        <pt x="26" y="483" on="1"/>
        <pt x="96" y="483" on="1"/>
        <pt x="106" y="540" on="0"/>
        <pt x="146" y="632" on="0"/>
        <pt x="208" y="696" on="0"/>
        <pt x="293" y="731" on="0"/>
        <pt x="348" y="731" on="1"/>
        <pt x="395" y="731" on="0"/>
        <pt x="466" y="711" on="0"/>
        <pt x="497" y="694" on="1"/>
        <pt x="475" y="563" on="1"/>
        <pt x="445" y="584" on="0"/>
        <pt x="394" y="604" on="0"/>
        <pt x="356" y="604" on="1"/>
        <pt x="307" y="604" on="0"/>
        <pt x="252" y="539" on="0"/>
        <pt x="241" y="483" on="1"/>
        <pt x="414" y="483" on="1"/>
        <pt x="426" y="404" on="1"/>
        <pt x="231" y="404" on="1"/>
        <pt x="230" y="393" on="0"/>
        <pt x="230" y="371" on="0"/>
        <pt x="230" y="360" on="1"/>
        <pt x="230" y="351" on="0"/>
        <pt x="230" y="332" on="0"/>
        <pt x="231" y="324" on="1"/>
        <pt x="420" y="324" on="1"/>
        <pt x="420" y="244" on="1"/>
        <pt x="239" y="244" on="1"/>
        <pt x="251" y="182" on="0"/>
        <pt x="313" y="116" on="0"/>
        <pt x="370" y="116" on="1"/>
        <pt x="388" y="116" on="0"/>
        <pt x="417" y="120" on="0"/>
        <pt x="444" y="129" on="0"/>
        <pt x="471" y="144" on="0"/>
        <pt x="487" y="154" on="1"/>
        <pt x="507" y="32" on="1"/>
        <pt x="474" y="12" on="0"/>
        <pt x="396" y="-11" on="0"/>
        <pt x="346" y="-11" on="1"/>
        <pt x="288" y="-11" on="0"/>
        <pt x="201" y="23" on="0"/>
        <pt x="140" y="89" on="0"/>
        <pt x="102" y="184" on="0"/>
        <pt x="93" y="244" on="1"/>
        <pt x="31" y="244" on="1"/>
        <pt x="20" y="324" on="1"/>
        <pt x="87" y="324" on="1"/>
        <pt x="86" y="332" on="0"/>
        <pt x="86" y="350" on="0"/>
        <pt x="86" y="359" on="1"/>
        <pt x="86" y="370" on="0"/>
        <pt x="86" y="393" on="0"/>
        <pt x="87" y="404" on="1"/>
        <pt x="26" y="404" on="1"/>
      </contour>
    </TTGlyph>
    <TTGlyph name="Euro.tab_flat" xMin="26" yMin="-11" xMax="507" yMax="731">
      <contour>
        <pt x="26" y="483" on="1"/>
        <pt x="96" y="483" on="1"/>
        <pt x="106" y="540" on="0"/>
        <pt x="146" y="632" on="0"/>
        <pt x="208" y="696" on="0"/>
        <pt x="293" y="731" on="0"/>
        <pt x="348" y="731" on="1"/>
        <pt x="395" y="731" on="0"/>
        <pt x="466" y="711" on="0"/>
        <pt x="497" y="694" on="1"/>
        <pt x="475" y="563" on="1"/>
        <pt x="445" y="584" on="0"/>
        <pt x="394" y="604" on="0"/>
        <pt x="356" y="604" on="1"/>
        <pt x="307" y="604" on="0"/>
        <pt x="252" y="539" on="0"/>
        <pt x="241" y="483" on="1"/>
        <pt x="420" y="483" on="1"/>
        <pt x="420" y="404" on="1"/>
        <pt x="231" y="404" on="1"/>
        <pt x="230" y="393" on="0"/>
        <pt x="230" y="371" on="0"/>
        <pt x="230" y="360" on="1"/>
        <pt x="230" y="351" on="0"/>
        <pt x="230" y="332" on="0"/>
        <pt x="231" y="324" on="1"/>
        <pt x="420" y="324" on="1"/>
        <pt x="420" y="244" on="1"/>
        <pt x="239" y="244" on="1"/>
        <pt x="251" y="182" on="0"/>
        <pt x="313" y="116" on="0"/>
        <pt x="370" y="116" on="1"/>
        <pt x="388" y="116" on="0"/>
        <pt x="417" y="120" on="0"/>
        <pt x="444" y="129" on="0"/>
        <pt x="471" y="144" on="0"/>
        <pt x="487" y="154" on="1"/>
        <pt x="507" y="32" on="1"/>
        <pt x="474" y="12" on="0"/>
        <pt x="396" y="-11" on="0"/>
        <pt x="346" y="-11" on="1"/>
        <pt x="288" y="-11" on="0"/>
        <pt x="201" y="23" on="0"/>
        <pt x="140" y="89" on="0"/>
        <pt x="102" y="184" on="0"/>
        <pt x="93" y="244" on="1"/>
        <pt x="26" y="244" on="1"/>
        <pt x="26" y="324" on="1"/>
        <pt x="87" y="324" on="1"/>
        <pt x="86" y="332" on="0"/>
        <pt x="86" y="350" on="0"/>
        <pt x="86" y="359" on="1"/>
        <pt x="86" y="370" on="0"/>
        <pt x="86" y="393" on="0"/>
        <pt x="87" y="404" on="1"/>
        <pt x="26" y="404" on="1"/>
      </contour>
    </TTGlyph>
    <TTGlyph name="F" xMin="61" yMin="0" xMax="462" yMax="725">
      <contour>
        <pt x="236" y="576" on="1"/>
        <pt x="236" y="426" on="1"/>
        <pt x="399" y="426" on="1"/>
        <pt x="423" y="277" on="1"/>
        <pt x="236" y="277" on="1"/>
        <pt x="236" y="0" on="1"/>
        <pt x="61" y="0" on="1"/>
        <pt x="61" y="725" on="1"/>
        <pt x="462" y="725" on="1"/>
        <pt x="462" y="576" on="1"/>
      </contour>
    </TTGlyph>
    <TTGlyph name="F.flat" xMin="61" yMin="0" xMax="462" yMax="725">
      <contour>
        <pt x="236" y="576" on="1"/>
        <pt x="236" y="426" on="1"/>
        <pt x="411" y="426" on="1"/>
        <pt x="411" y="277" on="1"/>
        <pt x="236" y="277" on="1"/>
        <pt x="236" y="0" on="1"/>
        <pt x="61" y="0" on="1"/>
        <pt x="61" y="725" on="1"/>
        <pt x="462" y="725" on="1"/>
        <pt x="462" y="576" on="1"/>
      </contour>
    </TTGlyph>
    <TTGlyph name="G" xMin="39" yMin="-14" xMax="592" yMax="737">
      <contour>
        <pt x="592" y="54" on="1"/>
        <pt x="541" y="23" on="0"/>
        <pt x="427" y="-14" on="0"/>
        <pt x="358" y="-14" on="1"/>
        <pt x="280" y="-14" on="0"/>
        <pt x="160" y="38" on="0"/>
        <pt x="80" y="135" on="0"/>
        <pt x="39" y="273" on="0"/>
        <pt x="39" y="358" on="1"/>
        <pt x="39" y="443" on="0"/>
        <pt x="82" y="582" on="0"/>
        <pt x="166" y="682" on="0"/>
        <pt x="290" y="737" on="0"/>
        <pt x="370" y="737" on="1"/>
        <pt x="429" y="737" on="0"/>
        <pt x="526" y="712" on="0"/>
        <pt x="566" y="690" on="1"/>
        <pt x="542" y="534" on="1"/>
        <pt x="503" y="560" on="0"/>
        <pt x="425" y="587" on="0"/>
        <pt x="380" y="587" on="1"/>
        <pt x="297" y="587" on="0"/>
        <pt x="217" y="470" on="0"/>
        <pt x="217" y="362" on="1"/>
        <pt x="217" y="254" on="0"/>
        <pt x="291" y="131" on="0"/>
        <pt x="369" y="131" on="1"/>
        <pt x="390" y="131" on="0"/>
        <pt x="422" y="139" on="0"/>
        <pt x="437" y="147" on="1"/>
        <pt x="437" y="285" on="1"/>
        <pt x="340" y="285" on="1"/>
        <pt x="320" y="415" on="1"/>
        <pt x="592" y="415" on="1"/>
      </contour>
    </TTGlyph>
    <TTGlyph name="G.flat" xMin="39" yMin="-14" xMax="592" yMax="737">
      <contour>
        <pt x="592" y="54" on="1"/>
        <pt x="541" y="23" on="0"/>
        <pt x="427" y="-14" on="0"/>
        <pt x="358" y="-14" on="1"/>
        <pt x="280" y="-14" on="0"/>
        <pt x="160" y="38" on="0"/>
        <pt x="80" y="135" on="0"/>
        <pt x="39" y="273" on="0"/>
        <pt x="39" y="358" on="1"/>
        <pt x="39" y="443" on="0"/>
        <pt x="82" y="582" on="0"/>
        <pt x="166" y="682" on="0"/>
        <pt x="290" y="737" on="0"/>
        <pt x="370" y="737" on="1"/>
        <pt x="429" y="737" on="0"/>
        <pt x="526" y="712" on="0"/>
        <pt x="566" y="690" on="1"/>
        <pt x="542" y="534" on="1"/>
        <pt x="503" y="560" on="0"/>
        <pt x="425" y="587" on="0"/>
        <pt x="380" y="587" on="1"/>
        <pt x="297" y="587" on="0"/>
        <pt x="217" y="470" on="0"/>
        <pt x="217" y="362" on="1"/>
        <pt x="217" y="254" on="0"/>
        <pt x="291" y="131" on="0"/>
        <pt x="369" y="131" on="1"/>
        <pt x="390" y="131" on="0"/>
        <pt x="422" y="139" on="0"/>
        <pt x="437" y="147" on="1"/>
        <pt x="437" y="285" on="1"/>
        <pt x="331" y="285" on="1"/>
        <pt x="331" y="415" on="1"/>
        <pt x="592" y="415" on="1"/>
      </contour>
    </TTGlyph>
    <TTGlyph name="Gbreve" xMin="39" yMin="-14" xMax="592" yMax="934">
      <component glyphName="breve.cap" x="130" y="212" flags="0x4"/>
      <component glyphName="G" x="0" y="0" flags="0x4"/>
    </TTGlyph>
    <TTGlyph name="Gbreve.flat" xMin="39" yMin="-14" xMax="592" yMax="934">
      <component glyphName="breve.cap" x="130" y="212" flags="0x4"/>
      <component glyphName="G.flat" x="0" y="0" flags="0x4"/>
    </TTGlyph>
    <TTGlyph name="Gcommaaccent" xMin="39" yMin="-264" xMax="592" yMax="737">
      <component glyphName="G" x="0" y="0" flags="0x204"/>
      <component glyphName="commaaccent.cap" x="128" y="-8" flags="0x4"/>
    </TTGlyph>
    <TTGlyph name="Gcommaaccent.flat" xMin="39" yMin="-264" xMax="592" yMax="737">
      <component glyphName="G.flat" x="0" y="0" flags="0x204"/>
      <component glyphName="commaaccent.cap" x="128" y="-8" flags="0x4"/>
    </TTGlyph>
    <TTGlyph name="Gdotaccent" xMin="39" yMin="-14" xMax="592" yMax="917">
      <component glyphName="dotaccent.cap" x="130" y="212" flags="0x4"/>
      <component glyphName="G" x="0" y="0" flags="0x4"/>
    </TTGlyph>
    <TTGlyph name="Gdotaccent.flat" xMin="39" yMin="-14" xMax="592" yMax="917">
      <component glyphName="dotaccent.cap" x="130" y="212" flags="0x4"/>
      <component glyphName="G.flat" x="0" y="0" flags="0x4"/>
    </TTGlyph>
    <TTGlyph name="H" xMin="61" yMin="0" xMax="614" yMax="725">
      <contour>
        <pt x="438" y="0" on="1"/>
        <pt x="438" y="294" on="1"/>
        <pt x="237" y="294" on="1"/>
        <pt x="237" y="0" on="1"/>
        <pt x="61" y="0" on="1"/>
        <pt x="61" y="725" on="1"/>
        <pt x="237" y="725" on="1"/>
        <pt x="237" y="451" on="1"/>
        <pt x="438" y="451" on="1"/>
        <pt x="438" y="725" on="1"/>
        <pt x="614" y="725" on="1"/>
        <pt x="614" y="0" on="1"/>
      </contour>
    </TTGlyph>
    <TTGlyph name="Hbar" xMin="9" yMin="0" xMax="712" yMax="725">
      <contour>
        <pt x="465" y="0" on="1"/>
        <pt x="465" y="290" on="1"/>
        <pt x="265" y="290" on="1"/>
        <pt x="265" y="0" on="1"/>
        <pt x="88" y="0" on="1"/>
        <pt x="88" y="531" on="1"/>
        <pt x="26" y="531" on="1"/>
        <pt x="9" y="647" on="1"/>
        <pt x="88" y="647" on="1"/>
        <pt x="88" y="725" on="1"/>
        <pt x="264" y="725" on="1"/>
        <pt x="264" y="647" on="1"/>
        <pt x="466" y="647" on="1"/>
        <pt x="466" y="725" on="1"/>
        <pt x="642" y="725" on="1"/>
        <pt x="642" y="647" on="1"/>
        <pt x="712" y="647" on="1"/>
        <pt x="712" y="531" on="1"/>
        <pt x="642" y="531" on="1"/>
        <pt x="642" y="0" on="1"/>
      </contour>
      <contour>
        <pt x="466" y="440" on="1"/>
        <pt x="466" y="541" on="1"/>
        <pt x="264" y="541" on="1"/>
        <pt x="264" y="440" on="1"/>
      </contour>
    </TTGlyph>
    <TTGlyph name="Hbar.flat" xMin="17" yMin="0" xMax="712" yMax="725">
      <contour>
        <pt x="465" y="0" on="1"/>
        <pt x="465" y="290" on="1"/>
        <pt x="265" y="290" on="1"/>
        <pt x="265" y="0" on="1"/>
        <pt x="88" y="0" on="1"/>
        <pt x="88" y="531" on="1"/>
        <pt x="17" y="531" on="1"/>
        <pt x="17" y="647" on="1"/>
        <pt x="88" y="647" on="1"/>
        <pt x="88" y="725" on="1"/>
        <pt x="264" y="725" on="1"/>
        <pt x="264" y="647" on="1"/>
        <pt x="466" y="647" on="1"/>
        <pt x="466" y="725" on="1"/>
        <pt x="642" y="725" on="1"/>
        <pt x="642" y="647" on="1"/>
        <pt x="712" y="647" on="1"/>
        <pt x="712" y="531" on="1"/>
        <pt x="642" y="531" on="1"/>
        <pt x="642" y="0" on="1"/>
      </contour>
      <contour>
        <pt x="466" y="440" on="1"/>
        <pt x="466" y="541" on="1"/>
        <pt x="264" y="541" on="1"/>
        <pt x="264" y="440" on="1"/>
      </contour>
    </TTGlyph>
    <TTGlyph name="I" xMin="64" yMin="0" xMax="241" yMax="725">
      <contour>
        <pt x="64" y="0" on="1"/>
        <pt x="64" y="725" on="1"/>
        <pt x="241" y="725" on="1"/>
        <pt x="241" y="0" on="1"/>
      </contour>
    </TTGlyph>
    <TTGlyph name="Iacute" xMin="64" yMin="0" xMax="338" yMax="930">
      <component glyphName="I" x="0" y="0" flags="0x204"/>
      <component glyphName="acute.cap" x="-16" y="204" flags="0x4"/>
    </TTGlyph>
    <TTGlyph name="Ibreve" xMin="-4" yMin="0" xMax="308" yMax="926">
      <component glyphName="I" x="0" y="0" flags="0x204"/>
      <component glyphName="breve.cap" x="-69" y="204" flags="0x4"/>
    </TTGlyph>
    <TTGlyph name="Icircumflex" xMin="-17" yMin="0" xMax="320" yMax="927">
      <component glyphName="I" x="0" y="0" flags="0x204"/>
      <component glyphName="circumflex.cap" x="-70" y="204" flags="0x4"/>
    </TTGlyph>
    <TTGlyph name="Idieresis" xMin="-9" yMin="0" xMax="313" yMax="909">
      <component glyphName="I" x="0" y="0" flags="0x204"/>
      <component glyphName="dieresis.cap" x="-69" y="204" flags="0x4"/>
    </TTGlyph>
    <TTGlyph name="Idotaccent" xMin="64" yMin="0" xMax="241" yMax="909">
      <component glyphName="I" x="0" y="0" flags="0x204"/>
      <component glyphName="dotaccent.cap" x="-69" y="204" flags="0x4"/>
    </TTGlyph>
    <TTGlyph name="Igrave" xMin="-34" yMin="0" xMax="241" yMax="930">
      <component glyphName="I" x="0" y="0" flags="0x204"/>
      <component glyphName="grave.cap" x="-122" y="204" flags="0x4"/>
    </TTGlyph>
    <TTGlyph name="Imacron" xMin="2" yMin="0" xMax="303" yMax="890">
      <component glyphName="I" x="0" y="0" flags="0x204"/>
      <component glyphName="macron.cap" x="-69" y="204" flags="0x4"/>
    </TTGlyph>
    <TTGlyph name="Iogonek" xMin="48" yMin="-207" xMax="252" yMax="725">
      <contour>
        <pt x="252" y="-187" on="1"/>
        <pt x="226" y="-196" on="0"/>
        <pt x="179" y="-207" on="0"/>
        <pt x="152" y="-207" on="1"/>
        <pt x="102" y="-207" on="0"/>
        <pt x="48" y="-164" on="0"/>
        <pt x="48" y="-121" on="1"/>
        <pt x="48" y="-93" on="0"/>
        <pt x="77" y="-34" on="0"/>
        <pt x="106" y="0" on="1"/>
        <pt x="64" y="0" on="1"/>
        <pt x="64" y="725" on="1"/>
        <pt x="241" y="725" on="1"/>
        <pt x="241" y="0" on="1"/>
        <pt x="202" y="0" on="1"/>
        <pt x="196" y="-9" on="1"/>
        <pt x="180" y="-35" on="0"/>
        <pt x="163" y="-70" on="0"/>
        <pt x="163" y="-86" on="1"/>
        <pt x="163" y="-101" on="0"/>
        <pt x="182" y="-119" on="0"/>
        <pt x="204" y="-119" on="1"/>
        <pt x="217" y="-119" on="0"/>
        <pt x="238" y="-115" on="0"/>
        <pt x="252" y="-112" on="1"/>
        <pt x="252" y="-187" on="1"/>
      </contour>
    </TTGlyph>
    <TTGlyph name="J" xMin="21" yMin="-7" xMax="357" yMax="725">
      <contour>
        <pt x="357" y="214" on="1"/>
        <pt x="357" y="155" on="0"/>
        <pt x="326" y="71" on="0"/>
        <pt x="268" y="18" on="0"/>
        <pt x="186" y="-7" on="0"/>
        <pt x="135" y="-7" on="1"/>
        <pt x="110" y="-7" on="0"/>
        <pt x="59" y="-3" on="0"/>
        <pt x="45" y="1" on="1"/>
        <pt x="21" y="151" on="1"/>
        <pt x="37" y="146" on="0"/>
        <pt x="68" y="142" on="0"/>
        <pt x="92" y="142" on="1"/>
        <pt x="134" y="142" on="0"/>
        <pt x="180" y="184" on="0"/>
        <pt x="180" y="239" on="1"/>
        <pt x="180" y="725" on="1"/>
        <pt x="357" y="725" on="1"/>
      </contour>
    </TTGlyph>
    <TTGlyph name="K" xMin="61" yMin="-9" xMax="619" yMax="725">
      <contour>
        <pt x="433" y="-9" on="1"/>
        <pt x="237" y="336" on="1"/>
        <pt x="237" y="0" on="1"/>
        <pt x="61" y="0" on="1"/>
        <pt x="61" y="725" on="1"/>
        <pt x="237" y="725" on="1"/>
        <pt x="237" y="414" on="1"/>
        <pt x="417" y="725" on="1"/>
        <pt x="609" y="725" on="1"/>
        <pt x="399" y="387" on="1"/>
        <pt x="619" y="21" on="1"/>
      </contour>
    </TTGlyph>
    <TTGlyph name="K.flat" xMin="61" yMin="0" xMax="627" yMax="725">
      <contour>
        <pt x="425" y="0" on="1"/>
        <pt x="237" y="336" on="1"/>
        <pt x="237" y="0" on="1"/>
        <pt x="61" y="0" on="1"/>
        <pt x="61" y="725" on="1"/>
        <pt x="237" y="725" on="1"/>
        <pt x="237" y="414" on="1"/>
        <pt x="417" y="725" on="1"/>
        <pt x="609" y="725" on="1"/>
        <pt x="399" y="387" on="1"/>
        <pt x="627" y="0" on="1"/>
      </contour>
    </TTGlyph>
    <TTGlyph name="Kcommaaccent" xMin="61" yMin="-250" xMax="619" yMax="725">
      <component glyphName="K" x="0" y="0" flags="0x204"/>
      <component glyphName="commaaccent.cap" x="100" y="6" flags="0x4"/>
    </TTGlyph>
    <TTGlyph name="Kcommaaccent.flat" xMin="61" yMin="-250" xMax="627" yMax="725">
      <component glyphName="K.flat" x="0" y="0" flags="0x204"/>
      <component glyphName="commaaccent.cap" x="100" y="6" flags="0x4"/>
    </TTGlyph>
    <TTGlyph name="L" xMin="61" yMin="0" xMax="458" yMax="725">
      <contour>
        <pt x="61" y="0" on="1"/>
        <pt x="61" y="725" on="1"/>
        <pt x="237" y="725" on="1"/>
        <pt x="237" y="154" on="1"/>
        <pt x="433" y="154" on="1"/>
        <pt x="458" y="0" on="1"/>
      </contour>
    </TTGlyph>
    <TTGlyph name="L.flat" xMin="61" yMin="0" xMax="449" yMax="725">
      <contour>
        <pt x="61" y="0" on="1"/>
        <pt x="61" y="725" on="1"/>
        <pt x="237" y="725" on="1"/>
        <pt x="237" y="154" on="1"/>
        <pt x="449" y="154" on="1"/>
        <pt x="449" y="0" on="1"/>
      </contour>
    </TTGlyph>
    <TTGlyph name="Lacute" xMin="61" yMin="0" xMax="458" yMax="932">
      <component glyphName="acute.cap" x="2" y="206" flags="0x4"/>
      <component glyphName="L" x="0" y="0" flags="0x4"/>
    </TTGlyph>
    <TTGlyph name="Lacute.flat" xMin="61" yMin="0" xMax="449" yMax="932">
      <component glyphName="acute.cap" x="2" y="206" flags="0x4"/>
      <component glyphName="L.flat" x="0" y="0" flags="0x4"/>
    </TTGlyph>
    <TTGlyph name="Lcaron" xMin="61" yMin="0" xMax="458" yMax="735">
      <component glyphName="L" x="0" y="0" flags="0x204"/>
      <component glyphName="caron.alt.cap" x="131" y="-9" flags="0x4"/>
    </TTGlyph>
    <TTGlyph name="Lcaron.flat" xMin="61" yMin="0" xMax="449" yMax="735">
      <component glyphName="L.flat" x="0" y="0" flags="0x204"/>
      <component glyphName="caron.alt.cap" x="131" y="-9" flags="0x4"/>
    </TTGlyph>
    <TTGlyph name="Lcommaaccent" xMin="61" yMin="-260" xMax="458" yMax="725">
      <component glyphName="L" x="0" y="0" flags="0x204"/>
      <component glyphName="commaaccent.cap" x="34" y="-4" flags="0x4"/>
    </TTGlyph>
    <TTGlyph name="Lcommaaccent.flat" xMin="61" yMin="-260" xMax="449" yMax="725">
      <component glyphName="L.flat" x="0" y="0" flags="0x204"/>
      <component glyphName="commaaccent.cap" x="34" y="-4" flags="0x4"/>
    </TTGlyph>
    <TTGlyph name="Ldot" xMin="61" yMin="0" xMax="458" yMax="725">
      <contour>
        <pt x="319" y="320" on="1"/>
        <pt x="319" y="457" on="1"/>
        <pt x="446" y="457" on="1"/>
        <pt x="446" y="320" on="1"/>
      </contour>
      <contour>
        <pt x="61" y="0" on="1"/>
        <pt x="61" y="725" on="1"/>
        <pt x="237" y="725" on="1"/>
        <pt x="237" y="154" on="1"/>
        <pt x="433" y="154" on="1"/>
        <pt x="458" y="0" on="1"/>
      </contour>
    </TTGlyph>
    <TTGlyph name="Ldot.flat" xMin="61" yMin="0" xMax="449" yMax="725">
      <contour>
        <pt x="320" y="320" on="1"/>
        <pt x="320" y="457" on="1"/>
        <pt x="446" y="457" on="1"/>
        <pt x="446" y="320" on="1"/>
      </contour>
      <contour>
        <pt x="61" y="0" on="1"/>
        <pt x="61" y="725" on="1"/>
        <pt x="237" y="725" on="1"/>
        <pt x="237" y="154" on="1"/>
        <pt x="449" y="154" on="1"/>
        <pt x="449" y="0" on="1"/>
      </contour>
    </TTGlyph>
    <TTGlyph name="Lslash" xMin="12" yMin="0" xMax="486" yMax="725">
      <contour>
        <pt x="264" y="340" on="1"/>
        <pt x="264" y="154" on="1"/>
        <pt x="461" y="154" on="1"/>
        <pt x="486" y="0" on="1"/>
        <pt x="89" y="0" on="1"/>
        <pt x="89" y="258" on="1"/>
        <pt x="34" y="231" on="1"/>
        <pt x="12" y="364" on="1"/>
        <pt x="89" y="399" on="1"/>
        <pt x="89" y="725" on="1"/>
        <pt x="264" y="725" on="1"/>
        <pt x="264" y="481" on="1"/>
        <pt x="377" y="535" on="1"/>
        <pt x="377" y="392" on="1"/>
      </contour>
    </TTGlyph>
    <TTGlyph name="Lslash.flat" xMin="21" yMin="0" xMax="478" yMax="725">
      <contour>
        <pt x="264" y="340" on="1"/>
        <pt x="264" y="154" on="1"/>
        <pt x="475" y="154" on="1"/>
        <pt x="478" y="0" on="1"/>
        <pt x="89" y="0" on="1"/>
        <pt x="89" y="259" on="1"/>
        <pt x="21" y="226" on="1"/>
        <pt x="21" y="369" on="1"/>
        <pt x="89" y="400" on="1"/>
        <pt x="89" y="725" on="1"/>
        <pt x="264" y="725" on="1"/>
        <pt x="264" y="481" on="1"/>
        <pt x="377" y="535" on="1"/>
        <pt x="377" y="392" on="1"/>
      </contour>
    </TTGlyph>
    <TTGlyph name="M" xMin="44" yMin="-1" xMax="820" yMax="725">
      <contour>
        <pt x="647" y="0" on="1"/>
        <pt x="621" y="504" on="1"/>
        <pt x="507" y="-1" on="1"/>
        <pt x="338" y="-1" on="1"/>
        <pt x="223" y="504" on="1"/>
        <pt x="196" y="0" on="1"/>
        <pt x="44" y="0" on="1"/>
        <pt x="85" y="725" on="1"/>
        <pt x="319" y="725" on="1"/>
        <pt x="433" y="228" on="1"/>
        <pt x="549" y="725" on="1"/>
        <pt x="779" y="725" on="1"/>
        <pt x="820" y="0" on="1"/>
      </contour>
    </TTGlyph>
    <TTGlyph name="M.alt" xMin="61" yMin="-4" xMax="800" yMax="725">
      <contour>
        <pt x="633" y="0" on="1"/>
        <pt x="633" y="503" on="1"/>
        <pt x="500" y="-4" on="1"/>
        <pt x="344" y="-4" on="1"/>
        <pt x="211" y="503" on="1"/>
        <pt x="211" y="0" on="1"/>
        <pt x="61" y="0" on="1"/>
        <pt x="61" y="725" on="1"/>
        <pt x="301" y="725" on="1"/>
        <pt x="433" y="232" on="1"/>
        <pt x="563" y="725" on="1"/>
        <pt x="800" y="725" on="1"/>
        <pt x="800" y="0" on="1"/>
      </contour>
    </TTGlyph>
    <TTGlyph name="N" xMin="61" yMin="0" xMax="612" yMax="725">
      <contour>
        <pt x="458" y="0" on="1"/>
        <pt x="223" y="422" on="1"/>
        <pt x="224" y="0" on="1"/>
        <pt x="61" y="0" on="1"/>
        <pt x="61" y="725" on="1"/>
        <pt x="232" y="725" on="1"/>
        <pt x="451" y="329" on="1"/>
        <pt x="450" y="725" on="1"/>
        <pt x="612" y="725" on="1"/>
        <pt x="612" y="0" on="1"/>
      </contour>
    </TTGlyph>
    <TTGlyph name="Nacute" xMin="61" yMin="0" xMax="612" yMax="926">
      <component glyphName="acute.cap" x="171" y="200" flags="0x4"/>
      <component glyphName="N" x="0" y="0" flags="0x4"/>
    </TTGlyph>
    <TTGlyph name="Ncaron" xMin="61" yMin="0" xMax="612" yMax="922">
      <component glyphName="caron.cap" x="118" y="200" flags="0x4"/>
      <component glyphName="N" x="0" y="0" flags="0x4"/>
    </TTGlyph>
    <TTGlyph name="Ncommaaccent" xMin="61" yMin="-250" xMax="612" yMax="725">
      <component glyphName="commaaccent.cap" x="115" y="6" flags="0x4"/>
      <component glyphName="N" x="0" y="0" flags="0x4"/>
    </TTGlyph>
    <TTGlyph name="Ntilde" xMin="61" yMin="0" xMax="612" yMax="930">
      <component glyphName="tilde.cap" x="121" y="200" flags="0x4"/>
      <component glyphName="N" x="0" y="0" flags="0x4"/>
    </TTGlyph>
    <TTGlyph name="O" xMin="39" yMin="-14" xMax="658" yMax="738">
      <contour>
        <pt x="658" y="363" on="1"/>
        <pt x="658" y="277" on="0"/>
        <pt x="615" y="138" on="0"/>
        <pt x="535" y="40" on="0"/>
        <pt x="420" y="-14" on="0"/>
        <pt x="347" y="-14" on="1"/>
        <pt x="275" y="-14" on="0"/>
        <pt x="161" y="39" on="0"/>
        <pt x="81" y="137" on="0"/>
        <pt x="39" y="275" on="0"/>
        <pt x="39" y="361" on="1"/>
        <pt x="39" y="447" on="0"/>
        <pt x="82" y="587" on="0"/>
        <pt x="162" y="685" on="0"/>
        <pt x="277" y="738" on="0"/>
        <pt x="349" y="738" on="1"/>
        <pt x="422" y="738" on="0"/>
        <pt x="536" y="685" on="0"/>
        <pt x="616" y="588" on="0"/>
        <pt x="658" y="449" on="0"/>
      </contour>
      <contour>
        <pt x="479" y="362" on="1"/>
        <pt x="479" y="473" on="0"/>
        <pt x="412" y="597" on="0"/>
        <pt x="348" y="597" on="1"/>
        <pt x="284" y="597" on="0"/>
        <pt x="218" y="473" on="0"/>
        <pt x="218" y="362" on="1"/>
        <pt x="218" y="253" on="0"/>
        <pt x="285" y="127" on="0"/>
        <pt x="348" y="127" on="1"/>
        <pt x="412" y="127" on="0"/>
        <pt x="479" y="253" on="0"/>
      </contour>
    </TTGlyph>
    <TTGlyph name="OE" xMin="39" yMin="0" xMax="839" yMax="725">
      <contour>
        <pt x="393" y="0" on="1"/>
        <pt x="304" y="0" on="0"/>
        <pt x="171" y="50" on="0"/>
        <pt x="83" y="144" on="0"/>
        <pt x="39" y="277" on="0"/>
        <pt x="39" y="361" on="1"/>
        <pt x="39" y="446" on="0"/>
        <pt x="85" y="581" on="0"/>
        <pt x="175" y="675" on="0"/>
        <pt x="308" y="725" on="0"/>
        <pt x="395" y="725" on="1"/>
        <pt x="829" y="725" on="1"/>
        <pt x="829" y="582" on="1"/>
        <pt x="587" y="582" on="1"/>
        <pt x="587" y="445" on="1"/>
        <pt x="767" y="445" on="1"/>
        <pt x="791" y="301" on="1"/>
        <pt x="587" y="301" on="1"/>
        <pt x="587" y="143" on="1"/>
        <pt x="839" y="143" on="1"/>
        <pt x="839" y="0" on="1"/>
      </contour>
      <contour>
        <pt x="415" y="585" on="1"/>
        <pt x="395" y="585" on="1"/>
        <pt x="353" y="585" on="0"/>
        <pt x="288" y="561" on="0"/>
        <pt x="242" y="507" on="0"/>
        <pt x="218" y="422" on="0"/>
        <pt x="218" y="362" on="1"/>
        <pt x="218" y="303" on="0"/>
        <pt x="243" y="219" on="0"/>
        <pt x="289" y="165" on="0"/>
        <pt x="354" y="140" on="0"/>
        <pt x="395" y="140" on="1"/>
        <pt x="415" y="140" on="1"/>
      </contour>
    </TTGlyph>
    <TTGlyph name="OE.flat" xMin="39" yMin="0" xMax="839" yMax="725">
      <contour>
        <pt x="393" y="0" on="1"/>
        <pt x="304" y="0" on="0"/>
        <pt x="171" y="50" on="0"/>
        <pt x="83" y="144" on="0"/>
        <pt x="39" y="277" on="0"/>
        <pt x="39" y="361" on="1"/>
        <pt x="39" y="446" on="0"/>
        <pt x="85" y="581" on="0"/>
        <pt x="175" y="675" on="0"/>
        <pt x="308" y="725" on="0"/>
        <pt x="395" y="725" on="1"/>
        <pt x="829" y="725" on="1"/>
        <pt x="829" y="582" on="1"/>
        <pt x="587" y="582" on="1"/>
        <pt x="587" y="445" on="1"/>
        <pt x="779" y="445" on="1"/>
        <pt x="779" y="301" on="1"/>
        <pt x="587" y="301" on="1"/>
        <pt x="587" y="143" on="1"/>
        <pt x="839" y="143" on="1"/>
        <pt x="839" y="0" on="1"/>
      </contour>
      <contour>
        <pt x="415" y="585" on="1"/>
        <pt x="395" y="585" on="1"/>
        <pt x="353" y="585" on="0"/>
        <pt x="288" y="561" on="0"/>
        <pt x="242" y="507" on="0"/>
        <pt x="218" y="422" on="0"/>
        <pt x="218" y="362" on="1"/>
        <pt x="218" y="303" on="0"/>
        <pt x="243" y="219" on="0"/>
        <pt x="289" y="165" on="0"/>
        <pt x="354" y="140" on="0"/>
        <pt x="395" y="140" on="1"/>
        <pt x="415" y="140" on="1"/>
      </contour>
    </TTGlyph>
    <TTGlyph name="Oacute" xMin="39" yMin="-14" xMax="658" yMax="938">
      <component glyphName="acute.cap" x="180" y="212" flags="0x4"/>
      <component glyphName="O" x="0" y="0" flags="0x4"/>
    </TTGlyph>
    <TTGlyph name="Obreve" xMin="39" yMin="-14" xMax="658" yMax="934">
      <component glyphName="breve.cap" x="128" y="212" flags="0x4"/>
      <component glyphName="O" x="0" y="0" flags="0x4"/>
    </TTGlyph>
    <TTGlyph name="Ocircumflex" xMin="39" yMin="-14" xMax="658" yMax="935">
      <component glyphName="O" x="0" y="0" flags="0x204"/>
      <component glyphName="circumflex.cap" x="127" y="212" flags="0x4"/>
    </TTGlyph>
    <TTGlyph name="Odieresis" xMin="39" yMin="-14" xMax="658" yMax="917">
      <component glyphName="dieresis.cap" x="128" y="212" flags="0x4"/>
      <component glyphName="O" x="0" y="0" flags="0x4"/>
    </TTGlyph>
    <TTGlyph name="Ograve" xMin="39" yMin="-14" xMax="658" yMax="938">
      <component glyphName="grave.cap" x="75" y="212" flags="0x4"/>
      <component glyphName="O" x="0" y="0" flags="0x4"/>
    </TTGlyph>
    <TTGlyph name="Ohungarumlaut" xMin="39" yMin="-14" xMax="658" yMax="938">
      <component glyphName="O" x="0" y="0" flags="0x204"/>
      <component glyphName="hungarumlaut.cap" x="179" y="212" flags="0x4"/>
    </TTGlyph>
    <TTGlyph name="Omacron" xMin="39" yMin="-14" xMax="658" yMax="898">
      <component glyphName="macron.cap" x="128" y="212" flags="0x4"/>
      <component glyphName="O" x="0" y="0" flags="0x4"/>
    </TTGlyph>
    <TTGlyph name="Oslash" xMin="25" yMin="-14" xMax="671" yMax="738">
      <contour>
        <pt x="658" y="363" on="1"/>
        <pt x="658" y="277" on="0"/>
        <pt x="615" y="138" on="0"/>
        <pt x="535" y="39" on="0"/>
        <pt x="420" y="-14" on="0"/>
        <pt x="349" y="-14" on="1"/>
        <pt x="298" y="-14" on="0"/>
        <pt x="209" y="15" on="0"/>
        <pt x="173" y="41" on="1"/>
        <pt x="136" y="-10" on="1"/>
        <pt x="25" y="15" on="1"/>
        <pt x="101" y="119" on="1"/>
        <pt x="71" y="167" on="0"/>
        <pt x="39" y="290" on="0"/>
        <pt x="39" y="363" on="1"/>
        <pt x="39" y="449" on="0"/>
        <pt x="82" y="588" on="0"/>
        <pt x="162" y="685" on="0"/>
        <pt x="277" y="738" on="0"/>
        <pt x="349" y="738" on="1"/>
        <pt x="400" y="738" on="0"/>
        <pt x="488" y="710" on="0"/>
        <pt x="523" y="684" on="1"/>
        <pt x="561" y="735" on="1"/>
        <pt x="671" y="710" on="1"/>
        <pt x="595" y="606" on="1"/>
        <pt x="626" y="558" on="0"/>
        <pt x="658" y="436" on="0"/>
      </contour>
      <contour>
        <pt x="348" y="601" on="1"/>
        <pt x="284" y="601" on="0"/>
        <pt x="215" y="476" on="0"/>
        <pt x="215" y="362" on="1"/>
        <pt x="215" y="332" on="0"/>
        <pt x="220" y="278" on="0"/>
        <pt x="225" y="255" on="1"/>
        <pt x="435" y="556" on="1"/>
        <pt x="402" y="601" on="0"/>
      </contour>
      <contour>
        <pt x="483" y="362" on="1"/>
        <pt x="483" y="421" on="0"/>
        <pt x="472" y="470" on="1"/>
        <pt x="262" y="168" on="1"/>
        <pt x="295" y="124" on="0"/>
        <pt x="348" y="124" on="1"/>
        <pt x="412" y="124" on="0"/>
        <pt x="483" y="248" on="0"/>
      </contour>
    </TTGlyph>
    <TTGlyph name="Oslashacute" xMin="25" yMin="-14" xMax="671" yMax="938">
      <component glyphName="Oslash" x="0" y="0" flags="0x204"/>
      <component glyphName="acute.cap" x="182" y="212" flags="0x4"/>
    </TTGlyph>
    <TTGlyph name="Otilde" xMin="39" yMin="-14" xMax="658" yMax="942">
      <component glyphName="tilde.cap" x="130" y="212" flags="0x4"/>
      <component glyphName="O" x="0" y="0" flags="0x4"/>
    </TTGlyph>
    <TTGlyph name="P" xMin="61" yMin="0" xMax="546" yMax="725">
      <contour>
        <pt x="546" y="486" on="1"/>
        <pt x="546" y="423" on="0"/>
        <pt x="506" y="331" on="0"/>
        <pt x="432" y="269" on="0"/>
        <pt x="328" y="239" on="0"/>
        <pt x="265" y="239" on="1"/>
        <pt x="237" y="239" on="1"/>
        <pt x="237" y="0" on="1"/>
        <pt x="61" y="0" on="1"/>
        <pt x="61" y="725" on="1"/>
        <pt x="272" y="725" on="1"/>
        <pt x="400" y="725" on="0"/>
        <pt x="546" y="607" on="0"/>
      </contour>
      <contour>
        <pt x="375" y="484" on="1"/>
        <pt x="375" y="590" on="0"/>
        <pt x="263" y="590" on="1"/>
        <pt x="235" y="590" on="1"/>
        <pt x="235" y="374" on="1"/>
        <pt x="260" y="374" on="1"/>
        <pt x="317" y="374" on="0"/>
        <pt x="375" y="426" on="0"/>
      </contour>
    </TTGlyph>
    <TTGlyph name="Q" xMin="39" yMin="-137" xMax="658" yMax="738">
      <contour>
        <pt x="658" y="374" on="1"/>
        <pt x="658" y="256" on="0"/>
        <pt x="580" y="99" on="0"/>
        <pt x="508" y="55" on="1"/>
        <pt x="654" y="12" on="1"/>
        <pt x="621" y="-137" on="1"/>
        <pt x="287" y="-13" on="1"/>
        <pt x="223" y="11" on="0"/>
        <pt x="130" y="75" on="0"/>
        <pt x="69" y="164" on="0"/>
        <pt x="39" y="283" on="0"/>
        <pt x="39" y="361" on="1"/>
        <pt x="39" y="447" on="0"/>
        <pt x="82" y="587" on="0"/>
        <pt x="162" y="685" on="0"/>
        <pt x="277" y="738" on="0"/>
        <pt x="350" y="738" on="1"/>
        <pt x="422" y="738" on="0"/>
        <pt x="536" y="686" on="0"/>
        <pt x="616" y="590" on="0"/>
        <pt x="658" y="456" on="0"/>
      </contour>
      <contour>
        <pt x="479" y="362" on="1"/>
        <pt x="479" y="470" on="0"/>
        <pt x="412" y="597" on="0"/>
        <pt x="348" y="597" on="1"/>
        <pt x="284" y="597" on="0"/>
        <pt x="218" y="470" on="0"/>
        <pt x="218" y="362" on="1"/>
        <pt x="218" y="308" on="0"/>
        <pt x="235" y="221" on="0"/>
        <pt x="268" y="158" on="0"/>
        <pt x="317" y="124" on="0"/>
        <pt x="349" y="124" on="1"/>
        <pt x="381" y="124" on="0"/>
        <pt x="430" y="158" on="0"/>
        <pt x="463" y="221" on="0"/>
        <pt x="479" y="308" on="0"/>
      </contour>
    </TTGlyph>
    <TTGlyph name="Q.alt" xMin="39" yMin="-14" xMax="679" yMax="738">
      <contour>
        <pt x="649" y="-14" on="1"/>
        <pt x="551" y="70" on="1"/>
        <pt x="512" y="32" on="0"/>
        <pt x="410" y="-11" on="0"/>
        <pt x="348" y="-11" on="1"/>
        <pt x="275" y="-11" on="0"/>
        <pt x="160" y="41" on="0"/>
        <pt x="81" y="138" on="0"/>
        <pt x="39" y="276" on="0"/>
        <pt x="39" y="362" on="1"/>
        <pt x="39" y="447" on="0"/>
        <pt x="82" y="586" on="0"/>
        <pt x="162" y="685" on="0"/>
        <pt x="277" y="738" on="0"/>
        <pt x="350" y="738" on="1"/>
        <pt x="424" y="738" on="0"/>
        <pt x="539" y="685" on="0"/>
        <pt x="617" y="587" on="0"/>
        <pt x="658" y="451" on="0"/>
        <pt x="658" y="367" on="1"/>
        <pt x="658" y="266" on="0"/>
        <pt x="626" y="187" on="1"/>
        <pt x="679" y="147" on="1"/>
      </contour>
      <contour>
        <pt x="482" y="364" on="1"/>
        <pt x="482" y="474" on="0"/>
        <pt x="413" y="597" on="0"/>
        <pt x="350" y="597" on="1"/>
        <pt x="284" y="597" on="0"/>
        <pt x="216" y="473" on="0"/>
        <pt x="216" y="361" on="1"/>
        <pt x="216" y="249" on="0"/>
        <pt x="285" y="125" on="0"/>
        <pt x="350" y="125" on="1"/>
        <pt x="402" y="125" on="0"/>
        <pt x="436" y="168" on="1"/>
        <pt x="309" y="271" on="1"/>
        <pt x="459" y="320" on="1"/>
        <pt x="479" y="304" on="1"/>
        <pt x="482" y="331" on="0"/>
      </contour>
    </TTGlyph>
    <TTGlyph name="Q.alt_flat" xMin="39" yMin="-15" xMax="670" yMax="738">
      <contour>
        <pt x="670" y="-15" on="1"/>
        <pt x="549" y="69" on="1"/>
        <pt x="510" y="31" on="0"/>
        <pt x="409" y="-11" on="0"/>
        <pt x="348" y="-11" on="1"/>
        <pt x="275" y="-11" on="0"/>
        <pt x="160" y="41" on="0"/>
        <pt x="81" y="138" on="0"/>
        <pt x="39" y="276" on="0"/>
        <pt x="39" y="362" on="1"/>
        <pt x="39" y="447" on="0"/>
        <pt x="82" y="586" on="0"/>
        <pt x="162" y="685" on="0"/>
        <pt x="277" y="738" on="0"/>
        <pt x="350" y="738" on="1"/>
        <pt x="424" y="738" on="0"/>
        <pt x="539" y="685" on="0"/>
        <pt x="617" y="587" on="0"/>
        <pt x="658" y="451" on="0"/>
        <pt x="658" y="367" on="1"/>
        <pt x="658" y="265" on="0"/>
        <pt x="624" y="183" on="1"/>
        <pt x="670" y="153" on="1"/>
      </contour>
      <contour>
        <pt x="482" y="364" on="1"/>
        <pt x="482" y="474" on="0"/>
        <pt x="413" y="597" on="0"/>
        <pt x="350" y="597" on="1"/>
        <pt x="284" y="597" on="0"/>
        <pt x="216" y="473" on="0"/>
        <pt x="216" y="361" on="1"/>
        <pt x="216" y="249" on="0"/>
        <pt x="287" y="125" on="0"/>
        <pt x="352" y="125" on="1"/>
        <pt x="396" y="125" on="0"/>
        <pt x="427" y="156" on="1"/>
        <pt x="350" y="209" on="1"/>
        <pt x="350" y="366" on="1"/>
        <pt x="476" y="279" on="1"/>
        <pt x="482" y="318" on="0"/>
      </contour>
    </TTGlyph>
    <TTGlyph name="R" xMin="61" yMin="-9" xMax="594" yMax="725">
      <contour>
        <pt x="412" y="-9" on="1"/>
        <pt x="268" y="256" on="1"/>
        <pt x="236" y="256" on="1"/>
        <pt x="236" y="0" on="1"/>
        <pt x="61" y="0" on="1"/>
        <pt x="61" y="725" on="1"/>
        <pt x="289" y="725" on="1"/>
        <pt x="416" y="725" on="0"/>
        <pt x="557" y="611" on="0"/>
        <pt x="557" y="499" on="1"/>
        <pt x="557" y="426" on="0"/>
        <pt x="490" y="326" on="0"/>
        <pt x="432" y="300" on="1"/>
        <pt x="594" y="20" on="1"/>
      </contour>
      <contour>
        <pt x="386" y="488" on="1"/>
        <pt x="386" y="591" on="0"/>
        <pt x="274" y="591" on="1"/>
        <pt x="234" y="591" on="1"/>
        <pt x="234" y="383" on="1"/>
        <pt x="272" y="383" on="1"/>
        <pt x="326" y="383" on="0"/>
        <pt x="386" y="435" on="0"/>
      </contour>
    </TTGlyph>
    <TTGlyph name="R.flat" xMin="61" yMin="0" xMax="602" yMax="725">
      <contour>
        <pt x="404" y="0" on="1"/>
        <pt x="268" y="256" on="1"/>
        <pt x="236" y="256" on="1"/>
        <pt x="236" y="0" on="1"/>
        <pt x="61" y="0" on="1"/>
        <pt x="61" y="725" on="1"/>
        <pt x="289" y="725" on="1"/>
        <pt x="416" y="725" on="0"/>
        <pt x="557" y="611" on="0"/>
        <pt x="557" y="499" on="1"/>
        <pt x="557" y="426" on="0"/>
        <pt x="490" y="326" on="0"/>
        <pt x="432" y="300" on="1"/>
        <pt x="602" y="0" on="1"/>
      </contour>
      <contour>
        <pt x="386" y="488" on="1"/>
        <pt x="386" y="591" on="0"/>
        <pt x="274" y="591" on="1"/>
        <pt x="234" y="591" on="1"/>
        <pt x="234" y="383" on="1"/>
        <pt x="272" y="383" on="1"/>
        <pt x="326" y="383" on="0"/>
        <pt x="386" y="435" on="0"/>
      </contour>
    </TTGlyph>
    <TTGlyph name="R_p" xMin="70" yMin="-189" xMax="1051" yMax="717">
      <contour>
        <pt x="271" y="254" on="1"/>
        <pt x="232" y="254" on="1"/>
        <pt x="232" y="0" on="1"/>
        <pt x="70" y="0" on="1"/>
        <pt x="70" y="717" on="1"/>
        <pt x="281" y="717" on="1"/>
        <pt x="408" y="717" on="0"/>
        <pt x="549" y="604" on="0"/>
        <pt x="549" y="494" on="1"/>
        <pt x="549" y="422" on="0"/>
        <pt x="481" y="323" on="0"/>
        <pt x="423" y="296" on="1"/>
        <pt x="580" y="20" on="1"/>
        <pt x="411" y="-9" on="1"/>
      </contour>
      <contour>
        <pt x="1051" y="274" on="1"/>
        <pt x="1051" y="199" on="0"/>
        <pt x="1016" y="94" on="0"/>
        <pt x="958" y="26" on="0"/>
        <pt x="881" y="-5" on="0"/>
        <pt x="839" y="-5" on="1"/>
        <pt x="816" y="-5" on="0"/>
        <pt x="778" y="3" on="0"/>
        <pt x="761" y="9" on="1"/>
        <pt x="761" y="-165" on="1"/>
        <pt x="608" y="-189" on="1"/>
        <pt x="608" y="516" on="1"/>
        <pt x="739" y="516" on="1"/>
        <pt x="750" y="457" on="1"/>
        <pt x="774" y="483" on="0"/>
        <pt x="838" y="526" on="0"/>
        <pt x="883" y="526" on="1"/>
        <pt x="920" y="526" on="0"/>
        <pt x="981" y="494" on="0"/>
        <pt x="1026" y="431" on="0"/>
        <pt x="1051" y="337" on="0"/>
      </contour>
      <contour>
        <pt x="900" y="262" on="1"/>
        <pt x="900" y="330" on="0"/>
        <pt x="860" y="388" on="0"/>
        <pt x="828" y="388" on="1"/>
        <pt x="808" y="388" on="0"/>
        <pt x="777" y="367" on="0"/>
        <pt x="760" y="350" on="1"/>
        <pt x="760" y="130" on="1"/>
        <pt x="772" y="124" on="0"/>
        <pt x="794" y="118" on="0"/>
        <pt x="810" y="118" on="1"/>
        <pt x="850" y="118" on="0"/>
        <pt x="900" y="185" on="0"/>
      </contour>
      <contour>
        <pt x="271" y="378" on="1"/>
        <pt x="325" y="378" on="0"/>
        <pt x="385" y="430" on="0"/>
        <pt x="385" y="484" on="1"/>
        <pt x="385" y="587" on="0"/>
        <pt x="273" y="587" on="1"/>
        <pt x="231" y="587" on="1"/>
        <pt x="231" y="378" on="1"/>
      </contour>
    </TTGlyph>
    <TTGlyph name="R_p.flat" xMin="70" yMin="-189" xMax="1051" yMax="717">
      <contour>
        <pt x="271" y="254" on="1"/>
        <pt x="232" y="254" on="1"/>
        <pt x="232" y="0" on="1"/>
        <pt x="70" y="0" on="1"/>
        <pt x="70" y="717" on="1"/>
        <pt x="281" y="717" on="1"/>
        <pt x="408" y="717" on="0"/>
        <pt x="549" y="604" on="0"/>
        <pt x="549" y="494" on="1"/>
        <pt x="549" y="422" on="0"/>
        <pt x="481" y="323" on="0"/>
        <pt x="423" y="296" on="1"/>
        <pt x="592" y="0" on="1"/>
        <pt x="407" y="0" on="1"/>
      </contour>
      <contour>
        <pt x="1051" y="274" on="1"/>
        <pt x="1051" y="199" on="0"/>
        <pt x="1016" y="94" on="0"/>
        <pt x="958" y="26" on="0"/>
        <pt x="881" y="-5" on="0"/>
        <pt x="839" y="-5" on="1"/>
        <pt x="816" y="-5" on="0"/>
        <pt x="778" y="3" on="0"/>
        <pt x="761" y="9" on="1"/>
        <pt x="761" y="-165" on="1"/>
        <pt x="608" y="-189" on="1"/>
        <pt x="608" y="516" on="1"/>
        <pt x="739" y="516" on="1"/>
        <pt x="750" y="457" on="1"/>
        <pt x="774" y="483" on="0"/>
        <pt x="838" y="526" on="0"/>
        <pt x="883" y="526" on="1"/>
        <pt x="920" y="526" on="0"/>
        <pt x="981" y="494" on="0"/>
        <pt x="1026" y="431" on="0"/>
        <pt x="1051" y="337" on="0"/>
      </contour>
      <contour>
        <pt x="900" y="262" on="1"/>
        <pt x="900" y="330" on="0"/>
        <pt x="860" y="388" on="0"/>
        <pt x="828" y="388" on="1"/>
        <pt x="808" y="388" on="0"/>
        <pt x="777" y="367" on="0"/>
        <pt x="760" y="350" on="1"/>
        <pt x="760" y="130" on="1"/>
        <pt x="772" y="124" on="0"/>
        <pt x="794" y="118" on="0"/>
        <pt x="810" y="118" on="1"/>
        <pt x="850" y="118" on="0"/>
        <pt x="900" y="185" on="0"/>
      </contour>
      <contour>
        <pt x="271" y="378" on="1"/>
        <pt x="325" y="378" on="0"/>
        <pt x="385" y="430" on="0"/>
        <pt x="385" y="484" on="1"/>
        <pt x="385" y="587" on="0"/>
        <pt x="273" y="587" on="1"/>
        <pt x="231" y="587" on="1"/>
        <pt x="231" y="378" on="1"/>
      </contour>
    </TTGlyph>
    <TTGlyph name="Racute" xMin="61" yMin="-9" xMax="594" yMax="930">
      <component glyphName="R" x="0" y="0" flags="0x204"/>
      <component glyphName="acute.cap" x="125" y="204" flags="0x4"/>
    </TTGlyph>
    <TTGlyph name="Racute.flat" xMin="61" yMin="0" xMax="602" yMax="930">
      <component glyphName="acute.cap" x="125" y="204" flags="0x4"/>
      <component glyphName="R.flat" x="0" y="0" flags="0x4"/>
    </TTGlyph>
    <TTGlyph name="Rcaron" xMin="61" yMin="-9" xMax="594" yMax="926">
      <component glyphName="caron.cap" x="73" y="204" flags="0x4"/>
      <component glyphName="R" x="0" y="0" flags="0x4"/>
    </TTGlyph>
    <TTGlyph name="Rcaron.flat" xMin="61" yMin="0" xMax="602" yMax="926">
      <component glyphName="caron.cap" x="73" y="204" flags="0x4"/>
      <component glyphName="R.flat" x="0" y="0" flags="0x4"/>
    </TTGlyph>
    <TTGlyph name="Rcommaaccent" xMin="61" yMin="-250" xMax="594" yMax="725">
      <component glyphName="R" x="0" y="0" flags="0x204"/>
      <component glyphName="commaaccent.cap" x="84" y="6" flags="0x4"/>
    </TTGlyph>
    <TTGlyph name="Rcommaaccent.flat" xMin="61" yMin="-250" xMax="602" yMax="725">
      <component glyphName="R.flat" x="0" y="0" flags="0x204"/>
      <component glyphName="commaaccent.cap" x="84" y="6" flags="0x4"/>
    </TTGlyph>
    <TTGlyph name="S" xMin="34" yMin="-10" xMax="505" yMax="734">
      <contour>
        <pt x="505" y="211" on="1"/>
        <pt x="505" y="157" on="0"/>
        <pt x="468" y="74" on="0"/>
        <pt x="403" y="18" on="0"/>
        <pt x="313" y="-10" on="0"/>
        <pt x="260" y="-10" on="1"/>
        <pt x="194" y="-10" on="0"/>
        <pt x="85" y="17" on="0"/>
        <pt x="34" y="42" on="1"/>
        <pt x="58" y="191" on="1"/>
        <pt x="110" y="164" on="0"/>
        <pt x="209" y="131" on="0"/>
        <pt x="255" y="131" on="1"/>
        <pt x="293" y="131" on="0"/>
        <pt x="335" y="164" on="0"/>
        <pt x="335" y="194" on="1"/>
        <pt x="335" y="210" on="0"/>
        <pt x="325" y="235" on="0"/>
        <pt x="300" y="259" on="0"/>
        <pt x="257" y="286" on="0"/>
        <pt x="224" y="303" on="1"/>
        <pt x="179" y="325" on="0"/>
        <pt x="113" y="369" on="0"/>
        <pt x="70" y="421" on="0"/>
        <pt x="48" y="484" on="0"/>
        <pt x="48" y="526" on="1"/>
        <pt x="48" y="575" on="0"/>
        <pt x="83" y="653" on="0"/>
        <pt x="145" y="706" on="0"/>
        <pt x="232" y="734" on="0"/>
        <pt x="283" y="734" on="1"/>
        <pt x="343" y="734" on="0"/>
        <pt x="432" y="712" on="0"/>
        <pt x="475" y="691" on="1"/>
        <pt x="450" y="542" on="1"/>
        <pt x="406" y="568" on="0"/>
        <pt x="324" y="594" on="0"/>
        <pt x="290" y="594" on="1"/>
        <pt x="255" y="594" on="0"/>
        <pt x="218" y="563" on="0"/>
        <pt x="218" y="538" on="1"/>
        <pt x="218" y="524" on="0"/>
        <pt x="227" y="503" on="0"/>
        <pt x="250" y="481" on="0"/>
        <pt x="290" y="457" on="0"/>
        <pt x="320" y="441" on="1"/>
        <pt x="368" y="417" on="0"/>
        <pt x="438" y="370" on="0"/>
        <pt x="483" y="317" on="0"/>
        <pt x="505" y="253" on="0"/>
      </contour>
    </TTGlyph>
    <TTGlyph name="Sacute" xMin="34" yMin="-10" xMax="505" yMax="938">
      <component glyphName="S" x="0" y="0" flags="0x204"/>
      <component glyphName="acute.cap" x="113" y="212" flags="0x4"/>
    </TTGlyph>
    <TTGlyph name="Scaron" xMin="34" yMin="-10" xMax="505" yMax="934">
      <component glyphName="S" x="0" y="0" flags="0x204"/>
      <component glyphName="caron.cap" x="61" y="212" flags="0x4"/>
    </TTGlyph>
    <TTGlyph name="Scedilla" xMin="34" yMin="-194" xMax="505" yMax="734">
      <component glyphName="S" x="0" y="0" flags="0x204"/>
      <component glyphName="cedilla.cap" x="41" y="-5" flags="0x4"/>
    </TTGlyph>
    <TTGlyph name="Scommaaccent" xMin="34" yMin="-263" xMax="505" yMax="734">
      <component glyphName="S" x="0" y="0" flags="0x204"/>
      <component glyphName="commaaccent.cap" x="50" y="-7" flags="0x4"/>
    </TTGlyph>
    <TTGlyph name="T" xMin="26" yMin="0" xMax="565" yMax="725">
      <contour>
        <pt x="380" y="575" on="1"/>
        <pt x="380" y="0" on="1"/>
        <pt x="204" y="0" on="1"/>
        <pt x="204" y="575" on="1"/>
        <pt x="26" y="575" on="1"/>
        <pt x="26" y="725" on="1"/>
        <pt x="541" y="725" on="1"/>
        <pt x="565" y="575" on="1"/>
      </contour>
    </TTGlyph>
    <TTGlyph name="T.flat" xMin="26" yMin="0" xMax="557" yMax="725">
      <contour>
        <pt x="380" y="575" on="1"/>
        <pt x="380" y="0" on="1"/>
        <pt x="204" y="0" on="1"/>
        <pt x="204" y="575" on="1"/>
        <pt x="26" y="575" on="1"/>
        <pt x="26" y="725" on="1"/>
        <pt x="557" y="725" on="1"/>
        <pt x="557" y="575" on="1"/>
      </contour>
    </TTGlyph>
    <TTGlyph name="Tcaron" xMin="26" yMin="0" xMax="565" yMax="926">
      <component glyphName="caron.cap" x="73" y="204" flags="0x4"/>
      <component glyphName="T" x="0" y="0" flags="0x4"/>
    </TTGlyph>
    <TTGlyph name="Tcaron.flat" xMin="26" yMin="0" xMax="557" yMax="926">
      <component glyphName="caron.cap" x="72" y="204" flags="0x4"/>
      <component glyphName="T.flat" x="0" y="0" flags="0x4"/>
    </TTGlyph>
    <TTGlyph name="Tcommaaccent" xMin="26" yMin="-260" xMax="565" yMax="725">
      <component glyphName="T" x="0" y="0" flags="0x204"/>
      <component glyphName="commaaccent.cap" x="69" y="-4" flags="0x4"/>
    </TTGlyph>
    <TTGlyph name="Tcommaaccent.flat" xMin="26" yMin="-260" xMax="557" yMax="725">
      <component glyphName="T.flat" x="0" y="0" flags="0x204"/>
      <component glyphName="commaaccent.cap" x="69" y="-4" flags="0x4"/>
    </TTGlyph>
    <TTGlyph name="Thorn" xMin="61" yMin="0" xMax="546" yMax="725">
      <contour>
        <pt x="546" y="376" on="1"/>
        <pt x="546" y="313" on="0"/>
        <pt x="506" y="221" on="0"/>
        <pt x="432" y="159" on="0"/>
        <pt x="328" y="129" on="0"/>
        <pt x="264" y="129" on="1"/>
        <pt x="237" y="129" on="1"/>
        <pt x="237" y="0" on="1"/>
        <pt x="61" y="0" on="1"/>
        <pt x="61" y="725" on="1"/>
        <pt x="237" y="725" on="1"/>
        <pt x="237" y="614" on="1"/>
        <pt x="271" y="614" on="1"/>
        <pt x="400" y="614" on="0"/>
        <pt x="546" y="497" on="0"/>
      </contour>
      <contour>
        <pt x="375" y="374" on="1"/>
        <pt x="375" y="480" on="0"/>
        <pt x="263" y="480" on="1"/>
        <pt x="235" y="480" on="1"/>
        <pt x="235" y="263" on="1"/>
        <pt x="260" y="263" on="1"/>
        <pt x="317" y="264" on="0"/>
        <pt x="375" y="316" on="0"/>
      </contour>
    </TTGlyph>
    <TTGlyph name="U" xMin="56" yMin="-11" xMax="605" yMax="725">
      <contour>
        <pt x="605" y="261" on="1"/>
        <pt x="605" y="193" on="0"/>
        <pt x="567" y="92" on="0"/>
        <pt x="495" y="23" on="0"/>
        <pt x="393" y="-11" on="0"/>
        <pt x="329" y="-11" on="1"/>
        <pt x="200" y="-11" on="0"/>
        <pt x="56" y="124" on="0"/>
        <pt x="56" y="260" on="1"/>
        <pt x="56" y="725" on="1"/>
        <pt x="232" y="725" on="1"/>
        <pt x="232" y="256" on="1"/>
        <pt x="232" y="199" on="0"/>
        <pt x="281" y="136" on="0"/>
        <pt x="331" y="136" on="1"/>
        <pt x="381" y="136" on="0"/>
        <pt x="429" y="198" on="0"/>
        <pt x="429" y="254" on="1"/>
        <pt x="429" y="725" on="1"/>
        <pt x="605" y="725" on="1"/>
      </contour>
    </TTGlyph>
    <TTGlyph name="U.alt" xMin="59" yMin="-8" xMax="606" yMax="725">
      <contour>
        <pt x="449" y="59" on="1"/>
        <pt x="402" y="28" on="0"/>
        <pt x="311" y="-8" on="0"/>
        <pt x="255" y="-8" on="1"/>
        <pt x="211" y="-8" on="0"/>
        <pt x="139" y="16" on="0"/>
        <pt x="87" y="68" on="0"/>
        <pt x="59" y="148" on="0"/>
        <pt x="59" y="204" on="1"/>
        <pt x="59" y="725" on="1"/>
        <pt x="234" y="725" on="1"/>
        <pt x="234" y="232" on="1"/>
        <pt x="234" y="146" on="0"/>
        <pt x="313" y="146" on="1"/>
        <pt x="341" y="146" on="0"/>
        <pt x="398" y="171" on="0"/>
        <pt x="430" y="193" on="1"/>
        <pt x="430" y="725" on="1"/>
        <pt x="606" y="725" on="1"/>
        <pt x="606" y="0" on="1"/>
        <pt x="458" y="0" on="1"/>
      </contour>
    </TTGlyph>
    <TTGlyph name="Uacute" xMin="56" yMin="-11" xMax="605" yMax="926">
      <component glyphName="acute.cap" x="163" y="200" flags="0x4"/>
      <component glyphName="U" x="0" y="0" flags="0x4"/>
    </TTGlyph>
    <TTGlyph name="Uacute.alt" xMin="59" yMin="-8" xMax="606" yMax="926">
      <component glyphName="acute.cap" x="164" y="200" flags="0x4"/>
      <component glyphName="U.alt" x="0" y="0" flags="0x4"/>
    </TTGlyph>
    <TTGlyph name="Ubreve" xMin="56" yMin="-11" xMax="605" yMax="919">
      <component glyphName="breve.cap" x="111" y="197" flags="0x4"/>
      <component glyphName="U" x="0" y="0" flags="0x4"/>
    </TTGlyph>
    <TTGlyph name="Ubreve.alt" xMin="59" yMin="-8" xMax="606" yMax="919">
      <component glyphName="breve.cap" x="112" y="197" flags="0x4"/>
      <component glyphName="U.alt" x="0" y="0" flags="0x4"/>
    </TTGlyph>
    <TTGlyph name="Ucircumflex" xMin="56" yMin="-11" xMax="605" yMax="923">
      <component glyphName="U" x="0" y="0" flags="0x204"/>
      <component glyphName="circumflex.cap" x="109" y="200" flags="0x4"/>
    </TTGlyph>
    <TTGlyph name="Ucircumflex.alt" xMin="59" yMin="-8" xMax="606" yMax="923">
      <component glyphName="circumflex.cap" x="111" y="200" flags="0x4"/>
      <component glyphName="U.alt" x="0" y="0" flags="0x4"/>
    </TTGlyph>
    <TTGlyph name="Udieresis" xMin="56" yMin="-11" xMax="605" yMax="905">
      <component glyphName="dieresis.cap" x="111" y="200" flags="0x4"/>
      <component glyphName="U" x="0" y="0" flags="0x4"/>
    </TTGlyph>
    <TTGlyph name="Udieresis.alt" xMin="59" yMin="-8" xMax="606" yMax="905">
      <component glyphName="dieresis.cap" x="112" y="200" flags="0x4"/>
      <component glyphName="U.alt" x="0" y="0" flags="0x4"/>
    </TTGlyph>
    <TTGlyph name="Ugrave" xMin="56" yMin="-11" xMax="605" yMax="926">
      <component glyphName="grave.cap" x="57" y="200" flags="0x4"/>
      <component glyphName="U" x="0" y="0" flags="0x4"/>
    </TTGlyph>
    <TTGlyph name="Ugrave.alt" xMin="59" yMin="-8" xMax="606" yMax="926">
      <component glyphName="grave.cap" x="59" y="200" flags="0x4"/>
      <component glyphName="U.alt" x="0" y="0" flags="0x4"/>
    </TTGlyph>
    <TTGlyph name="Uhungarumlaut" xMin="56" yMin="-11" xMax="605" yMax="926">
      <component glyphName="U" x="0" y="0" flags="0x204"/>
      <component glyphName="hungarumlaut.cap" x="161" y="200" flags="0x4"/>
    </TTGlyph>
    <TTGlyph name="Uhungarumlaut.alt" xMin="59" yMin="-8" xMax="606" yMax="926">
      <component glyphName="U.alt" x="0" y="0" flags="0x204"/>
      <component glyphName="hungarumlaut.cap" x="163" y="200" flags="0x4"/>
    </TTGlyph>
    <TTGlyph name="Umacron" xMin="56" yMin="-11" xMax="605" yMax="886">
      <component glyphName="macron.cap" x="111" y="200" flags="0x4"/>
      <component glyphName="U" x="0" y="0" flags="0x4"/>
    </TTGlyph>
    <TTGlyph name="Umacron.alt" xMin="59" yMin="-8" xMax="606" yMax="886">
      <component glyphName="macron.cap" x="112" y="200" flags="0x4"/>
      <component glyphName="U.alt" x="0" y="0" flags="0x4"/>
    </TTGlyph>
    <TTGlyph name="Uogonek" xMin="56" yMin="-208" xMax="605" yMax="725">
      <contour>
        <pt x="334" y="-208" on="1"/>
        <pt x="284" y="-208" on="0"/>
        <pt x="230" y="-165" on="0"/>
        <pt x="230" y="-122" on="1"/>
        <pt x="230" y="-73" on="0"/>
        <pt x="282" y="-8" on="1"/>
        <pt x="174" y="3" on="0"/>
        <pt x="56" y="137" on="0"/>
        <pt x="56" y="260" on="1"/>
        <pt x="56" y="725" on="1"/>
        <pt x="232" y="725" on="1"/>
        <pt x="232" y="256" on="1"/>
        <pt x="232" y="199" on="0"/>
        <pt x="281" y="136" on="0"/>
        <pt x="331" y="136" on="1"/>
        <pt x="381" y="136" on="0"/>
        <pt x="429" y="198" on="0"/>
        <pt x="429" y="254" on="1"/>
        <pt x="429" y="725" on="1"/>
        <pt x="605" y="725" on="1"/>
        <pt x="605" y="261" on="1"/>
        <pt x="605" y="139" on="0"/>
        <pt x="485" y="5" on="0"/>
        <pt x="379" y="-8" on="1"/>
        <pt x="378" y="-10" on="1"/>
        <pt x="362" y="-36" on="0"/>
        <pt x="345" y="-71" on="0"/>
        <pt x="345" y="-87" on="1"/>
        <pt x="345" y="-102" on="0"/>
        <pt x="364" y="-120" on="0"/>
        <pt x="386" y="-120" on="1"/>
        <pt x="399" y="-120" on="0"/>
        <pt x="420" y="-116" on="0"/>
        <pt x="434" y="-113" on="1"/>
        <pt x="434" y="-188" on="1"/>
        <pt x="408" y="-197" on="0"/>
        <pt x="361" y="-208" on="0"/>
      </contour>
    </TTGlyph>
    <TTGlyph name="Uogonek.alt" xMin="59" yMin="-208" xMax="606" yMax="725">
      <contour>
        <pt x="600" y="-188" on="1"/>
        <pt x="574" y="-197" on="0"/>
        <pt x="527" y="-208" on="0"/>
        <pt x="500" y="-208" on="1"/>
        <pt x="450" y="-208" on="0"/>
        <pt x="396" y="-165" on="0"/>
        <pt x="396" y="-122" on="1"/>
        <pt x="396" y="-94" on="0"/>
        <pt x="426" y="-34" on="0"/>
        <pt x="457" y="3" on="1"/>
        <pt x="457" y="4" on="1"/>
        <pt x="449" y="59" on="1"/>
        <pt x="402" y="28" on="0"/>
        <pt x="311" y="-8" on="0"/>
        <pt x="255" y="-8" on="1"/>
        <pt x="211" y="-8" on="0"/>
        <pt x="139" y="16" on="0"/>
        <pt x="87" y="68" on="0"/>
        <pt x="59" y="148" on="0"/>
        <pt x="59" y="204" on="1"/>
        <pt x="59" y="725" on="1"/>
        <pt x="234" y="725" on="1"/>
        <pt x="234" y="232" on="1"/>
        <pt x="234" y="146" on="0"/>
        <pt x="313" y="146" on="1"/>
        <pt x="341" y="146" on="0"/>
        <pt x="398" y="171" on="0"/>
        <pt x="430" y="193" on="1"/>
        <pt x="430" y="725" on="1"/>
        <pt x="606" y="725" on="1"/>
        <pt x="606" y="0" on="1"/>
        <pt x="550" y="0" on="1"/>
        <pt x="544" y="-10" on="1"/>
        <pt x="528" y="-36" on="0"/>
        <pt x="511" y="-71" on="0"/>
        <pt x="511" y="-87" on="1"/>
        <pt x="511" y="-102" on="0"/>
        <pt x="530" y="-120" on="0"/>
        <pt x="552" y="-120" on="1"/>
        <pt x="565" y="-120" on="0"/>
        <pt x="586" y="-116" on="0"/>
        <pt x="600" y="-113" on="1"/>
        <pt x="600" y="-188" on="1"/>
      </contour>
    </TTGlyph>
    <TTGlyph name="Uring" xMin="56" yMin="-11" xMax="605" yMax="989">
      <component glyphName="U" x="0" y="0" flags="0x204"/>
      <component glyphName="ring.cap" x="111" y="194" flags="0x4"/>
    </TTGlyph>
    <TTGlyph name="Uring.alt" xMin="59" yMin="-8" xMax="606" yMax="989">
      <component glyphName="ring.cap" x="112" y="194" flags="0x4"/>
      <component glyphName="U.alt" x="0" y="0" flags="0x4"/>
    </TTGlyph>
    <TTGlyph name="V" xMin="16" yMin="-3" xMax="642" yMax="733">
      <contour>
        <pt x="424" y="-3" on="1"/>
        <pt x="231" y="-3" on="1"/>
        <pt x="16" y="704" on="1"/>
        <pt x="203" y="733" on="1"/>
        <pt x="336" y="219" on="1"/>
        <pt x="463" y="725" on="1"/>
        <pt x="642" y="725" on="1"/>
      </contour>
    </TTGlyph>
    <TTGlyph name="V.flat" xMin="16" yMin="-3" xMax="646" yMax="725">
      <contour>
        <pt x="426" y="-3" on="1"/>
        <pt x="236" y="-3" on="1"/>
        <pt x="16" y="725" on="1"/>
        <pt x="212" y="725" on="1"/>
        <pt x="340" y="219" on="1"/>
        <pt x="467" y="725" on="1"/>
        <pt x="646" y="725" on="1"/>
      </contour>
    </TTGlyph>
    <TTGlyph name="W" xMin="20" yMin="-1" xMax="933" yMax="733">
      <contour>
        <pt x="761" y="-1" on="1"/>
        <pt x="581" y="-1" on="1"/>
        <pt x="473" y="479" on="1"/>
        <pt x="368" y="-1" on="1"/>
        <pt x="189" y="-1" on="1"/>
        <pt x="20" y="705" on="1"/>
        <pt x="206" y="733" on="1"/>
        <pt x="297" y="261" on="1"/>
        <pt x="395" y="725" on="1"/>
        <pt x="576" y="725" on="1"/>
        <pt x="675" y="261" on="1"/>
        <pt x="762" y="725" on="1"/>
        <pt x="933" y="725" on="1"/>
      </contour>
    </TTGlyph>
    <TTGlyph name="W.alt" xMin="18" yMin="-2" xMax="939" yMax="733">
      <contour>
        <pt x="735" y="-2" on="1"/>
        <pt x="561" y="-2" on="1"/>
        <pt x="476" y="311" on="1"/>
        <pt x="387" y="-2" on="1"/>
        <pt x="215" y="-2" on="1"/>
        <pt x="18" y="705" on="1"/>
        <pt x="202" y="733" on="1"/>
        <pt x="325" y="234" on="1"/>
        <pt x="408" y="529" on="1"/>
        <pt x="359" y="707" on="1"/>
        <pt x="541" y="733" on="1"/>
        <pt x="654" y="234" on="1"/>
        <pt x="766" y="725" on="1"/>
        <pt x="939" y="725" on="1"/>
      </contour>
    </TTGlyph>
    <TTGlyph name="W.alt_flat" xMin="16" yMin="-2" xMax="943" yMax="725">
      <contour>
        <pt x="739" y="-2" on="1"/>
        <pt x="564" y="-2" on="1"/>
        <pt x="479" y="312" on="1"/>
        <pt x="391" y="-2" on="1"/>
        <pt x="218" y="-2" on="1"/>
        <pt x="16" y="725" on="1"/>
        <pt x="207" y="725" on="1"/>
        <pt x="328" y="234" on="1"/>
        <pt x="412" y="528" on="1"/>
        <pt x="357" y="725" on="1"/>
        <pt x="546" y="725" on="1"/>
        <pt x="657" y="234" on="1"/>
        <pt x="769" y="725" on="1"/>
        <pt x="943" y="725" on="1"/>
      </contour>
    </TTGlyph>
    <TTGlyph name="W.flat" xMin="19" yMin="-1" xMax="935" yMax="725">
      <contour>
        <pt x="764" y="-1" on="1"/>
        <pt x="583" y="-1" on="1"/>
        <pt x="476" y="479" on="1"/>
        <pt x="370" y="-1" on="1"/>
        <pt x="191" y="-1" on="1"/>
        <pt x="19" y="725" on="1"/>
        <pt x="210" y="725" on="1"/>
        <pt x="300" y="261" on="1"/>
        <pt x="397" y="725" on="1"/>
        <pt x="578" y="725" on="1"/>
        <pt x="678" y="261" on="1"/>
        <pt x="765" y="725" on="1"/>
        <pt x="935" y="725" on="1"/>
      </contour>
    </TTGlyph>
    <TTGlyph name="Wacute" xMin="20" yMin="-1" xMax="933" yMax="930">
      <component glyphName="acute.cap" x="316" y="204" flags="0x4"/>
      <component glyphName="W" x="0" y="0" flags="0x4"/>
    </TTGlyph>
    <TTGlyph name="Wacute.alt" xMin="18" yMin="-2" xMax="939" yMax="930">
      <component glyphName="acute.cap" x="310" y="204" flags="0x4"/>
      <component glyphName="W.alt" x="0" y="0" flags="0x4"/>
    </TTGlyph>
    <TTGlyph name="Wacute.alt_flat" xMin="16" yMin="-2" xMax="943" yMax="930">
      <component glyphName="acute.cap" x="311" y="204" flags="0x4"/>
      <component glyphName="W.alt_flat" x="0" y="0" flags="0x4"/>
    </TTGlyph>
    <TTGlyph name="Wacute.flat" xMin="19" yMin="-1" xMax="935" yMax="930">
      <component glyphName="acute.cap" x="319" y="204" flags="0x4"/>
      <component glyphName="W.flat" x="0" y="0" flags="0x4"/>
    </TTGlyph>
    <TTGlyph name="Wcircumflex" xMin="20" yMin="-1" xMax="933" yMax="927">
      <component glyphName="W" x="0" y="0" flags="0x204"/>
      <component glyphName="circumflex.cap" x="263" y="204" flags="0x4"/>
    </TTGlyph>
    <TTGlyph name="Wcircumflex.alt" xMin="18" yMin="-2" xMax="939" yMax="927">
      <component glyphName="W.alt" x="0" y="0" flags="0x204"/>
      <component glyphName="circumflex.cap" x="256" y="204" flags="0x4"/>
    </TTGlyph>
    <TTGlyph name="Wcircumflex.alt_flat" xMin="16" yMin="-2" xMax="943" yMax="927">
      <component glyphName="W.alt_flat" x="0" y="0" flags="0x204"/>
      <component glyphName="circumflex.cap" x="257" y="204" flags="0x4"/>
    </TTGlyph>
    <TTGlyph name="Wcircumflex.flat" xMin="19" yMin="-1" xMax="935" yMax="927">
      <component glyphName="W.flat" x="0" y="0" flags="0x204"/>
      <component glyphName="circumflex.cap" x="266" y="204" flags="0x4"/>
    </TTGlyph>
    <TTGlyph name="Wdieresis" xMin="20" yMin="-1" xMax="933" yMax="909">
      <component glyphName="dieresis.cap" x="264" y="204" flags="0x4"/>
      <component glyphName="W" x="0" y="0" flags="0x4"/>
    </TTGlyph>
    <TTGlyph name="Wdieresis.alt" xMin="18" yMin="-2" xMax="939" yMax="909">
      <component glyphName="dieresis.cap" x="256" y="204" flags="0x4"/>
      <component glyphName="W.alt" x="0" y="0" flags="0x4"/>
    </TTGlyph>
    <TTGlyph name="Wdieresis.alt_flat" xMin="16" yMin="-2" xMax="943" yMax="909">
      <component glyphName="dieresis.cap" x="259" y="204" flags="0x4"/>
      <component glyphName="W.alt_flat" x="0" y="0" flags="0x4"/>
    </TTGlyph>
    <TTGlyph name="Wdieresis.flat" xMin="19" yMin="-1" xMax="935" yMax="909">
      <component glyphName="dieresis.cap" x="267" y="204" flags="0x4"/>
      <component glyphName="W.flat" x="0" y="0" flags="0x4"/>
    </TTGlyph>
    <TTGlyph name="Wgrave" xMin="20" yMin="-1" xMax="933" yMax="930">
      <component glyphName="grave.cap" x="211" y="204" flags="0x4"/>
      <component glyphName="W" x="0" y="0" flags="0x4"/>
    </TTGlyph>
    <TTGlyph name="Wgrave.alt" xMin="18" yMin="-2" xMax="939" yMax="930">
      <component glyphName="grave.cap" x="204" y="204" flags="0x4"/>
      <component glyphName="W.alt" x="0" y="0" flags="0x4"/>
    </TTGlyph>
    <TTGlyph name="Wgrave.alt_flat" xMin="16" yMin="-2" xMax="943" yMax="930">
      <component glyphName="grave.cap" x="205" y="204" flags="0x4"/>
      <component glyphName="W.alt_flat" x="0" y="0" flags="0x4"/>
    </TTGlyph>
    <TTGlyph name="Wgrave.flat" xMin="19" yMin="-1" xMax="935" yMax="930">
      <component glyphName="grave.cap" x="214" y="204" flags="0x4"/>
      <component glyphName="W.flat" x="0" y="0" flags="0x4"/>
    </TTGlyph>
    <TTGlyph name="X" xMin="13" yMin="-9" xMax="616" yMax="733">
      <contour>
        <pt x="433" y="-9" on="1"/>
        <pt x="310" y="244" on="1"/>
        <pt x="193" y="0" on="1"/>
        <pt x="13" y="0" on="1"/>
        <pt x="209" y="367" on="1"/>
        <pt x="28" y="705" on="1"/>
        <pt x="210" y="733" on="1"/>
        <pt x="319" y="505" on="1"/>
        <pt x="421" y="725" on="1"/>
        <pt x="602" y="725" on="1"/>
        <pt x="420" y="381" on="1"/>
        <pt x="616" y="19" on="1"/>
      </contour>
    </TTGlyph>
    <TTGlyph name="X.flat" xMin="13" yMin="0" xMax="615" yMax="725">
      <contour>
        <pt x="418" y="0" on="1"/>
        <pt x="308" y="239" on="1"/>
        <pt x="193" y="0" on="1"/>
        <pt x="13" y="0" on="1"/>
        <pt x="209" y="364" on="1"/>
        <pt x="22" y="725" on="1"/>
        <pt x="219" y="725" on="1"/>
        <pt x="320" y="503" on="1"/>
        <pt x="424" y="725" on="1"/>
        <pt x="604" y="725" on="1"/>
        <pt x="419" y="377" on="1"/>
        <pt x="615" y="0" on="1"/>
      </contour>
    </TTGlyph>
    <TTGlyph name="Y" xMin="9" yMin="0" xMax="631" yMax="733">
      <contour>
        <pt x="405" y="264" on="1"/>
        <pt x="405" y="0" on="1"/>
        <pt x="230" y="0" on="1"/>
        <pt x="230" y="260" on="1"/>
        <pt x="9" y="708" on="1"/>
        <pt x="195" y="733" on="1"/>
        <pt x="325" y="436" on="1"/>
        <pt x="447" y="725" on="1"/>
        <pt x="631" y="725" on="1"/>
      </contour>
    </TTGlyph>
    <TTGlyph name="Y.flat" xMin="5" yMin="0" xMax="632" yMax="725">
      <contour>
        <pt x="406" y="264" on="1"/>
        <pt x="406" y="0" on="1"/>
        <pt x="230" y="0" on="1"/>
        <pt x="230" y="260" on="1"/>
        <pt x="5" y="725" on="1"/>
        <pt x="203" y="725" on="1"/>
        <pt x="326" y="436" on="1"/>
        <pt x="447" y="725" on="1"/>
        <pt x="632" y="725" on="1"/>
      </contour>
    </TTGlyph>
    <TTGlyph name="Yacute" xMin="9" yMin="0" xMax="631" yMax="926">
      <component glyphName="Y" x="0" y="0" flags="0x204"/>
      <component glyphName="acute.cap" x="159" y="200" flags="0x4"/>
    </TTGlyph>
    <TTGlyph name="Yacute.flat" xMin="5" yMin="0" xMax="632" yMax="926">
      <component glyphName="acute.cap" x="159" y="200" flags="0x4"/>
      <component glyphName="Y.flat" x="0" y="0" flags="0x4"/>
    </TTGlyph>
    <TTGlyph name="Ycircumflex" xMin="9" yMin="0" xMax="631" yMax="923">
      <component glyphName="Y" x="0" y="0" flags="0x204"/>
      <component glyphName="circumflex.cap" x="105" y="200" flags="0x4"/>
    </TTGlyph>
    <TTGlyph name="Ycircumflex.flat" xMin="5" yMin="0" xMax="632" yMax="923">
      <component glyphName="Y.flat" x="0" y="0" flags="0x204"/>
      <component glyphName="circumflex.cap" x="105" y="200" flags="0x4"/>
    </TTGlyph>
    <TTGlyph name="Ydieresis" xMin="9" yMin="0" xMax="631" yMax="905">
      <component glyphName="Y" x="0" y="0" flags="0x204"/>
      <component glyphName="dieresis.cap" x="106" y="200" flags="0x4"/>
    </TTGlyph>
    <TTGlyph name="Ydieresis.flat" xMin="5" yMin="0" xMax="632" yMax="905">
      <component glyphName="dieresis.cap" x="106" y="200" flags="0x4"/>
      <component glyphName="Y.flat" x="0" y="0" flags="0x4"/>
    </TTGlyph>
    <TTGlyph name="Ygrave" xMin="9" yMin="0" xMax="631" yMax="926">
      <component glyphName="Y" x="0" y="0" flags="0x204"/>
      <component glyphName="grave.cap" x="53" y="200" flags="0x4"/>
    </TTGlyph>
    <TTGlyph name="Ygrave.flat" xMin="5" yMin="0" xMax="632" yMax="926">
      <component glyphName="grave.cap" x="53" y="200" flags="0x4"/>
      <component glyphName="Y.flat" x="0" y="0" flags="0x4"/>
    </TTGlyph>
    <TTGlyph name="Z" xMin="39" yMin="0" xMax="544" yMax="725">
      <contour>
        <pt x="39" y="0" on="1"/>
        <pt x="39" y="130" on="1"/>
        <pt x="329" y="584" on="1"/>
        <pt x="70" y="584" on="1"/>
        <pt x="49" y="725" on="1"/>
        <pt x="537" y="725" on="1"/>
        <pt x="537" y="595" on="1"/>
        <pt x="247" y="141" on="1"/>
        <pt x="523" y="141" on="1"/>
        <pt x="544" y="0" on="1"/>
      </contour>
    </TTGlyph>
    <TTGlyph name="Z.flat" xMin="39" yMin="0" xMax="537" yMax="725">
      <contour>
        <pt x="39" y="0" on="1"/>
        <pt x="39" y="130" on="1"/>
        <pt x="329" y="584" on="1"/>
        <pt x="57" y="584" on="1"/>
        <pt x="57" y="725" on="1"/>
        <pt x="537" y="725" on="1"/>
        <pt x="537" y="595" on="1"/>
        <pt x="247" y="141" on="1"/>
        <pt x="536" y="141" on="1"/>
        <pt x="536" y="0" on="1"/>
      </contour>
    </TTGlyph>
    <TTGlyph name="Zacute" xMin="39" yMin="0" xMax="544" yMax="930">
      <component glyphName="Z" x="0" y="0" flags="0x204"/>
      <component glyphName="acute.cap" x="127" y="204" flags="0x4"/>
    </TTGlyph>
    <TTGlyph name="Zacute.flat" xMin="39" yMin="0" xMax="537" yMax="930">
      <component glyphName="acute.cap" x="127" y="204" flags="0x4"/>
      <component glyphName="Z.flat" x="0" y="0" flags="0x4"/>
    </TTGlyph>
    <TTGlyph name="Zcaron" xMin="39" yMin="0" xMax="544" yMax="926">
      <component glyphName="caron.cap" x="74" y="204" flags="0x4"/>
      <component glyphName="Z" x="0" y="0" flags="0x4"/>
    </TTGlyph>
    <TTGlyph name="Zcaron.flat" xMin="39" yMin="0" xMax="537" yMax="926">
      <component glyphName="caron.cap" x="74" y="204" flags="0x4"/>
      <component glyphName="Z.flat" x="0" y="0" flags="0x4"/>
    </TTGlyph>
    <TTGlyph name="Zdotaccent" xMin="39" yMin="0" xMax="544" yMax="909">
      <component glyphName="dotaccent.cap" x="74" y="204" flags="0x4"/>
      <component glyphName="Z" x="0" y="0" flags="0x4"/>
    </TTGlyph>
    <TTGlyph name="Zdotaccent.flat" xMin="39" yMin="0" xMax="537" yMax="909">
      <component glyphName="dotaccent.cap" x="74" y="204" flags="0x4"/>
      <component glyphName="Z.flat" x="0" y="0" flags="0x4"/>
    </TTGlyph>
    <TTGlyph name="a" xMin="32" yMin="-11" xMax="479" yMax="559">
      <contour>
        <pt x="337" y="0" on="1"/>
        <pt x="325" y="63" on="1"/>
        <pt x="293" y="29" on="0"/>
        <pt x="219" y="-11" on="0"/>
        <pt x="171" y="-11" on="1"/>
        <pt x="109" y="-11" on="0"/>
        <pt x="32" y="67" on="0"/>
        <pt x="32" y="141" on="1"/>
        <pt x="32" y="235" on="0"/>
        <pt x="173" y="331" on="0"/>
        <pt x="316" y="348" on="1"/>
        <pt x="316" y="363" on="1"/>
        <pt x="316" y="431" on="0"/>
        <pt x="242" y="431" on="1"/>
        <pt x="203" y="431" on="0"/>
        <pt x="124" y="408" on="0"/>
        <pt x="82" y="388" on="1"/>
        <pt x="63" y="516" on="1"/>
        <pt x="107" y="535" on="0"/>
        <pt x="210" y="559" on="0"/>
        <pt x="271" y="559" on="1"/>
        <pt x="374" y="559" on="0"/>
        <pt x="479" y="472" on="0"/>
        <pt x="479" y="370" on="1"/>
        <pt x="479" y="0" on="1"/>
      </contour>
      <contour>
        <pt x="316" y="265" on="1"/>
        <pt x="244" y="251" on="0"/>
        <pt x="188" y="198" on="0"/>
        <pt x="188" y="161" on="1"/>
        <pt x="188" y="135" on="0"/>
        <pt x="215" y="107" on="0"/>
        <pt x="237" y="107" on="1"/>
        <pt x="257" y="107" on="0"/>
        <pt x="294" y="125" on="0"/>
        <pt x="316" y="143" on="1"/>
      </contour>
    </TTGlyph>
    <TTGlyph name="aacute" xMin="32" yMin="-11" xMax="479" yMax="777">
      <component glyphName="a" x="0" y="0" flags="0x204"/>
      <component glyphName="acute" x="90" y="3" flags="0x4"/>
    </TTGlyph>
    <TTGlyph name="abreve" xMin="32" yMin="-11" xMax="479" yMax="772">
      <component glyphName="a" x="0" y="0" flags="0x204"/>
      <component glyphName="breve" x="33" y="3" flags="0x4"/>
    </TTGlyph>
    <TTGlyph name="acircumflex" xMin="32" yMin="-11" xMax="479" yMax="774">
      <component glyphName="a" x="0" y="0" flags="0x204"/>
      <component glyphName="circumflex" x="33" y="3" flags="0x4"/>
    </TTGlyph>
    <TTGlyph name="acute" xMin="116" yMin="606" xMax="376" yMax="774">
      <contour>
        <pt x="222" y="606" on="1"/>
        <pt x="116" y="606" on="1"/>
        <pt x="178" y="774" on="1"/>
        <pt x="376" y="740" on="1"/>
      </contour>
    </TTGlyph>
    <TTGlyph name="acute.cap" xMin="109" yMin="568" xMax="354" yMax="726">
      <contour>
        <pt x="209" y="568" on="1"/>
        <pt x="109" y="568" on="1"/>
        <pt x="166" y="726" on="1"/>
        <pt x="354" y="693" on="1"/>
      </contour>
    </TTGlyph>
    <TTGlyph name="adieresis" xMin="32" yMin="-11" xMax="479" yMax="754">
      <component glyphName="a" x="0" y="0" flags="0x204"/>
      <component glyphName="dieresis" x="33" y="3" flags="0x4"/>
    </TTGlyph>
    <TTGlyph name="ae" xMin="32" yMin="-11" xMax="776" yMax="561">
      <contour>
        <pt x="776" y="281" on="1"/>
        <pt x="776" y="270" on="0"/>
        <pt x="774" y="235" on="0"/>
        <pt x="773" y="229" on="1"/>
        <pt x="474" y="229" on="1"/>
        <pt x="481" y="169" on="0"/>
        <pt x="545" y="114" on="0"/>
        <pt x="596" y="114" on="1"/>
        <pt x="638" y="114" on="0"/>
        <pt x="715" y="141" on="0"/>
        <pt x="756" y="165" on="1"/>
        <pt x="775" y="45" on="1"/>
        <pt x="734" y="20" on="0"/>
        <pt x="632" y="-11" on="0"/>
        <pt x="572" y="-11" on="1"/>
        <pt x="509" y="-11" on="0"/>
        <pt x="410" y="27" on="0"/>
        <pt x="377" y="64" on="1"/>
        <pt x="335" y="30" on="0"/>
        <pt x="247" y="-11" on="0"/>
        <pt x="193" y="-11" on="1"/>
        <pt x="121" y="-11" on="0"/>
        <pt x="32" y="66" on="0"/>
        <pt x="32" y="141" on="1"/>
        <pt x="32" y="234" on="0"/>
        <pt x="171" y="331" on="0"/>
        <pt x="314" y="348" on="1"/>
        <pt x="314" y="363" on="1"/>
        <pt x="314" y="398" on="0"/>
        <pt x="281" y="431" on="0"/>
        <pt x="243" y="431" on="1"/>
        <pt x="203" y="431" on="0"/>
        <pt x="124" y="408" on="0"/>
        <pt x="82" y="388" on="1"/>
        <pt x="63" y="516" on="1"/>
        <pt x="106" y="535" on="0"/>
        <pt x="206" y="559" on="0"/>
        <pt x="262" y="559" on="1"/>
        <pt x="320" y="559" on="0"/>
        <pt x="392" y="529" on="0"/>
        <pt x="415" y="495" on="1"/>
        <pt x="442" y="527" on="0"/>
        <pt x="512" y="561" on="0"/>
        <pt x="560" y="561" on="1"/>
        <pt x="615" y="561" on="0"/>
        <pt x="697" y="518" on="0"/>
        <pt x="750" y="443" on="0"/>
        <pt x="776" y="341" on="0"/>
      </contour>
      <contour>
        <pt x="621" y="326" on="1"/>
        <pt x="616" y="449" on="0"/>
        <pt x="547" y="449" on="1"/>
        <pt x="516" y="449" on="0"/>
        <pt x="476" y="389" on="0"/>
        <pt x="472" y="326" on="1"/>
      </contour>
      <contour>
        <pt x="328" y="148" on="1"/>
        <pt x="311" y="199" on="0"/>
        <pt x="310" y="263" on="1"/>
        <pt x="310" y="264" on="1"/>
        <pt x="241" y="249" on="0"/>
        <pt x="188" y="197" on="0"/>
        <pt x="188" y="164" on="1"/>
        <pt x="188" y="136" on="0"/>
        <pt x="218" y="107" on="0"/>
        <pt x="241" y="107" on="1"/>
        <pt x="264" y="107" on="0"/>
        <pt x="305" y="128" on="0"/>
      </contour>
    </TTGlyph>
    <TTGlyph name="aeacute" xMin="32" yMin="-11" xMax="776" yMax="774">
      <component glyphName="acute" x="234" y="0" flags="0x4"/>
      <component glyphName="ae" x="0" y="0" flags="0x4"/>
    </TTGlyph>
    <TTGlyph name="agrave" xMin="32" yMin="-11" xMax="479" yMax="777">
      <component glyphName="a" x="0" y="0" flags="0x204"/>
      <component glyphName="grave" x="-23" y="3" flags="0x4"/>
    </TTGlyph>
    <TTGlyph name="amacron" xMin="32" yMin="-11" xMax="479" yMax="734">
      <component glyphName="a" x="0" y="0" flags="0x204"/>
      <component glyphName="macron" x="33" y="3" flags="0x4"/>
    </TTGlyph>
    <TTGlyph name="ampersand" xMin="29" yMin="-13" xMax="652" yMax="738">
      <contour>
        <pt x="482" y="-7" on="1"/>
        <pt x="429" y="61" on="1"/>
        <pt x="390" y="25" on="0"/>
        <pt x="299" y="-13" on="0"/>
        <pt x="242" y="-13" on="1"/>
        <pt x="194" y="-13" on="0"/>
        <pt x="115" y="15" on="0"/>
        <pt x="59" y="68" on="0"/>
        <pt x="29" y="142" on="0"/>
        <pt x="29" y="188" on="1"/>
        <pt x="29" y="263" on="0"/>
        <pt x="104" y="366" on="0"/>
        <pt x="166" y="401" on="1"/>
        <pt x="134" y="446" on="0"/>
        <pt x="110" y="517" on="0"/>
        <pt x="110" y="559" on="1"/>
        <pt x="110" y="597" on="0"/>
        <pt x="138" y="663" on="0"/>
        <pt x="190" y="711" on="0"/>
        <pt x="265" y="738" on="0"/>
        <pt x="313" y="738" on="1"/>
        <pt x="367" y="738" on="0"/>
        <pt x="452" y="716" on="0"/>
        <pt x="490" y="698" on="1"/>
        <pt x="465" y="557" on="1"/>
        <pt x="426" y="578" on="0"/>
        <pt x="361" y="600" on="0"/>
        <pt x="332" y="600" on="1"/>
        <pt x="303" y="600" on="0"/>
        <pt x="271" y="571" on="0"/>
        <pt x="271" y="545" on="1"/>
        <pt x="271" y="525" on="0"/>
        <pt x="290" y="488" on="0"/>
        <pt x="310" y="462" on="1"/>
        <pt x="433" y="301" on="1"/>
        <pt x="442" y="330" on="0"/>
        <pt x="458" y="396" on="0"/>
        <pt x="463" y="434" on="1"/>
        <pt x="593" y="401" on="1"/>
        <pt x="574" y="277" on="0"/>
        <pt x="523" y="185" on="1"/>
        <pt x="652" y="16" on="1"/>
      </contour>
      <contour>
        <pt x="268" y="116" on="1"/>
        <pt x="314" y="116" on="0"/>
        <pt x="353" y="159" on="1"/>
        <pt x="239" y="307" on="1"/>
        <pt x="213" y="284" on="0"/>
        <pt x="185" y="232" on="0"/>
        <pt x="185" y="200" on="1"/>
        <pt x="185" y="162" on="0"/>
        <pt x="231" y="116" on="0"/>
      </contour>
    </TTGlyph>
    <TTGlyph name="ampersand.flat" xMin="29" yMin="-13" xMax="660" yMax="738">
      <contour>
        <pt x="475" y="0" on="1"/>
        <pt x="428" y="61" on="1"/>
        <pt x="390" y="25" on="0"/>
        <pt x="299" y="-13" on="0"/>
        <pt x="242" y="-13" on="1"/>
        <pt x="194" y="-13" on="0"/>
        <pt x="115" y="15" on="0"/>
        <pt x="59" y="68" on="0"/>
        <pt x="29" y="142" on="0"/>
        <pt x="29" y="188" on="1"/>
        <pt x="29" y="263" on="0"/>
        <pt x="104" y="366" on="0"/>
        <pt x="166" y="401" on="1"/>
        <pt x="134" y="446" on="0"/>
        <pt x="110" y="517" on="0"/>
        <pt x="110" y="559" on="1"/>
        <pt x="110" y="597" on="0"/>
        <pt x="138" y="663" on="0"/>
        <pt x="190" y="711" on="0"/>
        <pt x="265" y="738" on="0"/>
        <pt x="313" y="738" on="1"/>
        <pt x="367" y="738" on="0"/>
        <pt x="452" y="716" on="0"/>
        <pt x="490" y="698" on="1"/>
        <pt x="465" y="557" on="1"/>
        <pt x="426" y="578" on="0"/>
        <pt x="361" y="600" on="0"/>
        <pt x="332" y="600" on="1"/>
        <pt x="303" y="600" on="0"/>
        <pt x="271" y="571" on="0"/>
        <pt x="271" y="545" on="1"/>
        <pt x="271" y="525" on="0"/>
        <pt x="289" y="489" on="0"/>
        <pt x="310" y="462" on="1"/>
        <pt x="433" y="300" on="1"/>
        <pt x="451" y="358" on="0"/>
        <pt x="463" y="434" on="1"/>
        <pt x="593" y="401" on="1"/>
        <pt x="583" y="338" on="0"/>
        <pt x="547" y="229" on="0"/>
        <pt x="522" y="183" on="1"/>
        <pt x="660" y="0" on="1"/>
      </contour>
      <contour>
        <pt x="268" y="116" on="1"/>
        <pt x="314" y="116" on="0"/>
        <pt x="353" y="159" on="1"/>
        <pt x="238" y="307" on="1"/>
        <pt x="213" y="284" on="0"/>
        <pt x="185" y="232" on="0"/>
        <pt x="185" y="200" on="1"/>
        <pt x="185" y="162" on="0"/>
        <pt x="231" y="116" on="0"/>
      </contour>
    </TTGlyph>
    <TTGlyph name="aogonek" xMin="32" yMin="-221" xMax="488" yMax="559">
      <contour>
        <pt x="435" y="0" on="1"/>
        <pt x="428" y="-11" on="1"/>
        <pt x="411" y="-38" on="0"/>
        <pt x="393" y="-76" on="0"/>
        <pt x="393" y="-93" on="1"/>
        <pt x="393" y="-109" on="0"/>
        <pt x="414" y="-128" on="0"/>
        <pt x="437" y="-128" on="1"/>
        <pt x="450" y="-128" on="0"/>
        <pt x="473" y="-124" on="0"/>
        <pt x="488" y="-121" on="1"/>
        <pt x="488" y="-200" on="1"/>
        <pt x="460" y="-210" on="0"/>
        <pt x="411" y="-221" on="0"/>
        <pt x="382" y="-221" on="1"/>
        <pt x="329" y="-221" on="0"/>
        <pt x="272" y="-175" on="0"/>
        <pt x="272" y="-130" on="1"/>
        <pt x="272" y="-100" on="0"/>
        <pt x="304" y="-36" on="0"/>
        <pt x="336" y="3" on="1"/>
        <pt x="325" y="63" on="1"/>
        <pt x="293" y="29" on="0"/>
        <pt x="219" y="-11" on="0"/>
        <pt x="171" y="-11" on="1"/>
        <pt x="109" y="-11" on="0"/>
        <pt x="32" y="67" on="0"/>
        <pt x="32" y="141" on="1"/>
        <pt x="32" y="235" on="0"/>
        <pt x="173" y="331" on="0"/>
        <pt x="316" y="348" on="1"/>
        <pt x="316" y="363" on="1"/>
        <pt x="316" y="431" on="0"/>
        <pt x="242" y="431" on="1"/>
        <pt x="203" y="431" on="0"/>
        <pt x="124" y="408" on="0"/>
        <pt x="82" y="388" on="1"/>
        <pt x="63" y="516" on="1"/>
        <pt x="107" y="535" on="0"/>
        <pt x="210" y="559" on="0"/>
        <pt x="271" y="559" on="1"/>
        <pt x="374" y="559" on="0"/>
        <pt x="479" y="472" on="0"/>
        <pt x="479" y="370" on="1"/>
        <pt x="479" y="0" on="1"/>
      </contour>
      <contour>
        <pt x="316" y="265" on="1"/>
        <pt x="244" y="251" on="0"/>
        <pt x="188" y="198" on="0"/>
        <pt x="188" y="161" on="1"/>
        <pt x="188" y="135" on="0"/>
        <pt x="215" y="107" on="0"/>
        <pt x="237" y="107" on="1"/>
        <pt x="257" y="107" on="0"/>
        <pt x="294" y="125" on="0"/>
        <pt x="316" y="143" on="1"/>
      </contour>
    </TTGlyph>
    <TTGlyph name="aring" xMin="32" yMin="-11" xMax="479" yMax="850">
      <component glyphName="a" x="0" y="0" flags="0x204"/>
      <component glyphName="ring" x="33" y="3" flags="0x4"/>
    </TTGlyph>
    <TTGlyph name="aringacute" xMin="32" yMin="-11" xMax="479" yMax="1045">
      <contour>
        <pt x="337" y="0" on="1"/>
        <pt x="325" y="63" on="1"/>
        <pt x="293" y="29" on="0"/>
        <pt x="219" y="-11" on="0"/>
        <pt x="171" y="-11" on="1"/>
        <pt x="109" y="-11" on="0"/>
        <pt x="32" y="67" on="0"/>
        <pt x="32" y="141" on="1"/>
        <pt x="32" y="235" on="0"/>
        <pt x="173" y="331" on="0"/>
        <pt x="316" y="348" on="1"/>
        <pt x="316" y="363" on="1"/>
        <pt x="316" y="431" on="0"/>
        <pt x="242" y="431" on="1"/>
        <pt x="203" y="431" on="0"/>
        <pt x="124" y="408" on="0"/>
        <pt x="82" y="388" on="1"/>
        <pt x="63" y="516" on="1"/>
        <pt x="107" y="535" on="0"/>
        <pt x="210" y="559" on="0"/>
        <pt x="271" y="559" on="1"/>
        <pt x="374" y="559" on="0"/>
        <pt x="479" y="472" on="0"/>
        <pt x="479" y="370" on="1"/>
        <pt x="479" y="0" on="1"/>
      </contour>
      <contour>
        <pt x="316" y="265" on="1"/>
        <pt x="244" y="251" on="0"/>
        <pt x="188" y="198" on="0"/>
        <pt x="188" y="161" on="1"/>
        <pt x="188" y="135" on="0"/>
        <pt x="215" y="107" on="0"/>
        <pt x="237" y="107" on="1"/>
        <pt x="257" y="107" on="0"/>
        <pt x="294" y="125" on="0"/>
        <pt x="316" y="143" on="1"/>
      </contour>
      <contour>
        <pt x="319" y="877" on="1"/>
        <pt x="213" y="877" on="1"/>
        <pt x="275" y="1045" on="1"/>
        <pt x="473" y="1011" on="1"/>
      </contour>
      <contour>
        <pt x="415" y="727" on="1"/>
        <pt x="415" y="672" on="0"/>
        <pt x="337" y="604" on="0"/>
        <pt x="270" y="604" on="1"/>
        <pt x="202" y="604" on="0"/>
        <pt x="126" y="672" on="0"/>
        <pt x="126" y="727" on="1"/>
        <pt x="126" y="782" on="0"/>
        <pt x="203" y="850" on="0"/>
        <pt x="270" y="850" on="1"/>
        <pt x="337" y="850" on="0"/>
        <pt x="415" y="782" on="0"/>
      </contour>
      <contour>
        <pt x="325" y="727" on="1"/>
        <pt x="325" y="754" on="0"/>
        <pt x="296" y="788" on="0"/>
        <pt x="270" y="788" on="1"/>
        <pt x="244" y="788" on="0"/>
        <pt x="216" y="754" on="0"/>
        <pt x="216" y="727" on="1"/>
        <pt x="216" y="700" on="0"/>
        <pt x="244" y="667" on="0"/>
        <pt x="270" y="667" on="1"/>
        <pt x="296" y="667" on="0"/>
        <pt x="325" y="700" on="0"/>
      </contour>
    </TTGlyph>
    <TTGlyph name="asciicircum" xMin="49" yMin="538" xMax="393" yMax="731">
      <contour>
        <pt x="288" y="538" on="1"/>
        <pt x="221" y="628" on="1"/>
        <pt x="155" y="538" on="1"/>
        <pt x="49" y="538" on="1"/>
        <pt x="160" y="731" on="1"/>
        <pt x="283" y="731" on="1"/>
        <pt x="393" y="538" on="1"/>
      </contour>
    </TTGlyph>
    <TTGlyph name="asciitilde" xMin="42" yMin="245" xMax="415" yMax="425">
      <contour>
        <pt x="415" y="410" on="1"/>
        <pt x="404" y="324" on="0"/>
        <pt x="354" y="249" on="0"/>
        <pt x="309" y="249" on="1"/>
        <pt x="289" y="249" on="0"/>
        <pt x="250" y="263" on="0"/>
        <pt x="227" y="276" on="1"/>
        <pt x="200" y="289" on="0"/>
        <pt x="171" y="301" on="0"/>
        <pt x="159" y="301" on="1"/>
        <pt x="147" y="301" on="0"/>
        <pt x="133" y="279" on="0"/>
        <pt x="126" y="245" on="1"/>
        <pt x="42" y="260" on="1"/>
        <pt x="52" y="346" on="0"/>
        <pt x="103" y="421" on="0"/>
        <pt x="148" y="421" on="1"/>
        <pt x="168" y="421" on="0"/>
        <pt x="206" y="406" on="0"/>
        <pt x="230" y="394" on="1"/>
        <pt x="257" y="380" on="0"/>
        <pt x="285" y="368" on="0"/>
        <pt x="298" y="368" on="1"/>
        <pt x="309" y="368" on="0"/>
        <pt x="324" y="391" on="0"/>
        <pt x="331" y="425" on="1"/>
      </contour>
    </TTGlyph>
    <TTGlyph name="asterisk" xMin="31" yMin="411" xMax="419" yMax="779">
      <contour>
        <pt x="308" y="554" on="1"/>
        <pt x="357" y="431" on="1"/>
        <pt x="326" y="411" on="1"/>
        <pt x="225" y="494" on="1"/>
        <pt x="124" y="411" on="1"/>
        <pt x="93" y="431" on="1"/>
        <pt x="142" y="554" on="1"/>
        <pt x="31" y="625" on="1"/>
        <pt x="42" y="661" on="1"/>
        <pt x="174" y="653" on="1"/>
        <pt x="205" y="779" on="1"/>
        <pt x="245" y="779" on="1"/>
        <pt x="276" y="653" on="1"/>
        <pt x="408" y="661" on="1"/>
        <pt x="419" y="625" on="1"/>
      </contour>
    </TTGlyph>
    <TTGlyph name="at" xMin="44" yMin="-155" xMax="823" yMax="713">
      <contour>
        <pt x="612" y="50" on="1"/>
        <pt x="559" y="50" on="0"/>
        <pt x="487" y="99" on="0"/>
        <pt x="476" y="144" on="1"/>
        <pt x="437" y="95" on="0"/>
        <pt x="368" y="50" on="0"/>
        <pt x="329" y="50" on="1"/>
        <pt x="279" y="50" on="0"/>
        <pt x="217" y="126" on="0"/>
        <pt x="217" y="198" on="1"/>
        <pt x="217" y="268" on="0"/>
        <pt x="259" y="385" on="0"/>
        <pt x="331" y="470" on="0"/>
        <pt x="430" y="518" on="0"/>
        <pt x="487" y="518" on="1"/>
        <pt x="530" y="518" on="0"/>
        <pt x="612" y="500" on="0"/>
        <pt x="647" y="486" on="1"/>
        <pt x="603" y="212" on="1"/>
        <pt x="601" y="202" on="0"/>
        <pt x="598" y="177" on="0"/>
        <pt x="598" y="166" on="1"/>
        <pt x="598" y="142" on="0"/>
        <pt x="623" y="114" on="0"/>
        <pt x="650" y="114" on="1"/>
        <pt x="675" y="114" on="0"/>
        <pt x="720" y="149" on="0"/>
        <pt x="754" y="214" on="0"/>
        <pt x="774" y="306" on="0"/>
        <pt x="774" y="363" on="1"/>
        <pt x="774" y="442" on="0"/>
        <pt x="732" y="559" on="0"/>
        <pt x="657" y="635" on="0"/>
        <pt x="552" y="672" on="0"/>
        <pt x="488" y="672" on="1"/>
        <pt x="407" y="672" on="0"/>
        <pt x="263" y="599" on="0"/>
        <pt x="155" y="472" on="0"/>
        <pt x="92" y="302" on="0"/>
        <pt x="92" y="205" on="1"/>
        <pt x="92" y="123" on="0"/>
        <pt x="135" y="3" on="0"/>
        <pt x="214" y="-76" on="0"/>
        <pt x="324" y="-115" on="0"/>
        <pt x="390" y="-115" on="1"/>
        <pt x="453" y="-115" on="0"/>
        <pt x="562" y="-85" on="0"/>
        <pt x="611" y="-58" on="1"/>
        <pt x="617" y="-99" on="1"/>
        <pt x="572" y="-123" on="0"/>
        <pt x="456" y="-155" on="0"/>
        <pt x="387" y="-155" on="1"/>
        <pt x="307" y="-155" on="0"/>
        <pt x="180" y="-108" on="0"/>
        <pt x="91" y="-16" on="0"/>
        <pt x="44" y="117" on="0"/>
        <pt x="44" y="204" on="1"/>
        <pt x="44" y="307" on="0"/>
        <pt x="115" y="492" on="0"/>
        <pt x="236" y="631" on="0"/>
        <pt x="399" y="713" on="0"/>
        <pt x="492" y="713" on="1"/>
        <pt x="566" y="713" on="0"/>
        <pt x="688" y="668" on="0"/>
        <pt x="775" y="579" on="0"/>
        <pt x="823" y="449" on="0"/>
        <pt x="823" y="365" on="1"/>
        <pt x="823" y="293" on="0"/>
        <pt x="793" y="177" on="0"/>
        <pt x="738" y="94" on="0"/>
        <pt x="660" y="50" on="0"/>
      </contour>
      <contour>
        <pt x="386" y="164" on="1"/>
        <pt x="404" y="164" on="0"/>
        <pt x="445" y="197" on="0"/>
        <pt x="474" y="230" on="1"/>
        <pt x="503" y="407" on="1"/>
        <pt x="496" y="409" on="0"/>
        <pt x="482" y="412" on="0"/>
        <pt x="471" y="412" on="1"/>
        <pt x="447" y="412" on="0"/>
        <pt x="403" y="382" on="0"/>
        <pt x="369" y="331" on="0"/>
        <pt x="349" y="263" on="0"/>
        <pt x="349" y="225" on="1"/>
        <pt x="349" y="193" on="0"/>
        <pt x="369" y="164" on="0"/>
      </contour>
    </TTGlyph>
    <TTGlyph name="atilde" xMin="32" yMin="-11" xMax="479" yMax="780">
      <component glyphName="a" x="0" y="0" flags="0x204"/>
      <component glyphName="tilde" x="37" y="3" flags="0x4"/>
    </TTGlyph>
    <TTGlyph name="b" xMin="57" yMin="-7" xMax="535" yMax="809">
      <contour>
        <pt x="535" y="292" on="1"/>
        <pt x="535" y="214" on="0"/>
        <pt x="497" y="101" on="0"/>
        <pt x="428" y="28" on="0"/>
        <pt x="328" y="-7" on="0"/>
        <pt x="267" y="-7" on="1"/>
        <pt x="207" y="-7" on="0"/>
        <pt x="101" y="14" on="0"/>
        <pt x="57" y="31" on="1"/>
        <pt x="57" y="784" on="1"/>
        <pt x="221" y="809" on="1"/>
        <pt x="221" y="500" on="1"/>
        <pt x="246" y="523" on="0"/>
        <pt x="307" y="560" on="0"/>
        <pt x="351" y="560" on="1"/>
        <pt x="390" y="560" on="0"/>
        <pt x="458" y="527" on="0"/>
        <pt x="507" y="460" on="0"/>
        <pt x="535" y="359" on="0"/>
      </contour>
      <contour>
        <pt x="371" y="280" on="1"/>
        <pt x="371" y="353" on="0"/>
        <pt x="327" y="417" on="0"/>
        <pt x="295" y="417" on="1"/>
        <pt x="275" y="417" on="0"/>
        <pt x="239" y="395" on="0"/>
        <pt x="221" y="377" on="1"/>
        <pt x="221" y="135" on="1"/>
        <pt x="233" y="130" on="0"/>
        <pt x="253" y="126" on="0"/>
        <pt x="267" y="126" on="1"/>
        <pt x="313" y="126" on="0"/>
        <pt x="371" y="197" on="0"/>
      </contour>
    </TTGlyph>
    <TTGlyph name="backslash" xMin="13" yMin="-142" xMax="527" yMax="783">
      <contour>
        <pt x="398" y="-142" on="1"/>
        <pt x="13" y="755" on="1"/>
        <pt x="142" y="783" on="1"/>
        <pt x="527" y="-114" on="1"/>
      </contour>
    </TTGlyph>
    <TTGlyph name="baht" xMin="-15" yMin="-130" xMax="526" yMax="781">
      <contour>
        <pt x="-15" y="-111" on="1"/>
        <pt x="63" y="40" on="1"/>
        <pt x="63" y="720" on="1"/>
        <pt x="268" y="720" on="1"/>
        <pt x="339" y="720" on="0"/>
        <pt x="390" y="702" on="1"/>
        <pt x="431" y="781" on="1"/>
        <pt x="506" y="762" on="1"/>
        <pt x="455" y="665" on="1"/>
        <pt x="509" y="619" on="0"/>
        <pt x="509" y="540" on="1"/>
        <pt x="509" y="479" on="0"/>
        <pt x="450" y="399" on="0"/>
        <pt x="402" y="380" on="1"/>
        <pt x="459" y="359" on="0"/>
        <pt x="526" y="278" on="0"/>
        <pt x="526" y="207" on="1"/>
        <pt x="526" y="154" on="0"/>
        <pt x="488" y="77" on="0"/>
        <pt x="418" y="25" on="0"/>
        <pt x="320" y="0" on="0"/>
        <pt x="261" y="0" on="1"/>
        <pt x="129" y="0" on="1"/>
        <pt x="61" y="-130" on="1"/>
      </contour>
      <contour>
        <pt x="215" y="319" on="1"/>
        <pt x="215" y="120" on="1"/>
        <pt x="257" y="120" on="1"/>
        <pt x="311" y="120" on="0"/>
        <pt x="369" y="171" on="0"/>
        <pt x="369" y="218" on="1"/>
        <pt x="369" y="319" on="0"/>
        <pt x="254" y="319" on="1"/>
      </contour>
      <contour>
        <pt x="215" y="599" on="1"/>
        <pt x="215" y="422" on="1"/>
        <pt x="259" y="422" on="1"/>
        <pt x="308" y="422" on="0"/>
        <pt x="359" y="471" on="0"/>
        <pt x="359" y="513" on="1"/>
        <pt x="359" y="553" on="0"/>
        <pt x="312" y="599" on="0"/>
        <pt x="261" y="599" on="1"/>
      </contour>
    </TTGlyph>
    <TTGlyph name="bar" xMin="89" yMin="-208" xMax="220" yMax="808">
      <contour>
        <pt x="89" y="-208" on="1"/>
        <pt x="89" y="788" on="1"/>
        <pt x="220" y="808" on="1"/>
        <pt x="220" y="-188" on="1"/>
      </contour>
    </TTGlyph>
    <TTGlyph name="bar.tab" xMin="68" yMin="-148" xMax="196" yMax="908">
      <contour>
        <pt x="68" y="-148" on="1"/>
        <pt x="68" y="888" on="1"/>
        <pt x="196" y="908" on="1"/>
        <pt x="196" y="-129" on="1"/>
      </contour>
    </TTGlyph>
    <TTGlyph name="braceleft" xMin="30" yMin="-113" xMax="481" yMax="776">
      <contour>
        <pt x="335" y="-113" on="1"/>
        <pt x="249" y="-113" on="0"/>
        <pt x="162" y="-36" on="0"/>
        <pt x="162" y="33" on="1"/>
        <pt x="162" y="72" on="0"/>
        <pt x="177" y="144" on="0"/>
        <pt x="177" y="182" on="1"/>
        <pt x="177" y="238" on="0"/>
        <pt x="119" y="280" on="0"/>
        <pt x="68" y="280" on="1"/>
        <pt x="46" y="280" on="1"/>
        <pt x="30" y="386" on="1"/>
        <pt x="66" y="386" on="1"/>
        <pt x="92" y="386" on="0"/>
        <pt x="133" y="395" on="0"/>
        <pt x="162" y="417" on="0"/>
        <pt x="177" y="454" on="0"/>
        <pt x="177" y="482" on="1"/>
        <pt x="177" y="520" on="0"/>
        <pt x="162" y="591" on="0"/>
        <pt x="162" y="630" on="1"/>
        <pt x="162" y="698" on="0"/>
        <pt x="249" y="776" on="0"/>
        <pt x="335" y="776" on="1"/>
        <pt x="475" y="776" on="1"/>
        <pt x="475" y="673" on="1"/>
        <pt x="393" y="673" on="1"/>
        <pt x="319" y="673" on="0"/>
        <pt x="319" y="610" on="1"/>
        <pt x="319" y="577" on="0"/>
        <pt x="334" y="512" on="0"/>
        <pt x="334" y="474" on="1"/>
        <pt x="334" y="411" on="0"/>
        <pt x="269" y="347" on="0"/>
        <pt x="207" y="333" on="1"/>
        <pt x="207" y="331" on="1"/>
        <pt x="269" y="317" on="0"/>
        <pt x="334" y="253" on="0"/>
        <pt x="334" y="190" on="1"/>
        <pt x="334" y="153" on="0"/>
        <pt x="319" y="87" on="0"/>
        <pt x="319" y="54" on="1"/>
        <pt x="319" y="-8" on="0"/>
        <pt x="393" y="-8" on="1"/>
        <pt x="464" y="-8" on="1"/>
        <pt x="481" y="-113" on="1"/>
      </contour>
    </TTGlyph>
    <TTGlyph name="braceleft.flat" xMin="37" yMin="-113" xMax="475" yMax="776">
      <contour>
        <pt x="335" y="-113" on="1"/>
        <pt x="249" y="-113" on="0"/>
        <pt x="162" y="-36" on="0"/>
        <pt x="162" y="33" on="1"/>
        <pt x="162" y="72" on="0"/>
        <pt x="177" y="144" on="0"/>
        <pt x="177" y="182" on="1"/>
        <pt x="177" y="238" on="0"/>
        <pt x="119" y="280" on="0"/>
        <pt x="68" y="280" on="1"/>
        <pt x="37" y="280" on="1"/>
        <pt x="37" y="386" on="1"/>
        <pt x="66" y="386" on="1"/>
        <pt x="92" y="386" on="0"/>
        <pt x="133" y="395" on="0"/>
        <pt x="162" y="417" on="0"/>
        <pt x="177" y="454" on="0"/>
        <pt x="177" y="482" on="1"/>
        <pt x="177" y="520" on="0"/>
        <pt x="162" y="591" on="0"/>
        <pt x="162" y="630" on="1"/>
        <pt x="162" y="698" on="0"/>
        <pt x="249" y="776" on="0"/>
        <pt x="335" y="776" on="1"/>
        <pt x="475" y="776" on="1"/>
        <pt x="475" y="673" on="1"/>
        <pt x="393" y="673" on="1"/>
        <pt x="319" y="673" on="0"/>
        <pt x="319" y="610" on="1"/>
        <pt x="319" y="577" on="0"/>
        <pt x="334" y="512" on="0"/>
        <pt x="334" y="474" on="1"/>
        <pt x="334" y="411" on="0"/>
        <pt x="269" y="347" on="0"/>
        <pt x="207" y="333" on="1"/>
        <pt x="207" y="331" on="1"/>
        <pt x="269" y="317" on="0"/>
        <pt x="334" y="253" on="0"/>
        <pt x="334" y="190" on="1"/>
        <pt x="334" y="153" on="0"/>
        <pt x="319" y="87" on="0"/>
        <pt x="319" y="54" on="1"/>
        <pt x="319" y="-8" on="0"/>
        <pt x="393" y="-8" on="1"/>
        <pt x="475" y="-8" on="1"/>
        <pt x="475" y="-113" on="1"/>
      </contour>
    </TTGlyph>
    <TTGlyph name="braceright" xMin="34" yMin="-113" xMax="485" yMax="776">
      <contour>
        <pt x="179" y="776" on="1"/>
        <pt x="265" y="776" on="0"/>
        <pt x="352" y="699" on="0"/>
        <pt x="352" y="631" on="1"/>
        <pt x="352" y="592" on="0"/>
        <pt x="336" y="519" on="0"/>
        <pt x="336" y="482" on="1"/>
        <pt x="336" y="454" on="0"/>
        <pt x="351" y="417" on="0"/>
        <pt x="380" y="394" on="0"/>
        <pt x="420" y="385" on="0"/>
        <pt x="445" y="385" on="1"/>
        <pt x="468" y="385" on="1"/>
        <pt x="485" y="278" on="1"/>
        <pt x="449" y="278" on="1"/>
        <pt x="396" y="278" on="0"/>
        <pt x="336" y="237" on="0"/>
        <pt x="336" y="182" on="1"/>
        <pt x="336" y="144" on="0"/>
        <pt x="352" y="72" on="0"/>
        <pt x="352" y="34" on="1"/>
        <pt x="352" y="-35" on="0"/>
        <pt x="265" y="-113" on="0"/>
        <pt x="179" y="-113" on="1"/>
        <pt x="39" y="-113" on="1"/>
        <pt x="39" y="-8" on="1"/>
        <pt x="121" y="-8" on="1"/>
        <pt x="195" y="-8" on="0"/>
        <pt x="195" y="54" on="1"/>
        <pt x="195" y="88" on="0"/>
        <pt x="180" y="152" on="0"/>
        <pt x="180" y="190" on="1"/>
        <pt x="180" y="253" on="0"/>
        <pt x="246" y="317" on="0"/>
        <pt x="307" y="331" on="1"/>
        <pt x="307" y="333" on="1"/>
        <pt x="246" y="347" on="0"/>
        <pt x="180" y="412" on="0"/>
        <pt x="180" y="475" on="1"/>
        <pt x="180" y="512" on="0"/>
        <pt x="195" y="577" on="0"/>
        <pt x="195" y="610" on="1"/>
        <pt x="195" y="640" on="0"/>
        <pt x="159" y="673" on="0"/>
        <pt x="121" y="673" on="1"/>
        <pt x="51" y="673" on="1"/>
        <pt x="34" y="776" on="1"/>
      </contour>
    </TTGlyph>
    <TTGlyph name="braceright.flat" xMin="39" yMin="-113" xMax="476" yMax="776">
      <contour>
        <pt x="179" y="776" on="1"/>
        <pt x="265" y="776" on="0"/>
        <pt x="352" y="699" on="0"/>
        <pt x="352" y="631" on="1"/>
        <pt x="352" y="592" on="0"/>
        <pt x="336" y="519" on="0"/>
        <pt x="336" y="482" on="1"/>
        <pt x="336" y="454" on="0"/>
        <pt x="351" y="417" on="0"/>
        <pt x="380" y="394" on="0"/>
        <pt x="420" y="385" on="0"/>
        <pt x="445" y="385" on="1"/>
        <pt x="476" y="385" on="1"/>
        <pt x="476" y="278" on="1"/>
        <pt x="449" y="278" on="1"/>
        <pt x="396" y="278" on="0"/>
        <pt x="336" y="237" on="0"/>
        <pt x="336" y="182" on="1"/>
        <pt x="336" y="144" on="0"/>
        <pt x="352" y="72" on="0"/>
        <pt x="352" y="34" on="1"/>
        <pt x="352" y="-35" on="0"/>
        <pt x="265" y="-113" on="0"/>
        <pt x="179" y="-113" on="1"/>
        <pt x="39" y="-113" on="1"/>
        <pt x="39" y="-8" on="1"/>
        <pt x="121" y="-8" on="1"/>
        <pt x="195" y="-8" on="0"/>
        <pt x="195" y="54" on="1"/>
        <pt x="195" y="88" on="0"/>
        <pt x="180" y="152" on="0"/>
        <pt x="180" y="190" on="1"/>
        <pt x="180" y="253" on="0"/>
        <pt x="246" y="317" on="0"/>
        <pt x="307" y="331" on="1"/>
        <pt x="307" y="333" on="1"/>
        <pt x="246" y="347" on="0"/>
        <pt x="180" y="412" on="0"/>
        <pt x="180" y="475" on="1"/>
        <pt x="180" y="512" on="0"/>
        <pt x="195" y="577" on="0"/>
        <pt x="195" y="610" on="1"/>
        <pt x="195" y="640" on="0"/>
        <pt x="159" y="673" on="0"/>
        <pt x="121" y="673" on="1"/>
        <pt x="39" y="673" on="1"/>
        <pt x="39" y="776" on="1"/>
      </contour>
    </TTGlyph>
    <TTGlyph name="bracketleft" xMin="77" yMin="-113" xMax="395" yMax="776">
      <contour>
        <pt x="77" y="-113" on="1"/>
        <pt x="77" y="776" on="1"/>
        <pt x="389" y="776" on="1"/>
        <pt x="389" y="673" on="1"/>
        <pt x="230" y="673" on="1"/>
        <pt x="230" y="-8" on="1"/>
        <pt x="378" y="-8" on="1"/>
        <pt x="395" y="-113" on="1"/>
      </contour>
    </TTGlyph>
    <TTGlyph name="bracketleft.flat" xMin="77" yMin="-113" xMax="389" yMax="776">
      <contour>
        <pt x="77" y="-113" on="1"/>
        <pt x="77" y="776" on="1"/>
        <pt x="389" y="776" on="1"/>
        <pt x="389" y="673" on="1"/>
        <pt x="230" y="673" on="1"/>
        <pt x="230" y="-8" on="1"/>
        <pt x="389" y="-8" on="1"/>
        <pt x="389" y="-113" on="1"/>
      </contour>
    </TTGlyph>
    <TTGlyph name="bracketright" xMin="33" yMin="-113" xMax="352" yMax="776">
      <contour>
        <pt x="352" y="776" on="1"/>
        <pt x="352" y="-113" on="1"/>
        <pt x="40" y="-113" on="1"/>
        <pt x="40" y="-8" on="1"/>
        <pt x="198" y="-8" on="1"/>
        <pt x="198" y="673" on="1"/>
        <pt x="50" y="673" on="1"/>
        <pt x="33" y="776" on="1"/>
      </contour>
    </TTGlyph>
    <TTGlyph name="bracketright.flat" xMin="40" yMin="-113" xMax="352" yMax="776">
      <contour>
        <pt x="352" y="776" on="1"/>
        <pt x="352" y="-113" on="1"/>
        <pt x="40" y="-113" on="1"/>
        <pt x="40" y="-8" on="1"/>
        <pt x="198" y="-8" on="1"/>
        <pt x="198" y="673" on="1"/>
        <pt x="40" y="673" on="1"/>
        <pt x="40" y="776" on="1"/>
      </contour>
    </TTGlyph>
    <TTGlyph name="breve" xMin="70" yMin="604" xMax="401" yMax="769">
      <contour>
        <pt x="401" y="755" on="1"/>
        <pt x="391" y="683" on="0"/>
        <pt x="309" y="604" on="0"/>
        <pt x="235" y="604" on="1"/>
        <pt x="162" y="604" on="0"/>
        <pt x="80" y="683" on="0"/>
        <pt x="70" y="755" on="1"/>
        <pt x="159" y="769" on="1"/>
        <pt x="169" y="736" on="0"/>
        <pt x="206" y="707" on="0"/>
        <pt x="235" y="707" on="1"/>
        <pt x="264" y="707" on="0"/>
        <pt x="301" y="736" on="0"/>
        <pt x="311" y="769" on="1"/>
      </contour>
    </TTGlyph>
    <TTGlyph name="breve.cap" xMin="65" yMin="566" xMax="377" yMax="722">
      <contour>
        <pt x="377" y="708" on="1"/>
        <pt x="367" y="640" on="0"/>
        <pt x="290" y="566" on="0"/>
        <pt x="221" y="566" on="1"/>
        <pt x="152" y="566" on="0"/>
        <pt x="75" y="640" on="0"/>
        <pt x="65" y="708" on="1"/>
        <pt x="150" y="722" on="1"/>
        <pt x="159" y="690" on="0"/>
        <pt x="194" y="663" on="0"/>
        <pt x="221" y="663" on="1"/>
        <pt x="249" y="663" on="0"/>
        <pt x="283" y="690" on="0"/>
        <pt x="292" y="722" on="1"/>
      </contour>
    </TTGlyph>
    <TTGlyph name="bullet" xMin="75" yMin="188" xMax="391" yMax="536">
      <contour>
        <pt x="368" y="210" on="1"/>
        <pt x="233" y="188" on="1"/>
        <pt x="99" y="210" on="1"/>
        <pt x="75" y="362" on="1"/>
        <pt x="99" y="514" on="1"/>
        <pt x="233" y="536" on="1"/>
        <pt x="368" y="514" on="1"/>
        <pt x="391" y="362" on="1"/>
      </contour>
    </TTGlyph>
    <TTGlyph name="c" xMin="35" yMin="-9" xMax="441" yMax="559">
      <contour>
        <pt x="441" y="34" on="1"/>
        <pt x="406" y="14" on="0"/>
        <pt x="328" y="-9" on="0"/>
        <pt x="283" y="-9" on="1"/>
        <pt x="225" y="-9" on="0"/>
        <pt x="133" y="29" on="0"/>
        <pt x="69" y="101" on="0"/>
        <pt x="35" y="206" on="0"/>
        <pt x="35" y="272" on="1"/>
        <pt x="35" y="341" on="0"/>
        <pt x="73" y="448" on="0"/>
        <pt x="141" y="521" on="0"/>
        <pt x="236" y="559" on="0"/>
        <pt x="293" y="559" on="1"/>
        <pt x="338" y="559" on="0"/>
        <pt x="408" y="540" on="0"/>
        <pt x="437" y="525" on="1"/>
        <pt x="414" y="383" on="1"/>
        <pt x="386" y="400" on="0"/>
        <pt x="338" y="418" on="0"/>
        <pt x="310" y="418" on="1"/>
        <pt x="261" y="418" on="0"/>
        <pt x="199" y="348" on="0"/>
        <pt x="199" y="276" on="1"/>
        <pt x="199" y="239" on="0"/>
        <pt x="217" y="185" on="0"/>
        <pt x="248" y="149" on="0"/>
        <pt x="289" y="132" on="0"/>
        <pt x="312" y="132" on="1"/>
        <pt x="340" y="132" on="0"/>
        <pt x="391" y="149" on="0"/>
        <pt x="421" y="167" on="1"/>
      </contour>
    </TTGlyph>
    <TTGlyph name="cacute" xMin="35" yMin="-9" xMax="475" yMax="777">
      <component glyphName="acute" x="99" y="3" flags="0x4"/>
      <component glyphName="c" x="0" y="0" flags="0x4"/>
    </TTGlyph>
    <TTGlyph name="caron" xMin="56" yMin="606" xMax="413" yMax="770">
      <contour>
        <pt x="162" y="770" on="1"/>
        <pt x="235" y="703" on="1"/>
        <pt x="307" y="770" on="1"/>
        <pt x="413" y="770" on="1"/>
        <pt x="307" y="606" on="1"/>
        <pt x="163" y="606" on="1"/>
        <pt x="56" y="770" on="1"/>
      </contour>
    </TTGlyph>
    <TTGlyph name="caron.alt" xMin="158" yMin="565" xMax="308" yMax="794">
      <contour>
        <pt x="294" y="794" on="1"/>
        <pt x="308" y="752" on="0"/>
        <pt x="308" y="716" on="1"/>
        <pt x="308" y="677" on="0"/>
        <pt x="270" y="599" on="0"/>
        <pt x="236" y="565" on="1"/>
        <pt x="158" y="582" on="1"/>
        <pt x="174" y="614" on="0"/>
        <pt x="186" y="663" on="0"/>
        <pt x="186" y="688" on="1"/>
        <pt x="186" y="727" on="0"/>
        <pt x="166" y="776" on="1"/>
      </contour>
    </TTGlyph>
    <TTGlyph name="caron.alt.cap" xMin="149" yMin="529" xMax="290" yMax="744">
      <contour>
        <pt x="277" y="744" on="1"/>
        <pt x="283" y="724" on="0"/>
        <pt x="290" y="688" on="0"/>
        <pt x="290" y="671" on="1"/>
        <pt x="290" y="634" on="0"/>
        <pt x="254" y="561" on="0"/>
        <pt x="222" y="529" on="1"/>
        <pt x="149" y="545" on="1"/>
        <pt x="163" y="574" on="0"/>
        <pt x="174" y="621" on="0"/>
        <pt x="174" y="644" on="1"/>
        <pt x="174" y="683" on="0"/>
        <pt x="155" y="727" on="1"/>
      </contour>
    </TTGlyph>
    <TTGlyph name="caron.cap" xMin="52" yMin="568" xMax="389" yMax="722">
      <contour>
        <pt x="153" y="722" on="1"/>
        <pt x="220" y="660" on="1"/>
        <pt x="288" y="722" on="1"/>
        <pt x="389" y="722" on="1"/>
        <pt x="289" y="568" on="1"/>
        <pt x="152" y="568" on="1"/>
        <pt x="52" y="722" on="1"/>
      </contour>
    </TTGlyph>
    <TTGlyph name="ccaron" xMin="35" yMin="-9" xMax="456" yMax="773">
      <component glyphName="caron" x="43" y="3" flags="0x4"/>
      <component glyphName="c" x="0" y="0" flags="0x4"/>
    </TTGlyph>
    <TTGlyph name="ccedilla" xMin="35" yMin="-202" xMax="441" yMax="559">
      <component glyphName="c" x="0" y="0" flags="0x204"/>
      <component glyphName="cedilla" x="18" y="0" flags="0x4"/>
    </TTGlyph>
    <TTGlyph name="cdotaccent" xMin="35" yMin="-9" xMax="441" yMax="754">
      <component glyphName="c" x="0" y="0" flags="0x204"/>
      <component glyphName="dotaccent" x="42" y="3" flags="0x4"/>
    </TTGlyph>
    <TTGlyph name="cedilla" xMin="108" yMin="-202" xMax="361" yMax="-49">
      <contour>
        <pt x="214" y="-202" on="1"/>
        <pt x="108" y="-202" on="1"/>
        <pt x="163" y="-49" on="1"/>
        <pt x="361" y="-84" on="1"/>
      </contour>
    </TTGlyph>
    <TTGlyph name="cedilla.cap" xMin="101" yMin="-189" xMax="340" yMax="-45">
      <contour>
        <pt x="201" y="-189" on="1"/>
        <pt x="101" y="-189" on="1"/>
        <pt x="152" y="-45" on="1"/>
        <pt x="340" y="-78" on="1"/>
      </contour>
    </TTGlyph>
    <TTGlyph name="cent" xMin="38" yMin="-11" xMax="453" yMax="727">
      <contour>
        <pt x="453" y="136" on="1"/>
        <pt x="419" y="117" on="0"/>
        <pt x="350" y="96" on="0"/>
        <pt x="308" y="93" on="1"/>
        <pt x="298" y="93" on="1"/>
        <pt x="281" y="-11" on="1"/>
        <pt x="201" y="7" on="1"/>
        <pt x="216" y="101" on="1"/>
        <pt x="136" y="121" on="0"/>
        <pt x="38" y="250" on="0"/>
        <pt x="38" y="356" on="1"/>
        <pt x="38" y="421" on="0"/>
        <pt x="78" y="521" on="0"/>
        <pt x="147" y="588" on="0"/>
        <pt x="242" y="623" on="0"/>
        <pt x="297" y="623" on="1"/>
        <pt x="298" y="623" on="1"/>
        <pt x="314" y="727" on="1"/>
        <pt x="393" y="709" on="1"/>
        <pt x="378" y="614" on="1"/>
        <pt x="398" y="609" on="0"/>
        <pt x="432" y="596" on="0"/>
        <pt x="448" y="588" on="1"/>
        <pt x="429" y="459" on="1"/>
        <pt x="412" y="470" on="0"/>
        <pt x="374" y="486" on="0"/>
        <pt x="351" y="491" on="1"/>
        <pt x="310" y="221" on="1"/>
        <pt x="320" y="221" on="1"/>
        <pt x="349" y="223" on="0"/>
        <pt x="404" y="240" on="0"/>
        <pt x="436" y="259" on="1"/>
      </contour>
      <contour>
        <pt x="188" y="358" on="1"/>
        <pt x="188" y="314" on="0"/>
        <pt x="216" y="251" on="0"/>
        <pt x="245" y="235" on="1"/>
        <pt x="285" y="497" on="1"/>
        <pt x="283" y="497" on="0"/>
        <pt x="281" y="496" on="0"/>
        <pt x="279" y="496" on="1"/>
        <pt x="234" y="488" on="0"/>
        <pt x="188" y="416" on="0"/>
      </contour>
    </TTGlyph>
    <TTGlyph name="cent.tab" xMin="56" yMin="-12" xMax="472" yMax="726">
      <contour>
        <pt x="472" y="138" on="1"/>
        <pt x="439" y="119" on="0"/>
        <pt x="369" y="97" on="0"/>
        <pt x="326" y="94" on="1"/>
        <pt x="316" y="94" on="1"/>
        <pt x="300" y="-12" on="1"/>
        <pt x="223" y="7" on="1"/>
        <pt x="237" y="101" on="1"/>
        <pt x="156" y="121" on="0"/>
        <pt x="56" y="250" on="0"/>
        <pt x="56" y="356" on="1"/>
        <pt x="56" y="418" on="0"/>
        <pt x="94" y="516" on="0"/>
        <pt x="160" y="583" on="0"/>
        <pt x="250" y="620" on="0"/>
        <pt x="303" y="622" on="1"/>
        <pt x="315" y="622" on="1"/>
        <pt x="331" y="726" on="1"/>
        <pt x="410" y="708" on="1"/>
        <pt x="395" y="614" on="1"/>
        <pt x="416" y="609" on="0"/>
        <pt x="451" y="595" on="0"/>
        <pt x="468" y="586" on="1"/>
        <pt x="449" y="458" on="1"/>
        <pt x="431" y="469" on="0"/>
        <pt x="392" y="486" on="0"/>
        <pt x="369" y="491" on="1"/>
        <pt x="328" y="221" on="1"/>
        <pt x="338" y="221" on="1"/>
        <pt x="367" y="223" on="0"/>
        <pt x="424" y="241" on="0"/>
        <pt x="456" y="260" on="1"/>
      </contour>
      <contour>
        <pt x="200" y="356" on="1"/>
        <pt x="200" y="309" on="0"/>
        <pt x="232" y="245" on="0"/>
        <pt x="264" y="231" on="1"/>
        <pt x="304" y="496" on="1"/>
        <pt x="300" y="496" on="1"/>
        <pt x="251" y="491" on="0"/>
        <pt x="200" y="418" on="0"/>
      </contour>
    </TTGlyph>
    <TTGlyph name="circumflex" xMin="58" yMin="606" xMax="414" yMax="771">
      <contour>
        <pt x="308" y="606" on="1"/>
        <pt x="236" y="673" on="1"/>
        <pt x="163" y="606" on="1"/>
        <pt x="58" y="606" on="1"/>
        <pt x="164" y="771" on="1"/>
        <pt x="308" y="771" on="1"/>
        <pt x="414" y="606" on="1"/>
      </contour>
    </TTGlyph>
    <TTGlyph name="circumflex.cap" xMin="53" yMin="568" xMax="390" yMax="723">
      <contour>
        <pt x="289" y="568" on="1"/>
        <pt x="222" y="630" on="1"/>
        <pt x="154" y="568" on="1"/>
        <pt x="53" y="568" on="1"/>
        <pt x="153" y="723" on="1"/>
        <pt x="290" y="723" on="1"/>
        <pt x="390" y="568" on="1"/>
      </contour>
    </TTGlyph>
    <TTGlyph name="colon" xMin="53" yMin="0" xMax="224" yMax="550">
      <contour>
        <pt x="53" y="361" on="1"/>
        <pt x="53" y="550" on="1"/>
        <pt x="224" y="550" on="1"/>
        <pt x="224" y="361" on="1"/>
      </contour>
      <contour>
        <pt x="53" y="0" on="1"/>
        <pt x="53" y="190" on="1"/>
        <pt x="224" y="190" on="1"/>
        <pt x="224" y="0" on="1"/>
      </contour>
    </TTGlyph>
    <TTGlyph name="colon.tab" xMin="49" yMin="0" xMax="215" yMax="550">
      <contour>
        <pt x="49" y="359" on="1"/>
        <pt x="49" y="550" on="1"/>
        <pt x="215" y="550" on="1"/>
        <pt x="215" y="359" on="1"/>
      </contour>
      <contour>
        <pt x="49" y="0" on="1"/>
        <pt x="49" y="191" on="1"/>
        <pt x="215" y="191" on="1"/>
        <pt x="215" y="0" on="1"/>
      </contour>
    </TTGlyph>
    <TTGlyph name="colonmonetary" xMin="40" yMin="-127" xMax="539" yMax="799">
      <contour>
        <pt x="186" y="-110" on="1"/>
        <pt x="207" y="21" on="1"/>
        <pt x="125" y="57" on="0"/>
        <pt x="40" y="228" on="0"/>
        <pt x="40" y="356" on="1"/>
        <pt x="40" y="437" on="0"/>
        <pt x="77" y="568" on="0"/>
        <pt x="149" y="663" on="0"/>
        <pt x="253" y="717" on="0"/>
        <pt x="320" y="721" on="1"/>
        <pt x="333" y="799" on="1"/>
        <pt x="405" y="783" on="1"/>
        <pt x="395" y="718" on="1"/>
        <pt x="423" y="714" on="0"/>
        <pt x="451" y="704" on="1"/>
        <pt x="466" y="799" on="1"/>
        <pt x="539" y="783" on="1"/>
        <pt x="435" y="141" on="1"/>
        <pt x="450" y="147" on="0"/>
        <pt x="480" y="161" on="0"/>
        <pt x="496" y="170" on="1"/>
        <pt x="517" y="41" on="1"/>
        <pt x="493" y="29" on="0"/>
        <pt x="442" y="10" on="0"/>
        <pt x="413" y="4" on="1"/>
        <pt x="392" y="-127" on="1"/>
        <pt x="319" y="-110" on="1"/>
        <pt x="336" y="-4" on="1"/>
        <pt x="335" y="-4" on="1"/>
        <pt x="320" y="-4" on="0"/>
        <pt x="292" y="-2" on="0"/>
        <pt x="279" y="0" on="1"/>
        <pt x="258" y="-127" on="1"/>
      </contour>
      <contour>
        <pt x="193" y="345" on="1"/>
        <pt x="193" y="214" on="0"/>
        <pt x="243" y="163" on="1"/>
        <pt x="312" y="590" on="1"/>
        <pt x="248" y="576" on="0"/>
        <pt x="193" y="448" on="0"/>
      </contour>
      <contour>
        <pt x="348" y="125" on="1"/>
        <pt x="354" y="125" on="0"/>
        <pt x="367" y="125" on="0"/>
        <pt x="373" y="126" on="1"/>
        <pt x="444" y="569" on="1"/>
        <pt x="426" y="577" on="0"/>
        <pt x="391" y="589" on="0"/>
        <pt x="372" y="591" on="1"/>
        <pt x="298" y="131" on="1"/>
        <pt x="320" y="125" on="0"/>
      </contour>
    </TTGlyph>
    <TTGlyph name="comma" xMin="27" yMin="-149" xMax="244" yMax="190">
      <contour>
        <pt x="120" y="-149" on="1"/>
        <pt x="27" y="-126" on="1"/>
        <pt x="63" y="190" on="1"/>
        <pt x="244" y="190" on="1"/>
      </contour>
    </TTGlyph>
    <TTGlyph name="comma.alt" xMin="15" yMin="-150" xMax="230" yMax="190">
      <contour>
        <pt x="219" y="190" on="1"/>
        <pt x="230" y="149" on="0"/>
        <pt x="230" y="107" on="1"/>
        <pt x="230" y="39" on="0"/>
        <pt x="168" y="-84" on="0"/>
        <pt x="105" y="-150" on="1"/>
        <pt x="15" y="-121" on="1"/>
        <pt x="43" y="-64" on="0"/>
        <pt x="66" y="31" on="0"/>
        <pt x="67" y="76" on="1"/>
        <pt x="67" y="105" on="0"/>
        <pt x="60" y="160" on="0"/>
        <pt x="52" y="190" on="1"/>
      </contour>
    </TTGlyph>
    <TTGlyph name="comma.tab" xMin="24" yMin="-153" xMax="243" yMax="194">
      <contour>
        <pt x="120" y="-153" on="1"/>
        <pt x="24" y="-134" on="1"/>
        <pt x="66" y="194" on="1"/>
        <pt x="243" y="194" on="1"/>
      </contour>
    </TTGlyph>
    <TTGlyph name="comma.tab_alt" xMin="18" yMin="-153" xMax="230" yMax="194">
      <contour>
        <pt x="218" y="194" on="1"/>
        <pt x="223" y="174" on="0"/>
        <pt x="230" y="130" on="0"/>
        <pt x="230" y="109" on="1"/>
        <pt x="230" y="40" on="0"/>
        <pt x="166" y="-85" on="0"/>
        <pt x="100" y="-153" on="1"/>
        <pt x="18" y="-123" on="1"/>
        <pt x="47" y="-64" on="0"/>
        <pt x="72" y="31" on="0"/>
        <pt x="72" y="79" on="1"/>
        <pt x="72" y="108" on="0"/>
        <pt x="64" y="163" on="0"/>
        <pt x="56" y="194" on="1"/>
      </contour>
    </TTGlyph>
    <TTGlyph name="commaaccent" xMin="136" yMin="-273" xMax="327" yMax="-49">
      <contour>
        <pt x="285" y="-49" on="1"/>
        <pt x="305" y="-70" on="0"/>
        <pt x="327" y="-112" on="0"/>
        <pt x="327" y="-138" on="1"/>
        <pt x="327" y="-173" on="0"/>
        <pt x="282" y="-238" on="0"/>
        <pt x="234" y="-273" on="1"/>
        <pt x="136" y="-255" on="1"/>
        <pt x="162" y="-223" on="0"/>
        <pt x="185" y="-177" on="0"/>
        <pt x="185" y="-154" on="1"/>
        <pt x="185" y="-136" on="0"/>
        <pt x="170" y="-99" on="0"/>
        <pt x="150" y="-76" on="1"/>
      </contour>
    </TTGlyph>
    <TTGlyph name="commaaccent.cap" xMin="127" yMin="-256" xMax="308" yMax="-45">
      <contour>
        <pt x="268" y="-45" on="1"/>
        <pt x="288" y="-65" on="0"/>
        <pt x="308" y="-106" on="0"/>
        <pt x="308" y="-129" on="1"/>
        <pt x="308" y="-193" on="0"/>
        <pt x="220" y="-256" on="1"/>
        <pt x="127" y="-239" on="1"/>
        <pt x="152" y="-210" on="0"/>
        <pt x="174" y="-166" on="0"/>
        <pt x="174" y="-144" on="1"/>
        <pt x="174" y="-127" on="0"/>
        <pt x="159" y="-93" on="0"/>
        <pt x="140" y="-71" on="1"/>
      </contour>
    </TTGlyph>
    <TTGlyph name="commaaccent.rot" xMin="173" yMin="602" xMax="363" yMax="826">
      <contour>
        <pt x="215" y="602" on="1"/>
        <pt x="195" y="623" on="0"/>
        <pt x="173" y="665" on="0"/>
        <pt x="173" y="691" on="1"/>
        <pt x="173" y="726" on="0"/>
        <pt x="218" y="791" on="0"/>
        <pt x="266" y="826" on="1"/>
        <pt x="363" y="808" on="1"/>
        <pt x="337" y="776" on="0"/>
        <pt x="314" y="730" on="0"/>
        <pt x="314" y="707" on="1"/>
        <pt x="314" y="688" on="0"/>
        <pt x="330" y="652" on="0"/>
        <pt x="350" y="629" on="1"/>
      </contour>
    </TTGlyph>
    <TTGlyph name="copyright" xMin="52" yMin="-19" xMax="707" yMax="743">
      <contour>
        <pt x="707" y="363" on="1"/>
        <pt x="707" y="278" on="0"/>
        <pt x="659" y="138" on="0"/>
        <pt x="573" y="37" on="0"/>
        <pt x="452" y="-19" on="0"/>
        <pt x="379" y="-19" on="1"/>
        <pt x="305" y="-19" on="0"/>
        <pt x="185" y="36" on="0"/>
        <pt x="99" y="136" on="0"/>
        <pt x="52" y="276" on="0"/>
        <pt x="52" y="361" on="1"/>
        <pt x="52" y="446" on="0"/>
        <pt x="100" y="587" on="0"/>
        <pt x="186" y="688" on="0"/>
        <pt x="307" y="743" on="0"/>
        <pt x="380" y="743" on="1"/>
        <pt x="453" y="743" on="0"/>
        <pt x="574" y="688" on="0"/>
        <pt x="660" y="588" on="0"/>
        <pt x="707" y="448" on="0"/>
      </contour>
      <contour>
        <pt x="662" y="362" on="1"/>
        <pt x="662" y="444" on="0"/>
        <pt x="618" y="572" on="0"/>
        <pt x="541" y="660" on="0"/>
        <pt x="438" y="706" on="0"/>
        <pt x="380" y="706" on="1"/>
        <pt x="320" y="706" on="0"/>
        <pt x="217" y="660" on="0"/>
        <pt x="141" y="572" on="0"/>
        <pt x="97" y="444" on="0"/>
        <pt x="97" y="362" on="1"/>
        <pt x="97" y="281" on="0"/>
        <pt x="141" y="153" on="0"/>
        <pt x="217" y="66" on="0"/>
        <pt x="321" y="20" on="0"/>
        <pt x="380" y="20" on="1"/>
        <pt x="439" y="20" on="0"/>
        <pt x="542" y="66" on="0"/>
        <pt x="618" y="153" on="0"/>
        <pt x="662" y="281" on="0"/>
      </contour>
      <contour>
        <pt x="517" y="178" on="1"/>
        <pt x="489" y="162" on="0"/>
        <pt x="432" y="147" on="0"/>
        <pt x="397" y="147" on="1"/>
        <pt x="308" y="147" on="0"/>
        <pt x="207" y="262" on="0"/>
        <pt x="207" y="365" on="1"/>
        <pt x="207" y="468" on="0"/>
        <pt x="310" y="585" on="0"/>
        <pt x="398" y="585" on="1"/>
        <pt x="432" y="585" on="0"/>
        <pt x="485" y="571" on="0"/>
        <pt x="509" y="559" on="1"/>
        <pt x="494" y="458" on="1"/>
        <pt x="470" y="475" on="0"/>
        <pt x="433" y="487" on="0"/>
        <pt x="411" y="487" on="1"/>
        <pt x="371" y="487" on="0"/>
        <pt x="326" y="423" on="0"/>
        <pt x="326" y="366" on="1"/>
        <pt x="326" y="307" on="0"/>
        <pt x="372" y="244" on="0"/>
        <pt x="415" y="244" on="1"/>
        <pt x="435" y="244" on="0"/>
        <pt x="475" y="257" on="0"/>
        <pt x="501" y="273" on="1"/>
      </contour>
    </TTGlyph>
    <TTGlyph name="d" xMin="36" yMin="-10" xMax="518" yMax="809">
      <contour>
        <pt x="375" y="0" on="1"/>
        <pt x="365" y="63" on="1"/>
        <pt x="337" y="34" on="0"/>
        <pt x="269" y="-10" on="0"/>
        <pt x="222" y="-10" on="1"/>
        <pt x="182" y="-10" on="0"/>
        <pt x="114" y="24" on="0"/>
        <pt x="64" y="91" on="0"/>
        <pt x="36" y="191" on="0"/>
        <pt x="36" y="258" on="1"/>
        <pt x="36" y="337" on="0"/>
        <pt x="74" y="449" on="0"/>
        <pt x="137" y="521" on="0"/>
        <pt x="220" y="554" on="0"/>
        <pt x="266" y="554" on="1"/>
        <pt x="292" y="554" on="0"/>
        <pt x="333" y="547" on="0"/>
        <pt x="353" y="541" on="1"/>
        <pt x="353" y="784" on="1"/>
        <pt x="518" y="809" on="1"/>
        <pt x="518" y="0" on="1"/>
      </contour>
      <contour>
        <pt x="353" y="412" on="1"/>
        <pt x="339" y="418" on="0"/>
        <pt x="315" y="424" on="0"/>
        <pt x="297" y="424" on="1"/>
        <pt x="254" y="424" on="0"/>
        <pt x="200" y="352" on="0"/>
        <pt x="200" y="269" on="1"/>
        <pt x="200" y="196" on="0"/>
        <pt x="245" y="134" on="0"/>
        <pt x="277" y="134" on="1"/>
        <pt x="299" y="134" on="0"/>
        <pt x="335" y="156" on="0"/>
        <pt x="353" y="174" on="1"/>
      </contour>
    </TTGlyph>
    <TTGlyph name="dagger" xMin="49" yMin="-110" xMax="470" yMax="725">
      <contour>
        <pt x="276" y="514" on="1"/>
        <pt x="244" y="514" on="1"/>
        <pt x="199" y="648" on="1"/>
        <pt x="199" y="725" on="1"/>
        <pt x="321" y="725" on="1"/>
        <pt x="321" y="648" on="1"/>
      </contour>
      <contour>
        <pt x="428" y="416" on="1"/>
        <pt x="299" y="460" on="1"/>
        <pt x="299" y="491" on="1"/>
        <pt x="428" y="536" on="1"/>
        <pt x="470" y="536" on="1"/>
        <pt x="470" y="416" on="1"/>
      </contour>
      <contour>
        <pt x="92" y="416" on="1"/>
        <pt x="49" y="416" on="1"/>
        <pt x="49" y="536" on="1"/>
        <pt x="92" y="536" on="1"/>
        <pt x="221" y="491" on="1"/>
        <pt x="221" y="460" on="1"/>
      </contour>
      <contour>
        <pt x="274" y="-110" on="1"/>
        <pt x="245" y="-110" on="1"/>
        <pt x="206" y="22" on="1"/>
        <pt x="206" y="310" on="1"/>
        <pt x="244" y="438" on="1"/>
        <pt x="276" y="438" on="1"/>
        <pt x="313" y="310" on="1"/>
        <pt x="313" y="22" on="1"/>
      </contour>
    </TTGlyph>
    <TTGlyph name="daggerdbl" xMin="55" yMin="-180" xMax="474" yMax="725">
      <contour>
        <pt x="280" y="514" on="1"/>
        <pt x="249" y="514" on="1"/>
        <pt x="203" y="648" on="1"/>
        <pt x="203" y="725" on="1"/>
        <pt x="325" y="725" on="1"/>
        <pt x="325" y="648" on="1"/>
      </contour>
      <contour>
        <pt x="432" y="418" on="1"/>
        <pt x="304" y="460" on="1"/>
        <pt x="304" y="491" on="1"/>
        <pt x="432" y="534" on="1"/>
        <pt x="474" y="534" on="1"/>
        <pt x="474" y="418" on="1"/>
      </contour>
      <contour>
        <pt x="96" y="418" on="1"/>
        <pt x="55" y="418" on="1"/>
        <pt x="55" y="534" on="1"/>
        <pt x="96" y="534" on="1"/>
        <pt x="225" y="491" on="1"/>
        <pt x="225" y="460" on="1"/>
      </contour>
      <contour>
        <pt x="280" y="109" on="1"/>
        <pt x="249" y="109" on="1"/>
        <pt x="208" y="237" on="1"/>
        <pt x="208" y="310" on="1"/>
        <pt x="249" y="438" on="1"/>
        <pt x="280" y="438" on="1"/>
        <pt x="321" y="310" on="1"/>
        <pt x="321" y="237" on="1"/>
      </contour>
      <contour>
        <pt x="432" y="12" on="1"/>
        <pt x="304" y="56" on="1"/>
        <pt x="304" y="86" on="1"/>
        <pt x="432" y="129" on="1"/>
        <pt x="474" y="129" on="1"/>
        <pt x="474" y="12" on="1"/>
      </contour>
      <contour>
        <pt x="96" y="12" on="1"/>
        <pt x="55" y="12" on="1"/>
        <pt x="55" y="129" on="1"/>
        <pt x="96" y="129" on="1"/>
        <pt x="225" y="86" on="1"/>
        <pt x="225" y="56" on="1"/>
      </contour>
      <contour>
        <pt x="203" y="-180" on="1"/>
        <pt x="203" y="-102" on="1"/>
        <pt x="249" y="33" on="1"/>
        <pt x="280" y="33" on="1"/>
        <pt x="325" y="-102" on="1"/>
        <pt x="325" y="-180" on="1"/>
      </contour>
    </TTGlyph>
    <TTGlyph name="dcaron" xMin="36" yMin="-10" xMax="699" yMax="811">
      <component glyphName="caron.alt" x="391" y="17" flags="0x4"/>
      <component glyphName="d" x="0" y="0" flags="0x4"/>
    </TTGlyph>
    <TTGlyph name="dcroat" xMin="36" yMin="-11" xMax="582" yMax="809">
      <contour>
        <pt x="375" y="0" on="1"/>
        <pt x="365" y="63" on="1"/>
        <pt x="338" y="34" on="0"/>
        <pt x="268" y="-11" on="0"/>
        <pt x="221" y="-11" on="1"/>
        <pt x="181" y="-11" on="0"/>
        <pt x="113" y="23" on="0"/>
        <pt x="64" y="90" on="0"/>
        <pt x="36" y="191" on="0"/>
        <pt x="36" y="258" on="1"/>
        <pt x="36" y="337" on="0"/>
        <pt x="74" y="449" on="0"/>
        <pt x="137" y="521" on="0"/>
        <pt x="220" y="554" on="0"/>
        <pt x="266" y="554" on="1"/>
        <pt x="292" y="554" on="0"/>
        <pt x="333" y="547" on="0"/>
        <pt x="353" y="541" on="1"/>
        <pt x="353" y="618" on="1"/>
        <pt x="236" y="618" on="1"/>
        <pt x="220" y="720" on="1"/>
        <pt x="353" y="720" on="1"/>
        <pt x="353" y="784" on="1"/>
        <pt x="518" y="809" on="1"/>
        <pt x="518" y="720" on="1"/>
        <pt x="582" y="720" on="1"/>
        <pt x="582" y="617" on="1"/>
        <pt x="518" y="617" on="1"/>
        <pt x="518" y="0" on="1"/>
      </contour>
      <contour>
        <pt x="353" y="412" on="1"/>
        <pt x="339" y="418" on="0"/>
        <pt x="315" y="424" on="0"/>
        <pt x="297" y="424" on="1"/>
        <pt x="254" y="424" on="0"/>
        <pt x="200" y="352" on="0"/>
        <pt x="200" y="271" on="1"/>
        <pt x="200" y="199" on="0"/>
        <pt x="245" y="136" on="0"/>
        <pt x="277" y="136" on="1"/>
        <pt x="299" y="136" on="0"/>
        <pt x="335" y="158" on="0"/>
        <pt x="353" y="177" on="1"/>
      </contour>
    </TTGlyph>
    <TTGlyph name="dcroat.flat" xMin="36" yMin="-11" xMax="582" yMax="809">
      <contour>
        <pt x="375" y="0" on="1"/>
        <pt x="365" y="63" on="1"/>
        <pt x="338" y="34" on="0"/>
        <pt x="268" y="-11" on="0"/>
        <pt x="221" y="-11" on="1"/>
        <pt x="181" y="-11" on="0"/>
        <pt x="113" y="23" on="0"/>
        <pt x="64" y="90" on="0"/>
        <pt x="36" y="191" on="0"/>
        <pt x="36" y="258" on="1"/>
        <pt x="36" y="337" on="0"/>
        <pt x="74" y="449" on="0"/>
        <pt x="137" y="521" on="0"/>
        <pt x="220" y="554" on="0"/>
        <pt x="266" y="554" on="1"/>
        <pt x="292" y="554" on="0"/>
        <pt x="333" y="547" on="0"/>
        <pt x="353" y="541" on="1"/>
        <pt x="353" y="618" on="1"/>
        <pt x="228" y="618" on="1"/>
        <pt x="228" y="720" on="1"/>
        <pt x="353" y="720" on="1"/>
        <pt x="353" y="784" on="1"/>
        <pt x="518" y="809" on="1"/>
        <pt x="518" y="720" on="1"/>
        <pt x="582" y="720" on="1"/>
        <pt x="582" y="617" on="1"/>
        <pt x="518" y="617" on="1"/>
        <pt x="518" y="0" on="1"/>
      </contour>
      <contour>
        <pt x="353" y="412" on="1"/>
        <pt x="339" y="418" on="0"/>
        <pt x="315" y="424" on="0"/>
        <pt x="297" y="424" on="1"/>
        <pt x="254" y="424" on="0"/>
        <pt x="200" y="352" on="0"/>
        <pt x="200" y="271" on="1"/>
        <pt x="200" y="199" on="0"/>
        <pt x="245" y="136" on="0"/>
        <pt x="277" y="136" on="1"/>
        <pt x="299" y="136" on="0"/>
        <pt x="335" y="158" on="0"/>
        <pt x="353" y="177" on="1"/>
      </contour>
    </TTGlyph>
    <TTGlyph name="degree" xMin="44" yMin="382" xMax="387" yMax="725">
      <contour>
        <pt x="387" y="553" on="1"/>
        <pt x="387" y="516" on="0"/>
        <pt x="362" y="453" on="0"/>
        <pt x="316" y="408" on="0"/>
        <pt x="253" y="382" on="0"/>
        <pt x="215" y="382" on="1"/>
        <pt x="178" y="382" on="0"/>
        <pt x="115" y="407" on="0"/>
        <pt x="70" y="452" on="0"/>
        <pt x="44" y="515" on="0"/>
        <pt x="44" y="552" on="1"/>
        <pt x="44" y="589" on="0"/>
        <pt x="70" y="653" on="0"/>
        <pt x="115" y="699" on="0"/>
        <pt x="178" y="725" on="0"/>
        <pt x="215" y="725" on="1"/>
        <pt x="252" y="725" on="0"/>
        <pt x="316" y="699" on="0"/>
        <pt x="361" y="653" on="0"/>
        <pt x="387" y="590" on="0"/>
      </contour>
      <contour>
        <pt x="296" y="553" on="1"/>
        <pt x="296" y="590" on="0"/>
        <pt x="251" y="640" on="0"/>
        <pt x="215" y="640" on="1"/>
        <pt x="179" y="640" on="0"/>
        <pt x="135" y="590" on="0"/>
        <pt x="135" y="552" on="1"/>
        <pt x="135" y="514" on="0"/>
        <pt x="179" y="466" on="0"/>
        <pt x="215" y="466" on="1"/>
        <pt x="252" y="466" on="0"/>
        <pt x="296" y="515" on="0"/>
      </contour>
    </TTGlyph>
    <TTGlyph name="degree.tab" xMin="74" yMin="348" xMax="455" yMax="728">
      <contour>
        <pt x="455" y="538" on="1"/>
        <pt x="455" y="496" on="0"/>
        <pt x="427" y="427" on="0"/>
        <pt x="376" y="376" on="0"/>
        <pt x="306" y="348" on="0"/>
        <pt x="264" y="348" on="1"/>
        <pt x="222" y="348" on="0"/>
        <pt x="153" y="376" on="0"/>
        <pt x="102" y="427" on="0"/>
        <pt x="74" y="496" on="0"/>
        <pt x="74" y="538" on="1"/>
        <pt x="74" y="579" on="0"/>
        <pt x="102" y="649" on="0"/>
        <pt x="153" y="700" on="0"/>
        <pt x="223" y="728" on="0"/>
        <pt x="264" y="728" on="1"/>
        <pt x="306" y="728" on="0"/>
        <pt x="376" y="700" on="0"/>
        <pt x="427" y="649" on="0"/>
        <pt x="455" y="579" on="0"/>
      </contour>
      <contour>
        <pt x="165" y="538" on="1"/>
        <pt x="165" y="491" on="0"/>
        <pt x="219" y="433" on="0"/>
        <pt x="264" y="433" on="1"/>
        <pt x="309" y="433" on="0"/>
        <pt x="364" y="491" on="0"/>
        <pt x="364" y="538" on="1"/>
        <pt x="364" y="583" on="0"/>
        <pt x="309" y="643" on="0"/>
        <pt x="264" y="643" on="1"/>
        <pt x="219" y="643" on="0"/>
        <pt x="165" y="583" on="0"/>
      </contour>
    </TTGlyph>
    <TTGlyph name="dieresis" xMin="64" yMin="607" xMax="406" yMax="751">
      <contour>
        <pt x="64" y="607" on="1"/>
        <pt x="64" y="751" on="1"/>
        <pt x="202" y="751" on="1"/>
        <pt x="202" y="607" on="1"/>
      </contour>
      <contour>
        <pt x="268" y="607" on="1"/>
        <pt x="268" y="751" on="1"/>
        <pt x="406" y="751" on="1"/>
        <pt x="406" y="607" on="1"/>
      </contour>
    </TTGlyph>
    <TTGlyph name="dieresis.cap" xMin="60" yMin="569" xMax="382" yMax="705">
      <contour>
        <pt x="60" y="569" on="1"/>
        <pt x="60" y="705" on="1"/>
        <pt x="190" y="705" on="1"/>
        <pt x="190" y="569" on="1"/>
      </contour>
      <contour>
        <pt x="251" y="569" on="1"/>
        <pt x="251" y="705" on="1"/>
        <pt x="382" y="705" on="1"/>
        <pt x="382" y="569" on="1"/>
      </contour>
    </TTGlyph>
    <TTGlyph name="divide" xMin="52" yMin="101" xMax="491" yMax="616">
      <contour>
        <pt x="205" y="485" on="1"/>
        <pt x="205" y="616" on="1"/>
        <pt x="338" y="616" on="1"/>
        <pt x="338" y="485" on="1"/>
      </contour>
      <contour>
        <pt x="52" y="300" on="1"/>
        <pt x="52" y="418" on="1"/>
        <pt x="491" y="418" on="1"/>
        <pt x="491" y="300" on="1"/>
      </contour>
      <contour>
        <pt x="205" y="101" on="1"/>
        <pt x="205" y="233" on="1"/>
        <pt x="338" y="233" on="1"/>
        <pt x="338" y="101" on="1"/>
      </contour>
    </TTGlyph>
    <TTGlyph name="divide.tab" xMin="45" yMin="101" xMax="484" yMax="616">
      <contour>
        <pt x="198" y="485" on="1"/>
        <pt x="198" y="616" on="1"/>
        <pt x="331" y="616" on="1"/>
        <pt x="331" y="485" on="1"/>
      </contour>
      <contour>
        <pt x="45" y="300" on="1"/>
        <pt x="45" y="418" on="1"/>
        <pt x="484" y="418" on="1"/>
        <pt x="484" y="300" on="1"/>
      </contour>
      <contour>
        <pt x="198" y="101" on="1"/>
        <pt x="198" y="233" on="1"/>
        <pt x="331" y="233" on="1"/>
        <pt x="331" y="101" on="1"/>
      </contour>
    </TTGlyph>
    <TTGlyph name="dollar" xMin="27" yMin="-129" xMax="517" yMax="801">
      <contour>
        <pt x="377" y="713" on="1"/>
        <pt x="410" y="707" on="0"/>
        <pt x="470" y="684" on="0"/>
        <pt x="496" y="668" on="1"/>
        <pt x="472" y="531" on="1"/>
        <pt x="413" y="571" on="0"/>
        <pt x="350" y="586" on="1"/>
        <pt x="327" y="431" on="1"/>
        <pt x="373" y="412" on="0"/>
        <pt x="444" y="373" on="0"/>
        <pt x="492" y="322" on="0"/>
        <pt x="517" y="256" on="0"/>
        <pt x="517" y="210" on="1"/>
        <pt x="517" y="154" on="0"/>
        <pt x="478" y="73" on="0"/>
        <pt x="411" y="20" on="0"/>
        <pt x="322" y="-5" on="0"/>
        <pt x="271" y="-5" on="1"/>
        <pt x="267" y="-5" on="1"/>
        <pt x="248" y="-129" on="1"/>
        <pt x="169" y="-112" on="1"/>
        <pt x="187" y="3" on="1"/>
        <pt x="143" y="11" on="0"/>
        <pt x="62" y="42" on="0"/>
        <pt x="27" y="62" on="1"/>
        <pt x="49" y="199" on="1"/>
        <pt x="91" y="174" on="0"/>
        <pt x="172" y="139" on="0"/>
        <pt x="214" y="131" on="1"/>
        <pt x="240" y="304" on="1"/>
        <pt x="196" y="322" on="0"/>
        <pt x="125" y="359" on="0"/>
        <pt x="75" y="408" on="0"/>
        <pt x="49" y="474" on="0"/>
        <pt x="49" y="519" on="1"/>
        <pt x="49" y="568" on="0"/>
        <pt x="84" y="644" on="0"/>
        <pt x="148" y="695" on="0"/>
        <pt x="236" y="722" on="0"/>
        <pt x="289" y="722" on="1"/>
        <pt x="298" y="722" on="1"/>
        <pt x="310" y="801" on="1"/>
        <pt x="388" y="784" on="1"/>
      </contour>
      <contour>
        <pt x="374" y="196" on="1"/>
        <pt x="374" y="222" on="0"/>
        <pt x="346" y="260" on="0"/>
        <pt x="303" y="279" on="1"/>
        <pt x="280" y="124" on="1"/>
        <pt x="283" y="124" on="1"/>
        <pt x="325" y="126" on="0"/>
        <pt x="374" y="163" on="0"/>
      </contour>
      <contour>
        <pt x="192" y="531" on="1"/>
        <pt x="192" y="508" on="0"/>
        <pt x="221" y="475" on="0"/>
        <pt x="263" y="456" on="1"/>
        <pt x="285" y="594" on="1"/>
        <pt x="278" y="594" on="1"/>
        <pt x="236" y="594" on="0"/>
        <pt x="192" y="560" on="0"/>
      </contour>
    </TTGlyph>
    <TTGlyph name="dollar.tab" xMin="26" yMin="-128" xMax="491" yMax="799">
      <contour>
        <pt x="159" y="-113" on="1"/>
        <pt x="175" y="1" on="1"/>
        <pt x="134" y="9" on="0"/>
        <pt x="61" y="36" on="0"/>
        <pt x="26" y="54" on="1"/>
        <pt x="48" y="189" on="1"/>
        <pt x="87" y="166" on="0"/>
        <pt x="163" y="133" on="0"/>
        <pt x="201" y="124" on="1"/>
        <pt x="227" y="305" on="1"/>
        <pt x="180" y="321" on="0"/>
        <pt x="111" y="360" on="0"/>
        <pt x="66" y="410" on="0"/>
        <pt x="44" y="473" on="0"/>
        <pt x="44" y="515" on="1"/>
        <pt x="44" y="612" on="0"/>
        <pt x="162" y="722" on="0"/>
        <pt x="269" y="722" on="1"/>
        <pt x="278" y="722" on="1"/>
        <pt x="289" y="799" on="1"/>
        <pt x="367" y="784" on="1"/>
        <pt x="356" y="713" on="1"/>
        <pt x="391" y="705" on="0"/>
        <pt x="448" y="682" on="0"/>
        <pt x="472" y="669" on="1"/>
        <pt x="450" y="534" on="1"/>
        <pt x="425" y="550" on="0"/>
        <pt x="364" y="581" on="0"/>
        <pt x="332" y="591" on="1"/>
        <pt x="309" y="427" on="1"/>
        <pt x="358" y="410" on="0"/>
        <pt x="427" y="370" on="0"/>
        <pt x="471" y="319" on="0"/>
        <pt x="491" y="255" on="0"/>
        <pt x="491" y="214" on="1"/>
        <pt x="491" y="159" on="0"/>
        <pt x="455" y="77" on="0"/>
        <pt x="391" y="22" on="0"/>
        <pt x="305" y="-6" on="0"/>
        <pt x="254" y="-6" on="1"/>
        <pt x="236" y="-128" on="1"/>
      </contour>
      <contour>
        <pt x="179" y="528" on="1"/>
        <pt x="179" y="500" on="0"/>
        <pt x="209" y="464" on="0"/>
        <pt x="247" y="447" on="1"/>
        <pt x="270" y="602" on="1"/>
        <pt x="264" y="602" on="1"/>
        <pt x="262" y="602" on="1"/>
        <pt x="223" y="602" on="0"/>
        <pt x="179" y="560" on="0"/>
      </contour>
      <contour>
        <pt x="356" y="200" on="1"/>
        <pt x="356" y="229" on="0"/>
        <pt x="327" y="269" on="0"/>
        <pt x="289" y="286" on="1"/>
        <pt x="265" y="117" on="1"/>
        <pt x="268" y="117" on="1"/>
        <pt x="310" y="119" on="0"/>
        <pt x="356" y="163" on="0"/>
      </contour>
    </TTGlyph>
    <TTGlyph name="dotaccent" xMin="163" yMin="607" xMax="307" yMax="751">
      <contour>
        <pt x="163" y="607" on="1"/>
        <pt x="163" y="751" on="1"/>
        <pt x="307" y="751" on="1"/>
        <pt x="307" y="607" on="1"/>
      </contour>
    </TTGlyph>
    <TTGlyph name="dotaccent.cap" xMin="153" yMin="569" xMax="289" yMax="705">
      <contour>
        <pt x="153" y="569" on="1"/>
        <pt x="153" y="705" on="1"/>
        <pt x="289" y="705" on="1"/>
        <pt x="289" y="569" on="1"/>
      </contour>
    </TTGlyph>
    <TTGlyph name="dotlessi" xMin="60" yMin="0" xMax="225" yMax="550">
      <contour>
        <pt x="60" y="0" on="1"/>
        <pt x="60" y="550" on="1"/>
        <pt x="225" y="550" on="1"/>
        <pt x="225" y="0" on="1"/>
      </contour>
    </TTGlyph>
    <TTGlyph name="e" xMin="34" yMin="-11" xMax="499" yMax="561">
      <contour>
        <pt x="498" y="45" on="1"/>
        <pt x="458" y="20" on="0"/>
        <pt x="356" y="-11" on="0"/>
        <pt x="295" y="-11" on="1"/>
        <pt x="175" y="-11" on="0"/>
        <pt x="34" y="130" on="0"/>
        <pt x="34" y="274" on="1"/>
        <pt x="34" y="338" on="0"/>
        <pt x="68" y="443" on="0"/>
        <pt x="131" y="519" on="0"/>
        <pt x="219" y="561" on="0"/>
        <pt x="274" y="561" on="1"/>
        <pt x="332" y="561" on="0"/>
        <pt x="417" y="518" on="0"/>
        <pt x="473" y="443" on="0"/>
        <pt x="499" y="341" on="0"/>
        <pt x="499" y="281" on="1"/>
        <pt x="499" y="269" on="0"/>
        <pt x="498" y="236" on="0"/>
        <pt x="496" y="229" on="1"/>
        <pt x="196" y="229" on="1"/>
        <pt x="204" y="167" on="0"/>
        <pt x="267" y="113" on="0"/>
        <pt x="320" y="113" on="1"/>
        <pt x="360" y="113" on="0"/>
        <pt x="439" y="140" on="0"/>
        <pt x="481" y="165" on="1"/>
      </contour>
      <contour>
        <pt x="271" y="449" on="1"/>
        <pt x="240" y="449" on="0"/>
        <pt x="199" y="389" on="0"/>
        <pt x="195" y="326" on="1"/>
        <pt x="344" y="326" on="1"/>
        <pt x="339" y="449" on="0"/>
      </contour>
    </TTGlyph>
    <TTGlyph name="eacute" xMin="34" yMin="-11" xMax="499" yMax="777">
      <component glyphName="acute" x="97" y="3" flags="0x4"/>
      <component glyphName="e" x="0" y="0" flags="0x4"/>
    </TTGlyph>
    <TTGlyph name="ebreve" xMin="34" yMin="-11" xMax="499" yMax="772">
      <component glyphName="e" x="0" y="0" flags="0x204"/>
      <component glyphName="breve" x="41" y="3" flags="0x4"/>
    </TTGlyph>
    <TTGlyph name="ecaron" xMin="34" yMin="-11" xMax="499" yMax="773">
      <component glyphName="caron" x="42" y="3" flags="0x4"/>
      <component glyphName="e" x="0" y="0" flags="0x4"/>
    </TTGlyph>
    <TTGlyph name="ecircumflex" xMin="34" yMin="-11" xMax="499" yMax="774">
      <component glyphName="circumflex" x="40" y="3" flags="0x4"/>
      <component glyphName="e" x="0" y="0" flags="0x4"/>
    </TTGlyph>
    <TTGlyph name="edieresis" xMin="34" yMin="-11" xMax="499" yMax="754">
      <component glyphName="dieresis" x="41" y="3" flags="0x4"/>
      <component glyphName="e" x="0" y="0" flags="0x4"/>
    </TTGlyph>
    <TTGlyph name="edotaccent" xMin="34" yMin="-11" xMax="499" yMax="754">
      <component glyphName="e" x="0" y="0" flags="0x204"/>
      <component glyphName="dotaccent" x="41" y="3" flags="0x4"/>
    </TTGlyph>
    <TTGlyph name="egrave" xMin="34" yMin="-11" xMax="499" yMax="777">
      <component glyphName="e" x="0" y="0" flags="0x204"/>
      <component glyphName="grave" x="-16" y="3" flags="0x4"/>
    </TTGlyph>
    <TTGlyph name="eight" xMin="38" yMin="-14" xMax="553" yMax="731">
      <contour>
        <pt x="38" y="186" on="1"/>
        <pt x="38" y="245" on="0"/>
        <pt x="102" y="336" on="0"/>
        <pt x="159" y="371" on="1"/>
        <pt x="110" y="402" on="0"/>
        <pt x="58" y="484" on="0"/>
        <pt x="58" y="539" on="1"/>
        <pt x="58" y="582" on="0"/>
        <pt x="92" y="653" on="0"/>
        <pt x="155" y="704" on="0"/>
        <pt x="244" y="731" on="0"/>
        <pt x="299" y="731" on="1"/>
        <pt x="353" y="731" on="0"/>
        <pt x="440" y="704" on="0"/>
        <pt x="502" y="655" on="0"/>
        <pt x="535" y="587" on="0"/>
        <pt x="535" y="546" on="1"/>
        <pt x="535" y="495" on="0"/>
        <pt x="482" y="414" on="0"/>
        <pt x="432" y="381" on="1"/>
        <pt x="492" y="348" on="0"/>
        <pt x="553" y="261" on="0"/>
        <pt x="553" y="194" on="1"/>
        <pt x="553" y="149" on="0"/>
        <pt x="518" y="73" on="0"/>
        <pt x="451" y="18" on="0"/>
        <pt x="356" y="-14" on="0"/>
        <pt x="296" y="-14" on="1"/>
        <pt x="233" y="-14" on="0"/>
        <pt x="137" y="16" on="0"/>
        <pt x="71" y="70" on="0"/>
        <pt x="38" y="143" on="0"/>
      </contour>
      <contour>
        <pt x="200" y="198" on="1"/>
        <pt x="200" y="156" on="0"/>
        <pt x="254" y="104" on="0"/>
        <pt x="298" y="104" on="1"/>
        <pt x="338" y="104" on="0"/>
        <pt x="391" y="152" on="0"/>
        <pt x="391" y="193" on="1"/>
        <pt x="391" y="214" on="0"/>
        <pt x="378" y="247" on="0"/>
        <pt x="349" y="276" on="0"/>
        <pt x="301" y="303" on="0"/>
        <pt x="267" y="318" on="1"/>
        <pt x="235" y="292" on="0"/>
        <pt x="200" y="233" on="0"/>
      </contour>
      <contour>
        <pt x="214" y="542" on="1"/>
        <pt x="214" y="525" on="0"/>
        <pt x="224" y="497" on="0"/>
        <pt x="249" y="471" on="0"/>
        <pt x="290" y="445" on="0"/>
        <pt x="321" y="432" on="1"/>
        <pt x="349" y="455" on="0"/>
        <pt x="379" y="505" on="0"/>
        <pt x="379" y="537" on="1"/>
        <pt x="379" y="573" on="0"/>
        <pt x="334" y="618" on="0"/>
        <pt x="296" y="618" on="1"/>
        <pt x="258" y="618" on="0"/>
        <pt x="214" y="574" on="0"/>
      </contour>
    </TTGlyph>
    <TTGlyph name="eight.den" xMin="32" yMin="-10" xMax="321" yMax="387">
      <component glyphName="eight.num" x="0" y="-344" flags="0x204"/>
    </TTGlyph>
    <TTGlyph name="eight.inf" xMin="32" yMin="-168" xMax="321" yMax="229">
      <component glyphName="eight.num" x="0" y="-502" flags="0x204"/>
    </TTGlyph>
    <TTGlyph name="eight.num" xMin="32" yMin="334" xMax="321" yMax="731">
      <contour>
        <pt x="32" y="443" on="1"/>
        <pt x="32" y="472" on="0"/>
        <pt x="63" y="520" on="0"/>
        <pt x="97" y="539" on="1"/>
        <pt x="40" y="570" on="0"/>
        <pt x="40" y="625" on="1"/>
        <pt x="40" y="673" on="0"/>
        <pt x="115" y="731" on="0"/>
        <pt x="178" y="731" on="1"/>
        <pt x="237" y="731" on="0"/>
        <pt x="312" y="678" on="0"/>
        <pt x="312" y="633" on="1"/>
        <pt x="312" y="601" on="0"/>
        <pt x="279" y="559" on="0"/>
        <pt x="253" y="543" on="1"/>
        <pt x="289" y="526" on="0"/>
        <pt x="321" y="479" on="0"/>
        <pt x="321" y="447" on="1"/>
        <pt x="321" y="398" on="0"/>
        <pt x="245" y="334" on="0"/>
        <pt x="175" y="334" on="1"/>
        <pt x="104" y="334" on="0"/>
        <pt x="32" y="395" on="0"/>
      </contour>
      <contour>
        <pt x="223" y="449" on="1"/>
        <pt x="223" y="469" on="0"/>
        <pt x="195" y="500" on="0"/>
        <pt x="160" y="514" on="1"/>
        <pt x="129" y="486" on="0"/>
        <pt x="129" y="452" on="1"/>
        <pt x="129" y="429" on="0"/>
        <pt x="157" y="405" on="0"/>
        <pt x="177" y="405" on="1"/>
        <pt x="198" y="405" on="0"/>
        <pt x="223" y="429" on="0"/>
      </contour>
      <contour>
        <pt x="133" y="622" on="1"/>
        <pt x="133" y="605" on="0"/>
        <pt x="160" y="579" on="0"/>
        <pt x="195" y="565" on="1"/>
        <pt x="218" y="591" on="0"/>
        <pt x="218" y="619" on="1"/>
        <pt x="218" y="639" on="0"/>
        <pt x="196" y="662" on="0"/>
        <pt x="176" y="662" on="1"/>
        <pt x="156" y="662" on="0"/>
        <pt x="133" y="640" on="0"/>
      </contour>
    </TTGlyph>
    <TTGlyph name="eight.sup" xMin="32" yMin="432" xMax="321" yMax="829">
      <component glyphName="eight.num" x="0" y="98" flags="0x204"/>
    </TTGlyph>
    <TTGlyph name="eight.tab" xMin="31" yMin="-11" xMax="497" yMax="733">
      <contour>
        <pt x="497" y="193" on="1"/>
        <pt x="497" y="149" on="0"/>
        <pt x="465" y="74" on="0"/>
        <pt x="405" y="20" on="0"/>
        <pt x="319" y="-11" on="0"/>
        <pt x="264" y="-11" on="1"/>
        <pt x="207" y="-11" on="0"/>
        <pt x="120" y="19" on="0"/>
        <pt x="61" y="72" on="0"/>
        <pt x="31" y="144" on="0"/>
        <pt x="31" y="186" on="1"/>
        <pt x="31" y="247" on="0"/>
        <pt x="89" y="342" on="0"/>
        <pt x="143" y="377" on="1"/>
        <pt x="95" y="407" on="0"/>
        <pt x="45" y="488" on="0"/>
        <pt x="45" y="539" on="1"/>
        <pt x="45" y="581" on="0"/>
        <pt x="76" y="653" on="0"/>
        <pt x="134" y="704" on="0"/>
        <pt x="216" y="733" on="0"/>
        <pt x="267" y="733" on="1"/>
        <pt x="318" y="733" on="0"/>
        <pt x="398" y="706" on="0"/>
        <pt x="454" y="656" on="0"/>
        <pt x="484" y="588" on="0"/>
        <pt x="484" y="548" on="1"/>
        <pt x="484" y="489" on="0"/>
        <pt x="426" y="407" on="0"/>
        <pt x="384" y="376" on="1"/>
        <pt x="444" y="341" on="0"/>
        <pt x="497" y="251" on="0"/>
      </contour>
      <contour>
        <pt x="346" y="194" on="1"/>
        <pt x="346" y="236" on="0"/>
        <pt x="300" y="303" on="0"/>
        <pt x="240" y="331" on="1"/>
        <pt x="211" y="306" on="0"/>
        <pt x="181" y="239" on="0"/>
        <pt x="181" y="202" on="1"/>
        <pt x="181" y="153" on="0"/>
        <pt x="229" y="104" on="0"/>
        <pt x="266" y="104" on="1"/>
        <pt x="301" y="104" on="0"/>
        <pt x="346" y="152" on="0"/>
      </contour>
      <contour>
        <pt x="192" y="541" on="1"/>
        <pt x="192" y="503" on="0"/>
        <pt x="235" y="447" on="0"/>
        <pt x="288" y="421" on="1"/>
        <pt x="336" y="466" on="0"/>
        <pt x="336" y="535" on="1"/>
        <pt x="336" y="577" on="0"/>
        <pt x="296" y="620" on="0"/>
        <pt x="264" y="620" on="1"/>
        <pt x="230" y="620" on="0"/>
        <pt x="192" y="576" on="0"/>
      </contour>
    </TTGlyph>
    <TTGlyph name="ellipsis" xMin="52" yMin="0" xMax="738" yMax="188">
      <contour>
        <pt x="570" y="0" on="1"/>
        <pt x="570" y="188" on="1"/>
        <pt x="738" y="188" on="1"/>
        <pt x="738" y="0" on="1"/>
      </contour>
      <contour>
        <pt x="311" y="0" on="1"/>
        <pt x="311" y="188" on="1"/>
        <pt x="478" y="188" on="1"/>
        <pt x="478" y="0" on="1"/>
      </contour>
      <contour>
        <pt x="52" y="0" on="1"/>
        <pt x="52" y="188" on="1"/>
        <pt x="219" y="188" on="1"/>
        <pt x="219" y="0" on="1"/>
      </contour>
    </TTGlyph>
    <TTGlyph name="emacron" xMin="34" yMin="-11" xMax="499" yMax="734">
      <component glyphName="e" x="0" y="0" flags="0x204"/>
      <component glyphName="macron" x="41" y="3" flags="0x4"/>
    </TTGlyph>
    <TTGlyph name="emdash" xMin="43" yMin="250" xMax="868" yMax="402">
      <contour>
        <pt x="43" y="250" on="1"/>
        <pt x="43" y="402" on="1"/>
        <pt x="868" y="402" on="1"/>
        <pt x="868" y="250" on="1"/>
      </contour>
    </TTGlyph>
    <TTGlyph name="endash" xMin="43" yMin="249" xMax="441" yMax="403">
      <contour>
        <pt x="43" y="249" on="1"/>
        <pt x="43" y="403" on="1"/>
        <pt x="441" y="403" on="1"/>
        <pt x="441" y="249" on="1"/>
      </contour>
    </TTGlyph>
    <TTGlyph name="eogonek" xMin="34" yMin="-221" xMax="499" yMax="561">
      <contour>
        <pt x="379" y="-221" on="1"/>
        <pt x="326" y="-221" on="0"/>
        <pt x="269" y="-175" on="0"/>
        <pt x="269" y="-130" on="1"/>
        <pt x="269" y="-102" on="0"/>
        <pt x="302" y="-41" on="0"/>
        <pt x="334" y="-8" on="1"/>
        <pt x="325" y="-9" on="0"/>
        <pt x="306" y="-11" on="0"/>
        <pt x="295" y="-11" on="1"/>
        <pt x="175" y="-11" on="0"/>
        <pt x="34" y="130" on="0"/>
        <pt x="34" y="274" on="1"/>
        <pt x="34" y="338" on="0"/>
        <pt x="68" y="443" on="0"/>
        <pt x="131" y="519" on="0"/>
        <pt x="219" y="561" on="0"/>
        <pt x="274" y="561" on="1"/>
        <pt x="332" y="561" on="0"/>
        <pt x="417" y="518" on="0"/>
        <pt x="473" y="443" on="0"/>
        <pt x="499" y="341" on="0"/>
        <pt x="499" y="281" on="1"/>
        <pt x="499" y="270" on="0"/>
        <pt x="498" y="235" on="0"/>
        <pt x="496" y="229" on="1"/>
        <pt x="197" y="229" on="1"/>
        <pt x="204" y="168" on="0"/>
        <pt x="268" y="113" on="0"/>
        <pt x="320" y="113" on="1"/>
        <pt x="360" y="113" on="0"/>
        <pt x="439" y="140" on="0"/>
        <pt x="481" y="165" on="1"/>
        <pt x="496" y="57" on="1"/>
        <pt x="446" y="0" on="1"/>
        <pt x="416" y="-32" on="0"/>
        <pt x="390" y="-75" on="0"/>
        <pt x="390" y="-93" on="1"/>
        <pt x="390" y="-109" on="0"/>
        <pt x="411" y="-128" on="0"/>
        <pt x="434" y="-128" on="1"/>
        <pt x="448" y="-128" on="0"/>
        <pt x="470" y="-124" on="0"/>
        <pt x="486" y="-121" on="1"/>
        <pt x="486" y="-200" on="1"/>
        <pt x="457" y="-210" on="0"/>
        <pt x="408" y="-221" on="0"/>
      </contour>
      <contour>
        <pt x="344" y="326" on="1"/>
        <pt x="339" y="449" on="0"/>
        <pt x="271" y="449" on="1"/>
        <pt x="240" y="449" on="0"/>
        <pt x="200" y="389" on="0"/>
        <pt x="195" y="326" on="1"/>
      </contour>
    </TTGlyph>
    <TTGlyph name="equal" xMin="64" yMin="187" xMax="488" yMax="532">
      <contour>
        <pt x="64" y="412" on="1"/>
        <pt x="64" y="532" on="1"/>
        <pt x="488" y="532" on="1"/>
        <pt x="488" y="412" on="1"/>
      </contour>
      <contour>
        <pt x="64" y="187" on="1"/>
        <pt x="64" y="306" on="1"/>
        <pt x="488" y="306" on="1"/>
        <pt x="488" y="187" on="1"/>
      </contour>
    </TTGlyph>
    <TTGlyph name="equal.tab" xMin="52" yMin="187" xMax="477" yMax="532">
      <contour>
        <pt x="52" y="412" on="1"/>
        <pt x="52" y="532" on="1"/>
        <pt x="477" y="532" on="1"/>
        <pt x="477" y="412" on="1"/>
      </contour>
      <contour>
        <pt x="52" y="187" on="1"/>
        <pt x="52" y="306" on="1"/>
        <pt x="477" y="306" on="1"/>
        <pt x="477" y="187" on="1"/>
      </contour>
    </TTGlyph>
    <TTGlyph name="eth" xMin="35" yMin="-12" xMax="535" yMax="809">
      <contour>
        <pt x="166" y="561" on="1"/>
        <pt x="223" y="647" on="1"/>
        <pt x="183" y="666" on="0"/>
        <pt x="139" y="679" on="1"/>
        <pt x="160" y="809" on="1"/>
        <pt x="237" y="791" on="0"/>
        <pt x="299" y="760" on="1"/>
        <pt x="331" y="809" on="1"/>
        <pt x="426" y="788" on="1"/>
        <pt x="373" y="714" on="1"/>
        <pt x="451" y="654" on="0"/>
        <pt x="535" y="473" on="0"/>
        <pt x="535" y="345" on="1"/>
        <pt x="535" y="239" on="0"/>
        <pt x="486" y="97" on="0"/>
        <pt x="443" y="53" on="1"/>
        <pt x="378" y="-12" on="0"/>
        <pt x="275" y="-12" on="1"/>
        <pt x="226" y="-12" on="0"/>
        <pt x="139" y="23" on="0"/>
        <pt x="73" y="90" on="0"/>
        <pt x="35" y="188" on="0"/>
        <pt x="35" y="252" on="1"/>
        <pt x="35" y="311" on="0"/>
        <pt x="65" y="408" on="0"/>
        <pt x="117" y="477" on="0"/>
        <pt x="190" y="514" on="0"/>
        <pt x="232" y="514" on="1"/>
        <pt x="273" y="514" on="0"/>
        <pt x="341" y="486" on="0"/>
        <pt x="371" y="459" on="1"/>
        <pt x="356" y="547" on="0"/>
        <pt x="293" y="603" on="1"/>
        <pt x="263" y="561" on="1"/>
      </contour>
      <contour>
        <pt x="283" y="120" on="1"/>
        <pt x="325" y="120" on="0"/>
        <pt x="376" y="219" on="0"/>
        <pt x="376" y="330" on="1"/>
        <pt x="376" y="344" on="1"/>
        <pt x="327" y="385" on="0"/>
        <pt x="280" y="385" on="1"/>
        <pt x="238" y="385" on="0"/>
        <pt x="195" y="314" on="0"/>
        <pt x="195" y="247" on="1"/>
        <pt x="195" y="190" on="0"/>
        <pt x="242" y="120" on="0"/>
      </contour>
    </TTGlyph>
    <TTGlyph name="exclam" xMin="52" yMin="0" xMax="242" yMax="725">
      <contour>
        <pt x="194" y="262" on="1"/>
        <pt x="102" y="245" on="1"/>
        <pt x="52" y="725" on="1"/>
        <pt x="242" y="725" on="1"/>
      </contour>
      <contour>
        <pt x="66" y="0" on="1"/>
        <pt x="66" y="178" on="1"/>
        <pt x="228" y="178" on="1"/>
        <pt x="228" y="0" on="1"/>
      </contour>
    </TTGlyph>
    <TTGlyph name="exclam.flat" xMin="52" yMin="0" xMax="242" yMax="725">
      <contour>
        <pt x="192" y="254" on="1"/>
        <pt x="102" y="254" on="1"/>
        <pt x="52" y="725" on="1"/>
        <pt x="242" y="725" on="1"/>
      </contour>
      <contour>
        <pt x="66" y="0" on="1"/>
        <pt x="66" y="178" on="1"/>
        <pt x="228" y="178" on="1"/>
        <pt x="228" y="0" on="1"/>
      </contour>
    </TTGlyph>
    <TTGlyph name="exclamdown" xMin="52" yMin="0" xMax="242" yMax="725">
      <contour>
        <pt x="66" y="547" on="1"/>
        <pt x="66" y="725" on="1"/>
        <pt x="228" y="725" on="1"/>
        <pt x="228" y="547" on="1"/>
      </contour>
      <contour>
        <pt x="52" y="0" on="1"/>
        <pt x="100" y="463" on="1"/>
        <pt x="192" y="480" on="1"/>
        <pt x="242" y="0" on="1"/>
      </contour>
    </TTGlyph>
    <TTGlyph name="exclamdown.flat" xMin="52" yMin="0" xMax="242" yMax="725">
      <contour>
        <pt x="66" y="547" on="1"/>
        <pt x="66" y="725" on="1"/>
        <pt x="228" y="725" on="1"/>
        <pt x="228" y="547" on="1"/>
      </contour>
      <contour>
        <pt x="52" y="0" on="1"/>
        <pt x="102" y="472" on="1"/>
        <pt x="192" y="472" on="1"/>
        <pt x="242" y="0" on="1"/>
      </contour>
    </TTGlyph>
    <TTGlyph name="f" xMin="21" yMin="0" xMax="371" yMax="801">
      <contour>
        <pt x="371" y="665" on="1"/>
        <pt x="359" y="667" on="0"/>
        <pt x="331" y="671" on="0"/>
        <pt x="315" y="671" on="1"/>
        <pt x="284" y="671" on="0"/>
        <pt x="253" y="641" on="0"/>
        <pt x="253" y="608" on="1"/>
        <pt x="253" y="550" on="1"/>
        <pt x="342" y="550" on="1"/>
        <pt x="364" y="415" on="1"/>
        <pt x="253" y="415" on="1"/>
        <pt x="253" y="0" on="1"/>
        <pt x="90" y="0" on="1"/>
        <pt x="90" y="415" on="1"/>
        <pt x="21" y="415" on="1"/>
        <pt x="21" y="550" on="1"/>
        <pt x="90" y="550" on="1"/>
        <pt x="90" y="627" on="1"/>
        <pt x="90" y="719" on="0"/>
        <pt x="191" y="801" on="0"/>
        <pt x="281" y="801" on="1"/>
        <pt x="301" y="801" on="0"/>
        <pt x="336" y="797" on="0"/>
        <pt x="350" y="794" on="1"/>
      </contour>
    </TTGlyph>
    <TTGlyph name="f.flat" xMin="21" yMin="0" xMax="371" yMax="801">
      <contour>
        <pt x="371" y="665" on="1"/>
        <pt x="359" y="667" on="0"/>
        <pt x="331" y="671" on="0"/>
        <pt x="315" y="671" on="1"/>
        <pt x="284" y="671" on="0"/>
        <pt x="253" y="641" on="0"/>
        <pt x="253" y="608" on="1"/>
        <pt x="253" y="550" on="1"/>
        <pt x="354" y="550" on="1"/>
        <pt x="354" y="415" on="1"/>
        <pt x="253" y="415" on="1"/>
        <pt x="253" y="0" on="1"/>
        <pt x="90" y="0" on="1"/>
        <pt x="90" y="415" on="1"/>
        <pt x="21" y="415" on="1"/>
        <pt x="21" y="550" on="1"/>
        <pt x="90" y="550" on="1"/>
        <pt x="90" y="627" on="1"/>
        <pt x="90" y="719" on="0"/>
        <pt x="191" y="801" on="0"/>
        <pt x="281" y="801" on="1"/>
        <pt x="301" y="801" on="0"/>
        <pt x="336" y="797" on="0"/>
        <pt x="350" y="794" on="1"/>
      </contour>
    </TTGlyph>
    <TTGlyph name="f_f" xMin="21" yMin="0" xMax="739" yMax="801">
      <component glyphName="f" x="0" y="0" flags="0x4"/>
      <component glyphName="f" x="368" y="0" flags="0x4"/>
    </TTGlyph>
    <TTGlyph name="f_f.flat" xMin="21" yMin="0" xMax="738" yMax="801">
      <component glyphName="f.flat" x="0" y="0" flags="0x4"/>
      <component glyphName="f.flat" x="367" y="0" flags="0x4"/>
    </TTGlyph>
    <TTGlyph name="f_f_i" xMin="21" yMin="0" xMax="962" yMax="801">
      <component glyphName="i" x="726" y="0" flags="0x4"/>
      <component glyphName="f" x="0" y="0" flags="0x4"/>
      <component glyphName="f" x="368" y="0" flags="0x4"/>
    </TTGlyph>
    <TTGlyph name="f_f_i.flat" xMin="21" yMin="0" xMax="960" yMax="801">
      <component glyphName="i" x="724" y="0" flags="0x4"/>
      <component glyphName="f.flat" x="0" y="0" flags="0x4"/>
      <component glyphName="f.flat" x="367" y="0" flags="0x4"/>
    </TTGlyph>
    <TTGlyph name="f_f_l" xMin="21" yMin="0" xMax="951" yMax="809">
      <component glyphName="l" x="726" y="0" flags="0x4"/>
      <component glyphName="f" x="0" y="0" flags="0x4"/>
      <component glyphName="f" x="368" y="0" flags="0x4"/>
    </TTGlyph>
    <TTGlyph name="f_f_l.flat" xMin="21" yMin="0" xMax="949" yMax="809">
      <component glyphName="l" x="724" y="0" flags="0x4"/>
      <component glyphName="f.flat" x="0" y="0" flags="0x4"/>
      <component glyphName="f.flat" x="367" y="0" flags="0x4"/>
    </TTGlyph>
    <TTGlyph name="fi" xMin="21" yMin="0" xMax="594" yMax="801">
      <component glyphName="i" x="358" y="0" flags="0x4"/>
      <component glyphName="f" x="0" y="0" flags="0x4"/>
    </TTGlyph>
</ttFont>
